<svg width="15" height="16" viewBox="0 0 15 16" fill="none" xmlns="http://www.w3.org/2000/svg">
<g clip-path="url(#clip0_520_6001)">
<path fill-rule="evenodd" clip-rule="evenodd" d="M1.25 8C1.25 4.54813 4.04813 1.75 7.5 1.75C10.9519 1.75 13.75 4.54813 13.75 8C13.75 11.4519 10.9519 14.25 7.5 14.25C4.04813 14.25 1.25 11.4519 1.25 8ZM8.125 4.875C8.125 4.70924 8.05915 4.55027 7.94194 4.43306C7.82473 4.31585 7.66576 4.25 7.5 4.25C7.33424 4.25 7.17527 4.31585 7.05806 4.43306C6.94085 4.55027 6.875 4.70924 6.875 4.875V5.5H6.25C5.8356 5.5 5.43817 5.66462 5.14515 5.95765C4.85212 6.25067 4.6875 6.6481 4.6875 7.0625C4.6875 7.4769 4.85212 7.87433 5.14515 8.16735C5.43817 8.46038 5.8356 8.625 6.25 8.625H8.75C8.83288 8.625 8.91237 8.65792 8.97097 8.71653C9.02958 8.77513 9.0625 8.85462 9.0625 8.9375C9.0625 9.02038 9.02958 9.09987 8.97097 9.15847C8.91237 9.21708 8.83288 9.25 8.75 9.25H5.625C5.45924 9.25 5.30027 9.31585 5.18306 9.43306C5.06585 9.55027 5 9.70924 5 9.875C5 10.0408 5.06585 10.1997 5.18306 10.3169C5.30027 10.4342 5.45924 10.5 5.625 10.5H6.875V11.125C6.875 11.2908 6.94085 11.4497 7.05806 11.5669C7.17527 11.6842 7.33424 11.75 7.5 11.75C7.66576 11.75 7.82473 11.6842 7.94194 11.5669C8.05915 11.4497 8.125 11.2908 8.125 11.125V10.5H8.75C9.1644 10.5 9.56183 10.3354 9.85485 10.0424C10.1479 9.74933 10.3125 9.3519 10.3125 8.9375C10.3125 8.5231 10.1479 8.12567 9.85485 7.83265C9.56183 7.53962 9.1644 7.375 8.75 7.375H6.25C6.16712 7.375 6.08763 7.34208 6.02903 7.28347C5.97042 7.22487 5.9375 7.14538 5.9375 7.0625C5.9375 6.97962 5.97042 6.90013 6.02903 6.84153C6.08763 6.78292 6.16712 6.75 6.25 6.75H9.375C9.54076 6.75 9.69973 6.68415 9.81694 6.56694C9.93415 6.44973 10 6.29076 10 6.125C10 5.95924 9.93415 5.80027 9.81694 5.68306C9.69973 5.56585 9.54076 5.5 9.375 5.5H8.125V4.875Z" fill="#667085"/>
</g>
<defs>
<clipPath id="clip0_520_6001">
<rect width="15" height="15" fill="white" transform="translate(0 0.5)"/>
</clipPath>
</defs>
</svg>
