<svg width="15" height="16" viewBox="0 0 15 16" fill="none" xmlns="http://www.w3.org/2000/svg">
<g clip-path="url(#clip0_520_6019)">
<path fill-rule="evenodd" clip-rule="evenodd" d="M5 2.375V13.625H3.125C2.79348 13.625 2.47554 13.4933 2.24112 13.2589C2.0067 13.0245 1.875 12.7065 1.875 12.375V3.625C1.875 3.29348 2.0067 2.97554 2.24112 2.74112C2.47554 2.5067 2.79348 2.375 3.125 2.375H5ZM11.875 2.375C12.2065 2.375 12.5245 2.5067 12.7589 2.74112C12.9933 2.97554 13.125 3.29348 13.125 3.625V12.375C13.125 12.7065 12.9933 13.0245 12.7589 13.2589C12.5245 13.4933 12.2065 13.625 11.875 13.625H6.25V2.375H11.875ZM10.625 9.875H8.75C8.58424 9.875 8.42527 9.94085 8.30806 10.0581C8.19085 10.1753 8.125 10.3342 8.125 10.5C8.125 10.6658 8.19085 10.8247 8.30806 10.9419C8.42527 11.0592 8.58424 11.125 8.75 11.125H10.625C10.7908 11.125 10.9497 11.0592 11.0669 10.9419C11.1842 10.8247 11.25 10.6658 11.25 10.5C11.25 10.3342 11.1842 10.1753 11.0669 10.0581C10.9497 9.94085 10.7908 9.875 10.625 9.875ZM10.625 7.375H8.75C8.5907 7.37518 8.43748 7.43617 8.32164 7.54553C8.20581 7.65489 8.1361 7.80435 8.12677 7.96337C8.11743 8.1224 8.16917 8.27899 8.27142 8.40114C8.37366 8.5233 8.51869 8.60181 8.67688 8.62063L8.75 8.625H10.625C10.7908 8.625 10.9497 8.55915 11.0669 8.44194C11.1842 8.32473 11.25 8.16576 11.25 8C11.25 7.83424 11.1842 7.67527 11.0669 7.55806C10.9497 7.44085 10.7908 7.375 10.625 7.375ZM10.625 4.875H8.75C8.58424 4.875 8.42527 4.94085 8.30806 5.05806C8.19085 5.17527 8.125 5.33424 8.125 5.5C8.125 5.66576 8.19085 5.82473 8.30806 5.94194C8.42527 6.05915 8.58424 6.125 8.75 6.125H10.625C10.7908 6.125 10.9497 6.05915 11.0669 5.94194C11.1842 5.82473 11.25 5.66576 11.25 5.5C11.25 5.33424 11.1842 5.17527 11.0669 5.05806C10.9497 4.94085 10.7908 4.875 10.625 4.875Z" fill="#667085"/>
</g>
<defs>
<clipPath id="clip0_520_6019">
<rect width="15" height="15" fill="white" transform="translate(0 0.5)"/>
</clipPath>
</defs>
</svg>
