<svg width="40" height="40" viewBox="0 0 40 40" fill="none" xmlns="http://www.w3.org/2000/svg">
<rect width="40" height="40" rx="20" fill="#262F3B"/>
<g clip-path="url(#clip0_1525_70621)">
<path fill-rule="evenodd" clip-rule="evenodd" d="M26.4608 13.8825C26.5329 13.8001 26.588 13.7043 26.6231 13.6006C26.6581 13.4969 26.6724 13.3873 26.6651 13.2781C26.6578 13.1688 26.629 13.0621 26.5804 12.964C26.5319 12.8659 26.4645 12.7783 26.3821 12.7062C26.2997 12.6342 26.2039 12.5791 26.1002 12.544C25.9965 12.509 25.8869 12.4947 25.7776 12.502C25.6684 12.5093 25.5617 12.5381 25.4636 12.5866C25.3655 12.6352 25.2779 12.7026 25.2058 12.785L20.9475 17.6517L17.3333 12.8333C17.2557 12.7298 17.1551 12.6458 17.0393 12.588C16.9236 12.5301 16.796 12.5 16.6667 12.5H13.3333C13.1786 12.5 13.0269 12.5431 12.8952 12.6245C12.7636 12.7058 12.6572 12.8222 12.588 12.9607C12.5188 13.0991 12.4895 13.254 12.5034 13.4082C12.5173 13.5623 12.5738 13.7095 12.6667 13.8333L18.0308 20.985L13.5392 26.1183C13.4671 26.2007 13.412 26.2965 13.3769 26.4002C13.3419 26.5039 13.3276 26.6135 13.3349 26.7228C13.3422 26.832 13.371 26.9387 13.4196 27.0368C13.4681 27.1349 13.5355 27.2225 13.6179 27.2946C13.7003 27.3666 13.7961 27.4218 13.8998 27.4568C14.0035 27.4919 14.1131 27.5061 14.2224 27.4988C14.3316 27.4915 14.4383 27.4628 14.5364 27.4142C14.6345 27.3656 14.7221 27.2982 14.7942 27.2158L19.0525 22.3483L22.6667 27.1667C22.7443 27.2702 22.8449 27.3542 22.9607 27.412C23.0764 27.4699 23.204 27.5 23.3333 27.5H26.6667C26.8214 27.5 26.9731 27.4569 27.1048 27.3755C27.2364 27.2942 27.3428 27.1778 27.412 27.0393C27.4812 26.9009 27.5105 26.746 27.4966 26.5918C27.4827 26.4377 27.4262 26.2905 27.3333 26.1667L21.9692 19.015L26.4608 13.8825ZM23.75 25.8333L15 14.1667H16.25L25 25.8333H23.75Z" fill="white"/>
</g>
<defs>
<clipPath id="clip0_1525_70621">
<rect width="20" height="20" fill="white" transform="translate(10 10)"/>
</clipPath>
</defs>
</svg>
