<svg width="40" height="40" viewBox="0 0 40 40" fill="none" xmlns="http://www.w3.org/2000/svg">
<rect width="40" height="40" rx="20" fill="#262F3B"/>
<path d="M24.3669 10H20.9141V23.6232C20.9141 25.2464 19.5861 26.5797 17.9335 26.5797C16.2809 26.5797 14.9529 25.2464 14.9529 23.6232C14.9529 22.029 16.2514 20.7246 17.845 20.6667V17.2464C14.3332 17.3043 11.5001 20.1159 11.5001 23.6232C11.5001 27.1594 14.3922 30 17.963 30C21.5338 30 24.4259 27.1304 24.4259 23.6232V16.6377C25.7244 17.5652 27.318 18.1159 29.0001 18.1449V14.7246C26.4032 14.6377 24.3669 12.5507 24.3669 10Z" fill="white"/>
</svg>
