<svg width="24" height="24" viewBox="0 0 24 24" fill="none" xmlns="http://www.w3.org/2000/svg">
<g clip-path="url(#clip0_358_2820)">
<g clip-path="url(#clip1_358_2820)">
<path fill-rule="evenodd" clip-rule="evenodd" d="M15.6667 4.05786C15.9098 4.05786 16.1429 4.15444 16.3148 4.32635C16.4868 4.49826 16.5833 4.73141 16.5833 4.97453V5.89119H18.4167C18.9029 5.89119 19.3692 6.08435 19.713 6.42817C20.0568 6.77198 20.25 7.2383 20.25 7.72453V18.7245C20.25 19.2108 20.0568 19.6771 19.713 20.0209C19.3692 20.3647 18.9029 20.5579 18.4167 20.5579H5.58333C5.0971 20.5579 4.63079 20.3647 4.28697 20.0209C3.94315 19.6771 3.75 19.2108 3.75 18.7245V7.72453C3.75 7.2383 3.94315 6.77198 4.28697 6.42817C4.63079 6.08435 5.0971 5.89119 5.58333 5.89119H7.41667V4.97453C7.41667 4.73141 7.51324 4.49826 7.68515 4.32635C7.85706 4.15444 8.09022 4.05786 8.33333 4.05786C8.57645 4.05786 8.80961 4.15444 8.98151 4.32635C9.15342 4.49826 9.25 4.73141 9.25 4.97453V5.89119H14.75V4.97453C14.75 4.73141 14.8466 4.49826 15.0185 4.32635C15.1904 4.15444 15.4236 4.05786 15.6667 4.05786ZM8.3425 15.9745H8.33333C8.09969 15.9748 7.87497 16.0643 7.70508 16.2246C7.53519 16.385 7.43295 16.6042 7.41926 16.8375C7.40557 17.0707 7.48145 17.3004 7.63141 17.4795C7.78137 17.6587 7.99408 17.7739 8.22608 17.8014L8.3425 17.8079C8.58562 17.8079 8.81877 17.7113 8.99068 17.5394C9.16259 17.3675 9.25917 17.1343 9.25917 16.8912C9.25917 16.6481 9.16259 16.4149 8.99068 16.243C8.81877 16.0711 8.58562 15.9745 8.3425 15.9745ZM12.0092 15.9745H12C11.7664 15.9748 11.5416 16.0643 11.3717 16.2246C11.2019 16.385 11.0996 16.6042 11.0859 16.8375C11.0722 17.0707 11.1481 17.3004 11.2981 17.4795C11.448 17.6587 11.6607 17.7739 11.8928 17.8014L12.0092 17.8079C12.2523 17.8079 12.4854 17.7113 12.6573 17.5394C12.8293 17.3675 12.9258 17.1343 12.9258 16.8912C12.9258 16.6481 12.8293 16.4149 12.6573 16.243C12.4854 16.0711 12.2523 15.9745 12.0092 15.9745ZM15.6758 15.9745H15.6667C15.433 15.9748 15.2083 16.0643 15.0384 16.2246C14.8685 16.385 14.7663 16.6042 14.7526 16.8375C14.7389 17.0707 14.8148 17.3004 14.9647 17.4795C15.1147 17.6587 15.3274 17.7739 15.5594 17.8014L15.6758 17.8079C15.9189 17.8079 16.1521 17.7113 16.324 17.5394C16.4959 17.3675 16.5925 17.1343 16.5925 16.8912C16.5925 16.6481 16.4959 16.4149 16.324 16.243C16.1521 16.0711 15.9189 15.9745 15.6758 15.9745ZM8.3425 12.3079H8.33333C8.09969 12.3081 7.87497 12.3976 7.70508 12.558C7.53519 12.7184 7.43295 12.9376 7.41926 13.1708C7.40557 13.404 7.48145 13.6337 7.63141 13.8129C7.78137 13.992 7.99408 14.1072 8.22608 14.1348L8.3425 14.1412C8.58562 14.1412 8.81877 14.0446 8.99068 13.8727C9.16259 13.7008 9.25917 13.4676 9.25917 13.2245C9.25917 12.9814 9.16259 12.7483 8.99068 12.5763C8.81877 12.4044 8.58562 12.3079 8.3425 12.3079ZM12.0092 12.3079H12C11.7664 12.3081 11.5416 12.3976 11.3717 12.558C11.2019 12.7184 11.0996 12.9376 11.0859 13.1708C11.0722 13.404 11.1481 13.6337 11.2981 13.8129C11.448 13.992 11.6607 14.1072 11.8928 14.1348L12.0092 14.1412C12.2523 14.1412 12.4854 14.0446 12.6573 13.8727C12.8293 13.7008 12.9258 13.4676 12.9258 13.2245C12.9258 12.9814 12.8293 12.7483 12.6573 12.5763C12.4854 12.4044 12.2523 12.3079 12.0092 12.3079ZM15.6758 12.3079H15.6667C15.433 12.3081 15.2083 12.3976 15.0384 12.558C14.8685 12.7184 14.7663 12.9376 14.7526 13.1708C14.7389 13.404 14.8148 13.6337 14.9647 13.8129C15.1147 13.992 15.3274 14.1072 15.5594 14.1348L15.6758 14.1412C15.9189 14.1412 16.1521 14.0446 16.324 13.8727C16.4959 13.7008 16.5925 13.4676 16.5925 13.2245C16.5925 12.9814 16.4959 12.7483 16.324 12.5763C16.1521 12.4044 15.9189 12.3079 15.6758 12.3079ZM18.4167 7.72453H5.58333V9.55786H18.4167V7.72453Z" fill="#1769FF"/>
</g>
</g>
<defs>
<clipPath id="clip0_358_2820">
<rect width="22.8" height="22.8" fill="white" transform="translate(0.600586 0.907959)"/>
</clipPath>
<clipPath id="clip1_358_2820">
<rect width="22" height="22" fill="white" transform="translate(1 1.30786)"/>
</clipPath>
</defs>
</svg>
