<svg width="391" height="244" viewBox="0 0 391 244" fill="none" xmlns="http://www.w3.org/2000/svg">
<g clip-path="url(#clip0_650_63853)">
<path d="M10.995 116.729L12.0703 114.875L11.1905 113.313L10.0664 115.217L10.995 116.729Z" fill="#FF931E"/>
<path d="M374.919 105.896L376.385 103.358L375.212 101.309L373.746 103.846L374.919 105.896Z" fill="#FF931E"/>
<path d="M52.7848 11.224H55.5706L58.5031 6.09998H53.9578L51.1719 10.9312L52.1005 12.444L52.7848 11.224Z" fill="#FF931E"/>
<path d="M381.52 22.8872L384.794 28.5968L385.576 30.012L387.091 27.4744L384.403 22.8872H381.52Z" fill="#FF931E"/>
<path d="M205.911 34.6968L204.591 32.452L203.271 34.6968H205.911Z" fill="#FF931E"/>
<path d="M183.672 158.112L182.646 156.307L181.57 158.112H183.672Z" fill="#FF931E"/>
<path d="M359.085 122.781L358.4 123.952H359.476L359.916 123.22L359.085 121.854L358.84 122.293L359.085 122.781Z" fill="#FF931E"/>
<path d="M369.104 163.724L366.709 167.872H368.077L369.788 164.944L369.104 163.724Z" fill="#FF931E"/>
<path d="M129.078 51.1912L129.664 50.264H128.051L127.465 51.1912H128.051H129.078Z" fill="#FF931E"/>
<path d="M95.7455 11.0288H95.2079L92.2754 16.1528H92.813L95.7455 11.0288Z" fill="#FF931E"/>
<path d="M68.6196 48.6048L67.4466 46.5064L68.1308 45.3352H67.0556L64.0742 50.4104H67.5443L68.6196 48.6048Z" fill="#FF931E"/>
<path d="M131.521 86.8153L132.157 85.7905L130.642 83.2529L129.615 85.0585H130.544L131.521 86.8153Z" fill="#FF931E"/>
<path d="M209.282 137.86L208.695 138.885L209.526 140.398L210.162 139.324L209.282 137.86Z" fill="#FF931E"/>
<path d="M300.533 45.4816H301.07L300.533 44.5544H297.014L297.6 45.4816H300.533Z" fill="#FF931E"/>
<path d="M345.055 38.6984L345.251 38.9912H350.383L347.401 33.8672H344.469L346.179 36.7952L345.055 38.6984Z" fill="#FF931E"/>
<path d="M225.021 61.1951H225.852H227.172L226.634 60.2679H224.044L223.457 61.1951H225.021Z" fill="#FF931E"/>
<path d="M145.11 64.6599H144.279L144.67 65.3919L145.11 64.6599Z" fill="#FF931E"/>
<path d="M112.316 59.4872L113.782 56.9984L113.342 56.2664H111.778L111.094 57.4376L112.316 59.4872Z" fill="#FF931E"/>
<path d="M265.098 54.5584L266.222 52.704L264.511 49.776H263.192L262.801 50.508L265.098 54.5584Z" fill="#FF931E"/>
<path d="M234.551 58.2673H236.261L236.457 57.9745L234.111 53.9241L232.645 56.4129L234.111 58.9993L234.551 58.2673Z" fill="#FF931E"/>
<path d="M318.127 155.672H319.837L320.033 155.379L317.687 151.329L316.221 153.818L317.687 156.404L318.127 155.672Z" fill="#FF931E"/>
<path d="M333.182 128.783L333.768 129.857L334.061 129.418L333.67 128.783H333.182Z" fill="#FF931E"/>
<path d="M265.537 140.154L265.83 140.69H267.345L268.079 139.519L267.15 137.958H266.808L265.537 140.154Z" fill="#FF931E"/>
<path d="M249.408 125.367H247.698L247.307 126.099L248.138 127.563L249.408 125.367Z" fill="#FF931E"/>
<path d="M135.871 118.682H134.942L134.062 120.243L135.529 122.83L136.897 120.438L135.871 118.682Z" fill="#FF931E"/>
<path d="M235.137 27.7673L236.994 28.8409L238.558 27.9625L236.701 26.8889L235.137 27.7673Z" fill="#39B54A"/>
<path d="M343.2 4.39202V7.12482L348.283 10.1016V5.56322L343.494 2.78162L341.93 3.66002L343.2 4.39202Z" fill="#39B54A"/>
<path d="M134.26 10.4919L138.023 8.34474V5.41674L141.298 3.51354L139.392 2.43994L134.26 5.41674V10.4919Z" fill="#39B54A"/>
<path d="M84.5035 68.32L86.654 67.1V66.5144L82.8906 68.7104V69.2472L84.5035 68.32Z" fill="#39B54A"/>
<path d="M147.064 18.8368L149.997 17.1776L150.437 17.4216L150.926 17.1776L151.561 17.5192V14.7376L150.29 14.0544L147.064 15.9088V18.8368Z" fill="#39B54A"/>
<path d="M29.0794 111.557V110.678V108.58L25.7559 110.532L29.0794 112.484V111.557Z" fill="#39B54A"/>
<path d="M31.4258 167.482V168.36L32.1589 167.921L31.4258 167.482Z" fill="#39B54A"/>
<path d="M39.9306 72.5168V69.6376L40.566 69.2472H40.5171L38.9531 70.1256V72.224L39.7351 72.6632L39.9306 72.5168Z" fill="#39B54A"/>
<path d="M25.5127 157.234L25.3172 157.136L24.5352 157.575V158.454L25.5127 159.039V157.234Z" fill="#39B54A"/>
<path d="M323.895 98.4296L324.872 98.9664V97.356L323.895 96.8192V97.356V98.4296Z" fill="#39B54A"/>
<path d="M375.31 71.0528V70.516L370.227 67.5392V68.1248L375.31 71.0528Z" fill="#39B54A"/>
<path d="M325.996 25.864L328.049 24.644L329.271 25.3272V24.2536L324.139 21.3256V24.7904L325.996 25.864Z" fill="#39B54A"/>
<path d="M271.891 99.9912L272.966 100.577L275.507 99.1128L273.65 98.0392V98.9664L271.891 99.9912Z" fill="#39B54A"/>
<path d="M162.559 108.775L161.533 108.19L160.018 109.068L161.093 109.654L162.559 108.775Z" fill="#39B54A"/>
<path d="M332.984 115.949V116.827V118.145L333.962 117.559V114.973L332.984 114.436V115.949Z" fill="#39B54A"/>
<path d="M297.892 169.434V167.677L296.377 168.555L297.892 169.434Z" fill="#39B54A"/>
<path d="M308.938 93.5009L311.43 94.9161L312.212 94.4769V92.9641L310.99 92.2809L308.938 93.5009Z" fill="#39B54A"/>
<path d="M74.338 93.7936L72.1875 95.0136L74.338 96.2824V93.7936Z" fill="#39B54A"/>
<path d="M220.768 37.1368L221.159 37.332L223.7 35.868L225.264 36.7952V33.3304L224.189 32.696L220.768 34.648V37.1368Z" fill="#39B54A"/>
<path d="M70.1356 101.894L68.034 100.577L67.3498 100.87L67.2031 103.798L70.0867 102.334L70.1356 101.894Z" fill="#39B54A"/>
<path d="M93.6444 135.81L92.618 134.883L92.8624 133.614L89.7832 134.59L89.7344 134.834L91.5916 136.494L93.6444 135.81Z" fill="#39B54A"/>
<path d="M75.7562 145.034L75.4141 144.838V145.278L75.7562 145.034Z" fill="#39B54A"/>
<path d="M141.004 134.005L142.275 134.737L143.741 133.858L141.395 132.492L141.004 132.687V134.005Z" fill="#39B54A"/>
<path d="M7.77206 13.0785L5.18169 14.5425L5.13281 16.9337L7.72319 15.5185L7.77206 13.0785Z" fill="#ED1E79"/>
<path d="M86.5085 12.5904L87.4371 13.1272L93.0088 10.1016L90.0275 8.29602L85.8731 10.5896L85.8242 12.9808L86.5085 12.5904Z" fill="#ED1E79"/>
<path d="M210.063 21.3256L212.409 22.7408L213.387 22.204L210.552 20.496L204.98 23.5216L205.469 23.8144L210.063 21.3256Z" fill="#ED1E79"/>
<path d="M9.92036 53.436L10.067 46.848V46.7992L10.1159 45.1888L7.52548 46.604L7.42773 51.9232L9.92036 53.436Z" fill="#ED1E79"/>
<path d="M15.2973 66.6608L16.5192 65.9776L15.5905 65.4408L14.8574 65.8312V67.4416L15.2973 67.1976V66.6608Z" fill="#ED1E79"/>
<path d="M19.4531 78.4704L21.1149 77.5432L20.675 77.2992L19.4531 77.9336V78.4704Z" fill="#ED1E79"/>
<path d="M382.006 55.4856L381.908 59.8288L384.45 61.3416L384.352 65.0992L386.258 64.0256L386.356 58.1208L382.006 55.4856Z" fill="#ED1E79"/>
<path d="M282.693 88.8161L282.645 91.3537L283.133 91.5977L283.182 87.3033L282.742 87.0105V88.8161H282.693Z" fill="#ED1E79"/>
<path d="M291.247 29.7192L291.98 30.1584L293.74 31.232L293.837 27.3768L290.416 29.2312L291.247 29.7192Z" fill="#ED1E79"/>
<path d="M230.3 75.0543L229.566 74.6151V75.4447L230.3 75.0543Z" fill="#ED1E79"/>
<path d="M313.875 75.6887L316.417 77.1527L316.368 77.8847H316.417L316.465 76.0791L314.657 75.0055L313.924 75.3959L313.875 75.6887Z" fill="#ED1E79"/>
<path d="M221.355 62.9031L221.599 62.7567V61.9271L220.817 61.4391L219.84 61.9759L221.355 62.9031Z" fill="#ED1E79"/>
<path d="M165.93 33.2815L165.979 31.4759L166.614 31.1343L164.219 29.7191L159.625 32.2567L163.535 34.5991L165.93 33.2815Z" fill="#ED1E79"/>
<path d="M133.281 87.8401L134.307 87.2545L134.356 85.0585L131.961 86.4249L133.281 87.2057V87.8401Z" fill="#ED1E79"/>
<path d="M116.518 131.906L117.544 131.321L117.593 129.613L116.518 130.198V131.906Z" fill="#ED1E79"/>
<path d="M59.3832 82.9112V82.5208L55.0333 79.8856L54.8867 85.7904L57.4282 87.3032L57.4771 83.936L59.3832 82.9112Z" fill="#ED1E79"/>
<path d="M4.35003 111.362L4.39891 110.142L3.95903 110.386L3.91016 111.118L4.35003 111.362Z" fill="#ED1E79"/>
<path d="M81.8168 71.3457L82.9898 70.6625L79.0798 68.3201L77.418 69.2473L77.3691 70.5161L81.7679 73.1513L81.8168 71.3457Z" fill="#ED1E79"/>
<path d="M109.088 105.164L109.137 104.53L107.818 103.7L106.596 104.334L106.547 106.189L106.84 106.335L109.088 105.164Z" fill="#ED1E79"/>
<path d="M95.209 146.644L96.6752 147.522L97.4084 147.132V145.424L95.209 146.644Z" fill="#ED1E79"/>
<path d="M260.943 109.117L260.992 106.628L258.793 107.848L260.943 109.117Z" fill="#ED1E79"/>
<path d="M286.553 73.8833L288.801 72.8097L288.85 72.0777L286.455 70.4185L286.211 73.6393L286.553 73.8833Z" fill="#ED1E79"/>
<path d="M191.98 64.66L194.18 63.44L192.616 62.5128L192.029 62.8544L191.98 64.66Z" fill="#ED1E79"/>
<path d="M244.52 80.4713L245.888 80.0809L246.866 80.9593L247.599 77.8361L247.403 77.6409L245.008 78.3729L244.52 80.4713Z" fill="#ED1E79"/>
<path d="M135.139 161.723L136.263 161.381L136.996 162.113L137.631 159.576L137.485 159.429L135.53 160.015L135.139 161.723Z" fill="#ED1E79"/>
<path d="M202.098 138.104L202.489 137.909L202.098 137.665V138.104Z" fill="#ED1E79"/>
<path d="M190.857 116.681L189.586 117.364V119.121L191.981 117.803V117.364L190.857 116.681Z" fill="#ED1E79"/>
<path d="M367.54 13.7128L366.514 10.98L364.168 10.5896L365.194 13.3224L367.54 13.7128Z" fill="#29ABE2"/>
<path d="M21.6015 126.294L22.6768 124.977L21.406 121.61L19.5977 123.757L20.8195 126.929L21.8948 127.124L21.6015 126.294Z" fill="#29ABE2"/>
<path d="M368.909 4.87992L368.225 5.70952L370.473 11.6143L372.672 8.93032L371.01 4.48952L368.616 4.09912L368.909 4.87992Z" fill="#29ABE2"/>
<path d="M357.178 31.8176L355.418 33.916L355.809 34.9896L357.911 32.4032L355.711 26.4984L355.369 26.8888L357.178 31.8176Z" fill="#29ABE2"/>
<path d="M327.217 18.3L333.766 19.3736V19.4224L335.379 19.6664L334.304 16.9336L329.074 16.0552L327.217 18.3Z" fill="#29ABE2"/>
<path d="M42.3247 41.3823L39.7344 40.9431L40.663 43.3831L42.3247 41.3823Z" fill="#29ABE2"/>
<path d="M321.889 37.5271L322.329 38.7959L323.014 37.9663L322.72 37.2343L321.156 36.9415L321.303 37.4295L321.889 37.5271Z" fill="#29ABE2"/>
<path d="M300.826 52.704L301.51 54.5096L301.853 54.0704L301.364 52.8016L300.826 52.704Z" fill="#29ABE2"/>
<path d="M28.0053 60.3168L27.6143 59.292L26.5391 60.512L26.9301 61.5856L27.3211 61.1464L28.0053 60.3168Z" fill="#29ABE2"/>
<path d="M12.512 36.3071L12.1699 36.7463L14.2227 42.2607L14.6137 41.8703L12.512 36.3071Z" fill="#29ABE2"/>
<path d="M51.6108 112.094L49.2648 111.703L48.776 110.434L48.0918 111.264L50.1934 116.778L52.3928 114.094L51.6108 112.094Z" fill="#29ABE2"/>
<path d="M107.183 117.071L106.792 115.949L103.859 115.461L104.592 117.462L105.179 116.73L107.183 117.071Z" fill="#29ABE2"/>
<path d="M50.5358 166.262L50.1937 165.383L47.8477 164.993L48.4342 166.603L48.9229 166.018L50.5358 166.262Z" fill="#29ABE2"/>
<path d="M357.52 46.1648L359.329 46.4576L359.573 47.092L361.333 44.9936L359.475 40.0648L356.592 43.5784L357.52 46.1648Z" fill="#29ABE2"/>
<path d="M201.17 101.699L201.561 102.821L203.272 103.114L202.881 101.992L201.17 101.699Z" fill="#29ABE2"/>
<path d="M99.8993 19.9104L100.29 19.4712L99.1662 19.276L96.9668 21.96L98.0421 22.1552L99.8993 19.9104Z" fill="#29ABE2"/>
<path d="M290.072 21.7159L290.414 21.7647L293.689 17.8119L287.873 16.8359L285.967 19.1295L289.29 19.6663L290.072 21.7159Z" fill="#29ABE2"/>
<path d="M59.431 46.7992L60.0175 46.116L60.8484 45.0912L59.7242 44.9448L58.0625 46.9456L58.4535 47.9704L59.431 46.7992Z" fill="#29ABE2"/>
<path d="M36.5592 90.3289L35.9727 91.0121L36.8524 91.1585L36.5592 90.3289Z" fill="#29ABE2"/>
<path d="M44.7703 97.8928L43.744 95.16L42.8642 95.0135L41.8867 96.2335L42.3755 97.5024L44.7703 97.8928Z" fill="#29ABE2"/>
<path d="M172.479 56.3152L171.746 54.2656L168.423 53.7288L167.592 54.7536L167.885 55.5344L172.479 56.3152Z" fill="#29ABE2"/>
<path d="M227.514 171.63L226.927 169.97L224.239 169.531L223.555 170.361L223.799 170.995L227.514 171.63Z" fill="#29ABE2"/>
<path d="M148.287 81.5936L149.362 80.2272L149.264 79.8856L144.621 79.1536L145.647 81.8376L148.58 82.3256L148.287 81.5936Z" fill="#29ABE2"/>
<path d="M261.578 40.8457L262.8 41.0409L262.604 40.5529L261.92 40.4065L261.578 40.8457Z" fill="#29ABE2"/>
<path d="M295.939 26.4984L296.428 27.7672L299.312 24.2536L298.627 22.448L297.405 22.2528L294.18 26.2056L295.939 26.4984Z" fill="#29ABE2"/>
<path d="M252.587 93.4519L253.222 93.5495L254.2 92.3783L253.76 91.1095L251.951 90.7679L251.707 91.0607L252.587 93.4519Z" fill="#29ABE2"/>
<path d="M93.2546 170.507L93.7433 170.605L94.5742 169.629L94.1832 168.604L92.7169 168.36L92.5703 168.555L93.2546 170.507Z" fill="#29ABE2"/>
<path d="M181.667 86.7175L180.543 88.0351L180.836 88.8159L182.547 89.0599L181.667 86.7175Z" fill="#29ABE2"/>
<path d="M347.207 146.449L348.087 148.791L349.211 147.425L348.967 146.742L347.207 146.449Z" fill="#29ABE2"/>
<path d="M289.878 140.69L290.073 142.106L289.096 142.886L292.077 144.106L292.273 143.96L291.93 141.471L289.878 140.69Z" fill="#29ABE2"/>
<path d="M228.391 113.216L227.853 111.85L226.191 111.606L227.12 114.143L227.56 114.241L228.391 113.216Z" fill="#29ABE2"/>
<path d="M300.238 119.56L299.701 118.194L298.039 117.95L298.968 120.487L299.408 120.585L300.238 119.56Z" fill="#29ABE2"/>
<path d="M64.3687 134.834C58.7481 130.882 51.2214 130.882 45.6008 134.834C44.5255 133.305 43.4503 131.793 42.375 130.296C49.9506 124.977 60.0189 124.977 67.5456 130.296C66.4704 131.793 65.4114 133.305 64.3687 134.834Z" fill="#29ABE2"/>
<path d="M360.159 73.8344C355.271 70.1744 348.771 69.4424 343.101 71.7848C341.44 70.7112 339.436 69.8328 337.285 69.296C344.274 64.3672 353.365 63.8792 360.794 67.7344C360.843 69.8328 360.599 71.8824 360.159 73.8344Z" fill="#29ABE2"/>
<path d="M50.9763 34.1111C48.8258 30.6951 45.1601 28.4503 41.1035 28.1575C41.299 26.4983 41.4945 24.8228 41.69 23.1311C49.0213 23.9607 55.1306 29.2799 56.8413 36.5023C54.9351 35.1847 52.9313 34.4039 50.9763 34.1111Z" fill="#29ABE2"/>
<path d="M375.213 137.372C368.957 134.249 362.701 140.446 356.445 137.372C356.445 135.518 356.445 133.663 356.445 131.809C362.701 134.932 368.957 128.686 375.213 131.809C375.213 133.663 375.213 135.518 375.213 137.372Z" fill="#29ABE2"/>
<path d="M296.229 63.8793C292.564 64.1721 288.898 67.1977 285.184 65.1481C285.184 63.4564 285.184 61.7647 285.184 60.0729C289.973 62.9033 294.763 57.2425 299.553 60.0729C298.478 60.9513 297.353 62.3177 296.229 63.8793Z" fill="#ED1E79"/>
<path d="M261.433 14.4935C257.816 16.9335 254.199 21.6671 250.582 22.2527C250.485 20.1055 250.387 17.9583 250.289 15.8111C255.177 16.2991 260.064 9.36952 264.952 9.85752C263.73 10.8823 262.557 12.4927 261.433 14.4935Z" fill="#29ABE2"/>
<path d="M210.309 88.9624C210.309 84.9608 208.159 81.3008 204.688 79.2512C204.591 77.9336 204.297 76.5672 203.711 75.2496C209.038 76.9576 212.899 81.496 213.779 86.9128C212.704 87.7424 211.531 88.4256 210.309 88.9624Z" fill="#29ABE2"/>
<path d="M197.162 8.49119C192.372 8.10079 187.924 10.736 185.921 15.0304C184.357 14.3147 182.793 13.5989 181.229 12.8832C184.063 6.58799 190.613 2.73279 197.553 3.31839C197.422 5.04266 197.292 6.76692 197.162 8.49119Z" fill="#F9C215"/>
<path d="M130.006 30.1096C127.074 31.9152 125.363 36.0144 121.404 35.9656C120.688 34.5341 119.954 33.1189 119.205 31.72C124.435 32.0128 125.901 25.2296 131.082 25.4736C130.544 26.6936 130.251 28.304 130.006 30.1096Z" fill="#F9C215"/>
<path d="M24.8281 90.3775C19.7451 90.9143 14.9553 96.6727 9.9212 98.7223C8.84595 97.2583 7.72183 95.5503 6.54883 93.5007C12.1695 93.6959 17.4968 87.7911 23.0197 86.7175C23.6388 87.9538 24.2416 89.1738 24.8281 90.3775Z" fill="#F9C215"/>
<path d="M165 133.37L152.879 120.585L154.443 114.534L167.59 127.661L165 133.37Z" fill="#ED1E79"/>
<path d="M107.915 81.4472L102.93 76.0792L105.52 73.8832L111.678 81.1544L107.915 81.4472Z" fill="#4A5E9D"/>
<path d="M259.575 144.009L248.969 154.598L244.717 150.401L255.323 139.763L259.575 144.009Z" fill="#F9C215"/>
</g>
<defs>
<clipPath id="clip0_650_63853">
<rect width="391" height="244" fill="white"/>
</clipPath>
</defs>
</svg>
