<svg width="391" height="152" viewBox="0 0 391 152" fill="none" xmlns="http://www.w3.org/2000/svg">
<g clip-path="url(#clip0_1021_38184)">
<path d="M10.9911 24.7295L12.0664 22.8751L11.1866 21.3135L10.0625 23.2167L10.9911 24.7295Z" fill="#FF931E"/>
<path d="M374.923 13.8958L376.389 11.3582L375.216 9.30859L373.75 11.8462L374.923 13.8958Z" fill="#FF931E"/>
<path d="M183.672 66.1122L182.646 64.3066L181.57 66.1122H183.672Z" fill="#FF931E"/>
<path d="M359.083 30.7807L358.398 31.9519H359.474L359.914 31.2199L359.083 29.8535L358.838 30.2927L359.083 30.7807Z" fill="#FF931E"/>
<path d="M369.106 71.7246L366.711 75.8726H368.079L369.79 72.9446L369.106 71.7246Z" fill="#FF931E"/>
<path d="M209.282 45.8604L208.695 46.8852L209.526 48.398L210.162 47.3244L209.282 45.8604Z" fill="#FF931E"/>
<path d="M318.125 63.6723H319.836L320.031 63.3795L317.685 59.3291L316.219 61.8179L317.685 64.4043L318.125 63.6723Z" fill="#FF931E"/>
<path d="M333.18 36.7832L333.766 37.8568L334.059 37.4176L333.668 36.7832H333.18Z" fill="#FF931E"/>
<path d="M265.539 48.153L265.832 48.6898H267.347L268.081 47.5186L267.152 45.957H266.81L265.539 48.153Z" fill="#FF931E"/>
<path d="M249.414 33.3672H247.703L247.312 34.0992L248.143 35.5632L249.414 33.3672Z" fill="#FF931E"/>
<path d="M135.871 26.6816H134.942L134.062 28.2432L135.529 30.8296L136.897 28.4384L135.871 26.6816Z" fill="#FF931E"/>
<path d="M29.0813 19.5569V18.6785V16.5801L25.7578 18.5321L29.0813 20.4841V19.5569Z" fill="#39B54A"/>
<path d="M31.4297 75.4814V76.3598L32.1628 75.9206L31.4297 75.4814Z" fill="#39B54A"/>
<path d="M25.5088 65.2333L25.3132 65.1357L24.5312 65.5749V66.4533L25.5088 67.0389V65.2333Z" fill="#39B54A"/>
<path d="M323.891 6.42974L324.868 6.96654V5.35614L323.891 4.81934V5.35614V6.42974Z" fill="#39B54A"/>
<path d="M271.891 7.99106L272.966 8.57667L275.507 7.11267L273.65 6.03906V6.96627L271.891 7.99106Z" fill="#39B54A"/>
<path d="M162.557 16.7751L161.531 16.1895L160.016 17.0679L161.091 17.6535L162.557 16.7751Z" fill="#39B54A"/>
<path d="M332.984 23.9484V24.8267V26.1444L333.962 25.5587V22.9723L332.984 22.4355V23.9484Z" fill="#39B54A"/>
<path d="M297.89 77.4336V75.6768L296.375 76.5552L297.89 77.4336Z" fill="#39B54A"/>
<path d="M308.938 1.50125L311.43 2.91645L312.212 2.47725V0.964447L310.99 0.28125L308.938 1.50125Z" fill="#39B54A"/>
<path d="M74.338 1.79395L72.1875 3.01395L74.338 4.28275V1.79395Z" fill="#39B54A"/>
<path d="M70.1356 9.89475L68.034 8.57715L67.3498 8.86994L67.2031 11.7979L70.0867 10.3339L70.1356 9.89475Z" fill="#39B54A"/>
<path d="M93.6444 43.8103L92.618 42.8831L92.8624 41.6143L89.7832 42.5903L89.7344 42.8343L91.5916 44.4935L93.6444 43.8103Z" fill="#39B54A"/>
<path d="M75.7562 53.0331L75.4141 52.8379V53.2771L75.7562 53.0331Z" fill="#39B54A"/>
<path d="M141 42.005L142.271 42.737L143.737 41.8586L141.391 40.4922L141 40.6874V42.005Z" fill="#39B54A"/>
<path d="M116.516 39.9069L117.542 39.3213L117.591 37.6133L116.516 38.1989V39.9069Z" fill="#ED1E79"/>
<path d="M4.34612 19.3616L4.395 18.1416L3.95513 18.3856L3.90625 19.1176L4.34612 19.3616Z" fill="#ED1E79"/>
<path d="M109.088 13.1642L109.137 12.5298L107.818 11.7002L106.596 12.3346L106.547 14.189L106.84 14.3354L109.088 13.1642Z" fill="#ED1E79"/>
<path d="M95.2031 54.6438L96.6694 55.5222L97.4025 55.1318V53.4238L95.2031 54.6438Z" fill="#ED1E79"/>
<path d="M260.947 17.1167L260.996 14.6279L258.797 15.8479L260.947 17.1167Z" fill="#ED1E79"/>
<path d="M135.141 69.7233L136.265 69.3817L136.998 70.1137L137.633 67.5761L137.487 67.4297L135.532 68.0153L135.141 69.7233Z" fill="#ED1E79"/>
<path d="M202.094 46.1042L202.485 45.909L202.094 45.665V46.1042Z" fill="#ED1E79"/>
<path d="M190.857 24.6807L189.586 25.3639V27.1207L191.981 25.8031V25.3639L190.857 24.6807Z" fill="#ED1E79"/>
<path d="M21.5976 34.2942L22.6729 32.9766L21.4021 29.6094L19.5938 31.7566L20.8156 34.9286L21.8909 35.1238L21.5976 34.2942Z" fill="#29ABE2"/>
<path d="M51.6127 20.0938L49.2668 19.7034L48.778 18.4346L48.0938 19.2642L50.1954 24.7786L52.3947 22.0946L51.6127 20.0938Z" fill="#29ABE2"/>
<path d="M107.183 25.0713L106.792 23.9489L103.859 23.4609L104.592 25.4617L105.179 24.7297L107.183 25.0713Z" fill="#29ABE2"/>
<path d="M50.5319 74.261L50.1897 73.3826L47.8438 72.9922L48.4302 74.6026L48.919 74.017L50.5319 74.261Z" fill="#29ABE2"/>
<path d="M201.172 9.69922L201.563 10.8216L203.273 11.1144L202.882 9.99202L201.172 9.69922Z" fill="#29ABE2"/>
<path d="M44.7743 5.89288L43.7479 3.16007L42.8681 3.01367L41.8906 4.23367L42.3794 5.50247L44.7743 5.89288Z" fill="#29ABE2"/>
<path d="M227.514 79.6297L226.927 77.9704L224.239 77.5312L223.555 78.3609L223.799 78.9952L227.514 79.6297Z" fill="#29ABE2"/>
<path d="M252.583 1.45158L253.218 1.54918L254.196 0.37798L253.756 -0.890823L251.948 -1.23242L251.703 -0.939619L252.583 1.45158Z" fill="#29ABE2"/>
<path d="M93.2546 78.5066L93.7433 78.6042L94.5742 77.6282L94.1832 76.6034L92.7169 76.3594L92.5703 76.5546L93.2546 78.5066Z" fill="#29ABE2"/>
<path d="M347.211 54.4492L348.091 56.7916L349.215 55.4252L348.97 54.742L347.211 54.4492Z" fill="#29ABE2"/>
<path d="M289.876 48.6904L290.071 50.1056L289.094 50.8864L292.075 52.1064L292.271 51.96L291.928 49.4712L289.876 48.6904Z" fill="#29ABE2"/>
<path d="M228.387 21.2159L227.849 19.8495L226.188 19.6055L227.116 22.1431L227.556 22.2407L228.387 21.2159Z" fill="#29ABE2"/>
<path d="M300.238 27.5596L299.701 26.1932L298.039 25.9492L298.968 28.4868L299.408 28.5844L300.238 27.5596Z" fill="#29ABE2"/>
<path d="M64.3687 42.8344C58.7481 38.8816 51.2214 38.8816 45.6008 42.8344C44.5255 41.3054 43.4503 39.7926 42.375 38.296C49.9506 32.9768 60.0189 32.9768 67.5456 38.296C66.4704 39.7926 65.4114 41.3054 64.3687 42.8344Z" fill="#29ABE2"/>
<path d="M375.213 45.372C368.957 42.2488 362.701 48.4464 356.445 45.372C356.445 43.5176 356.445 41.6632 356.445 39.8088C362.701 42.932 368.957 36.6856 375.213 39.8088C375.213 41.6632 375.213 43.5176 375.213 45.372Z" fill="#29ABE2"/>
<path d="M24.8261 -1.62223C19.7431 -1.08543 14.9534 4.67298 9.91925 6.72258C8.844 5.25858 7.71988 3.55058 6.54688 1.50098C12.1675 1.69618 17.4949 -4.20863 23.0177 -5.28223C23.6368 -4.04596 24.2396 -2.82596 24.8261 -1.62223Z" fill="#F9C215"/>
<path d="M164.996 41.37L152.875 28.5844L154.439 22.5332L167.586 35.6604L164.996 41.37Z" fill="#ED1E79"/>
<path d="M259.577 52.0093L248.971 62.5989L244.719 58.4021L255.325 47.7637L259.577 52.0093Z" fill="#F9C215"/>
</g>
<defs>
<clipPath id="clip0_1021_38184">
<rect width="391" height="244" fill="white" transform="translate(0 -92)"/>
</clipPath>
</defs>
</svg>
