<svg width="51" height="60" viewBox="0 0 51 60" fill="none" xmlns="http://www.w3.org/2000/svg">
<g clip-path="url(#clip0_1187_52893)">
<path d="M15.1565 19.6231C41.512 10.643 55.0701 48.1597 29.0215 57.9911C2.67938 66.9712 -10.8787 29.4546 15.1565 19.6231Z" fill="#FAC60E"/>
<path style="mix-blend-mode:overlay" d="M15.1565 19.6231C41.512 10.643 55.0701 48.1597 29.0215 57.9911C2.67938 66.9712 -10.8787 29.4546 15.1565 19.6231Z" fill="url(#paint0_radial_1187_52893)"/>
<path fill-rule="evenodd" clip-rule="evenodd" d="M15.156 19.6231C23.0826 16.7761 32.0235 18.2528 37.7483 24.6519C43.3663 30.7584 45.1945 40.2706 41.5782 47.8404C39.1895 52.9491 34.4655 56.6342 29.2345 58.5765C23.9634 60.3992 17.9717 60.5721 12.8607 58.1508C5.22761 54.6253 0.557021 46.1242 0.970702 37.8626C1.29097 29.2816 7.24264 22.4568 15.156 19.6231ZM15.156 19.6231C7.26933 22.4967 1.43776 29.295 1.37104 37.8759C1.18421 45.8714 5.89484 53.9468 13.3144 57.1663C18.1852 59.3615 23.8299 59.1353 28.8074 57.4058C33.7583 55.5699 38.2554 52.1508 40.604 47.3615C44.2604 40.1641 42.7258 30.9579 37.4547 24.918C31.9167 18.3459 23.0826 16.816 15.156 19.6231Z" fill="#FAC60E"/>
<path style="mix-blend-mode:soft-light" d="M29.0741 22.2573C30.3552 25.7961 26.2717 30.5057 19.9464 32.7806C13.6211 35.0556 7.46926 34.0179 6.18819 30.4791C4.90711 26.9403 8.99054 22.2307 15.3159 19.9691C21.6412 17.6941 27.8064 18.7185 29.0741 22.2573Z" fill="url(#paint1_radial_1187_52893)"/>
<path style="mix-blend-mode:overlay" d="M17.2376 43.1708C18.4786 46.5899 16.6904 50.3681 13.2609 51.6054C9.83134 52.8293 6.04148 51.0599 4.80044 47.6276C3.5594 44.2085 5.34757 40.4302 8.77712 39.193C12.22 37.969 15.9965 39.7384 17.2376 43.1708Z" fill="url(#paint2_radial_1187_52893)"/>
<path style="mix-blend-mode:overlay" d="M42.2088 34.0843C43.4499 37.5034 41.675 41.2817 38.2321 42.5189C34.8026 43.7562 31.0127 41.9735 29.7717 38.5544C28.544 35.122 30.3188 31.357 33.7484 30.1198C37.1913 28.8825 40.9811 30.6653 42.2088 34.0843Z" fill="url(#paint3_radial_1187_52893)"/>
<path d="M25.1923 21.1131C25.1923 21.1131 25.0722 21.4856 24.6319 22.0709C23.8846 23.082 22.2032 24.7317 18.6135 26.2882C18.4978 26.3414 18.3822 26.3902 18.2665 26.4346C16.9187 27.0066 15.7311 27.3791 14.7035 27.6186C11.3274 28.3902 9.71266 27.6984 9.61925 27.6452L9.19223 21.4723L8.93868 17.7206L8.37821 9.47226L8.01791 4.19067C7.97787 3.65852 8.47162 3.28601 8.95202 3.31262C9.15219 3.31262 9.35236 3.39244 9.5125 3.56539L13.3691 7.88912L16.9721 11.9069L22.39 17.9867L25.1923 21.1131Z" fill="#6EA5FB"/>
<path d="M12.4223 11.907C13.3164 13.9957 12.1688 16.4835 9.86015 17.4413C9.55767 17.5655 9.25075 17.6586 8.93938 17.7207L8.37891 9.47238C10.127 9.40586 11.7684 10.3238 12.4223 11.907Z" fill="#8040F9"/>
<path d="M22.3896 17.9868C21.9225 18.5456 21.2953 18.9979 20.5614 19.3172C18.2661 20.2751 15.6773 19.3571 14.7965 17.2551C13.9692 15.2861 14.93 12.9846 16.9717 11.907L22.3896 17.9868Z" fill="#8040F9"/>
<path d="M16.5348 22.4566C17.3221 24.3191 16.5081 26.4744 14.7066 27.6185C11.2237 28.4167 9.62234 27.6451 9.62234 27.6451L9.19531 21.4721C9.63568 21.0331 10.1561 20.6739 10.77 20.4078C13.0786 19.45 15.6541 20.3679 16.5348 22.4566Z" fill="#8040F9"/>
<path d="M24.6317 22.071C23.8844 23.0821 22.203 24.7317 18.6133 26.2883C18.64 24.6386 19.7209 23.0156 21.4824 22.2838C22.5366 21.8315 23.6442 21.7916 24.6317 22.071Z" fill="#8040F9"/>
<path d="M13.3702 7.88924C11.5687 7.99567 9.87395 7.09101 9.19338 5.46795C8.8998 4.76285 8.81973 4.01784 8.95318 3.31274C9.15335 3.31274 9.35351 3.39257 9.51365 3.56552L13.3702 7.88924Z" fill="#8040F9"/>
<path style="mix-blend-mode:overlay" d="M25.1923 21.1131C25.1923 21.1131 25.0722 21.4856 24.6319 22.0709C23.8846 23.082 22.2032 24.7317 18.6135 26.2882C18.4978 26.3414 18.3822 26.3902 18.2665 26.4346C16.9187 27.0066 15.7311 27.3791 14.7035 27.6186C11.3274 28.3902 9.71266 27.6984 9.61925 27.6452L9.19223 21.4723L8.93868 17.7206L8.37821 9.47226L8.01791 4.19067C7.97787 3.65852 8.47162 3.28601 8.95202 3.31262C9.15219 3.31262 9.35236 3.39244 9.5125 3.56539L13.3691 7.88912L16.9721 11.9069L22.39 17.9867L25.1923 21.1131Z" fill="url(#paint4_radial_1187_52893)"/>
<path d="M11.9158 3.23294C11.9158 5.01564 10.4746 6.45245 8.68641 6.45245C6.89824 6.45245 5.45703 5.01564 5.45703 3.23294C5.45703 1.45023 6.89824 0.0134277 8.68641 0.0134277C10.4746 0.0134277 11.9158 1.45023 11.9158 3.23294Z" fill="#FAC60E"/>
<path style="mix-blend-mode:overlay" d="M11.9158 3.23294C11.9158 5.01564 10.4746 6.45245 8.68641 6.45245C6.89824 6.45245 5.45703 5.01564 5.45703 3.23294C5.45703 1.45023 6.89824 0.0134277 8.68641 0.0134277C10.4746 0.0134277 11.9158 1.45023 11.9158 3.23294Z" fill="url(#paint5_radial_1187_52893)"/>
<path d="M47.6254 39.7516C43.0482 44.0088 28.7695 43.7161 28.7695 43.7161V42.093C28.8363 42.0531 37.0431 41.5343 41.7004 39.6052C46.3443 37.6762 45.4769 36.2527 45.4769 36.2527L43.5553 36.266C42.7546 35.3613 42.5278 34.5099 42.5811 33.7782C42.6612 32.5409 43.7021 31.5697 44.9431 31.45C45.6771 31.3835 46.6112 31.3303 47.4786 31.3702C49.2668 31.4633 52.2026 35.4944 47.6254 39.7516Z" fill="#8040F9"/>
<path style="mix-blend-mode:overlay" d="M47.6254 39.7516C43.0482 44.0088 28.7695 43.7161 28.7695 43.7161V42.093C28.8363 42.0531 37.0431 41.5343 41.7004 39.6052C46.3443 37.6762 45.4769 36.2527 45.4769 36.2527L43.5553 36.266C42.7546 35.3613 42.5278 34.5099 42.5811 33.7782C42.6612 32.5409 43.7021 31.5697 44.9431 31.45C45.6771 31.3835 46.6112 31.3303 47.4786 31.3702C49.2668 31.4633 52.2026 35.4944 47.6254 39.7516Z" fill="url(#paint6_radial_1187_52893)"/>
<path d="M31.73 41.561V44.0621H25.5781V42.4923L31.73 41.561Z" fill="#DF649F"/>
<path d="M42.8743 32.7672C42.4205 33.9379 42.8476 35.2683 43.715 36.1198L43.5548 36.0532C44.2888 36.0266 45.0227 36 45.7567 36C46.4951 35.9823 47.2335 35.969 47.9719 35.9601L47.6916 36.3991C47.318 35.5743 47.0244 34.7362 46.9577 33.7916C46.8109 32.5943 47.8651 31.49 48.9594 32.3947C50.2404 33.7251 50.1871 35.9867 49.2129 37.4501C49.7334 36.2661 49.76 34.9224 49.2796 33.7517C49.0661 33.2594 48.7325 32.6741 48.1987 32.6209C46.7976 32.847 48.0786 35.7739 48.4389 36.5721C46.7709 36.5721 45.1028 36.5322 43.4481 36.479C42.5673 35.4945 42.167 33.9512 42.8743 32.7672Z" fill="#542AB4"/>
<path d="M22.8309 46.7095C24.0452 47.6008 26.3005 47.6807 27.3947 46.3503C28.3155 45.1795 27.7417 43.7161 26.554 43.0243C27.5949 41.5875 26.8743 39.4722 24.8192 39.4456C23.4447 39.3924 22.177 40.2838 21.5898 41.3348C22.6174 40.6563 24.0452 40.031 25.0861 40.6829C25.7667 41.1485 25.4064 42.4257 24.6324 42.7317C24.2054 42.9179 24.0052 43.3702 24.2054 43.7294C24.3388 43.9955 24.6457 44.1419 24.9527 44.1286C25.0683 44.1197 25.184 44.133 25.2996 44.1685C26.0202 44.3414 26.6207 45.1529 26.2738 45.7649C25.6199 46.8159 24.0586 46.8824 22.8309 46.7095Z" fill="#2D1F1F"/>
<path style="mix-blend-mode:overlay" d="M22.8309 46.7095C24.0452 47.6008 26.3005 47.6807 27.3947 46.3503C28.3155 45.1795 27.7417 43.7161 26.554 43.0243C27.5949 41.5875 26.8743 39.4722 24.8192 39.4456C23.4447 39.3924 22.177 40.2838 21.5898 41.3348C22.6174 40.6563 24.0452 40.031 25.0861 40.6829C25.7667 41.1485 25.4064 42.4257 24.6324 42.7317C24.2054 42.9179 24.0052 43.3702 24.2054 43.7294C24.3388 43.9955 24.6457 44.1419 24.9527 44.1286C25.0683 44.1197 25.184 44.133 25.2996 44.1685C26.0202 44.3414 26.6207 45.1529 26.2738 45.7649C25.6199 46.8159 24.0586 46.8824 22.8309 46.7095Z" fill="url(#paint7_radial_1187_52893)"/>
<path d="M17.9461 37.3968C18.2397 37.8757 17.6659 38.4212 17.1854 38.1152C15.4106 36.9977 13.5157 36.3458 11.5674 37.3835C9.89932 38.2216 9.19206 39.7649 8.73835 41.521C8.59156 42.0797 7.80423 42.0531 7.68413 41.4944C7.31048 39.7516 7.67079 37.8491 8.85845 36.4389C11.3405 33.6052 15.6909 33.9245 17.7326 37.0642C17.8126 37.1706 17.8838 37.2815 17.9461 37.3968Z" fill="#2D1F1F"/>
<path style="mix-blend-mode:overlay" d="M17.9461 37.3968C18.2397 37.8757 17.6659 38.4212 17.1854 38.1152C15.4106 36.9977 13.5157 36.3458 11.5674 37.3835C9.89932 38.2216 9.19206 39.7649 8.73835 41.521C8.59156 42.0797 7.80423 42.0531 7.68413 41.4944C7.31048 39.7516 7.67079 37.8491 8.85845 36.4389C11.3405 33.6052 15.6909 33.9245 17.7326 37.0642C17.8126 37.1706 17.8838 37.2815 17.9461 37.3968Z" fill="url(#paint8_radial_1187_52893)"/>
<path d="M25.0598 34.5498C25.1933 35.1086 25.9806 35.0953 26.114 34.5498C26.6211 32.5277 27.5552 30.745 29.677 30.1463C31.4652 29.6141 33.0532 30.2527 34.5878 31.1973C35.0816 31.5033 35.642 30.9445 35.3351 30.4656C34.401 28.9357 32.8263 27.8048 30.9848 27.6053C27.2216 27.2594 24.2992 30.4922 24.9931 34.164C25.0109 34.2971 25.0331 34.4257 25.0598 34.5498Z" fill="#2D1F1F"/>
<path style="mix-blend-mode:overlay" d="M25.0598 34.5498C25.1933 35.1086 25.9806 35.0953 26.114 34.5498C26.6211 32.5277 27.5552 30.745 29.677 30.1463C31.4652 29.6141 33.0532 30.2527 34.5878 31.1973C35.0816 31.5033 35.642 30.9445 35.3351 30.4656C34.401 28.9357 32.8263 27.8048 30.9848 27.6053C27.2216 27.2594 24.2992 30.4922 24.9931 34.164C25.0109 34.2971 25.0331 34.4257 25.0598 34.5498Z" fill="url(#paint9_radial_1187_52893)"/>
</g>
<defs>
<radialGradient id="paint0_radial_1187_52893" cx="0" cy="0" r="1" gradientUnits="userSpaceOnUse" gradientTransform="translate(-4104.08 1573.56) rotate(70.1341) scale(10048.2 9920.98)">
<stop stop-color="white" stop-opacity="0"/>
<stop offset="1"/>
</radialGradient>
<radialGradient id="paint1_radial_1187_52893" cx="0" cy="0" r="1" gradientUnits="userSpaceOnUse" gradientTransform="translate(996.051 1434.25) rotate(-19.5625) scale(2058.27 1343.01)">
<stop stop-color="white"/>
<stop offset="1" stop-color="white" stop-opacity="0"/>
</radialGradient>
<radialGradient id="paint2_radial_1187_52893" cx="0" cy="0" r="1" gradientUnits="userSpaceOnUse" gradientTransform="translate(829.05 1795.04) rotate(-19.7543) scale(654.986 653.565)">
<stop stop-color="#C82809"/>
<stop offset="1" stop-color="#C82809" stop-opacity="0"/>
</radialGradient>
<radialGradient id="paint3_radial_1187_52893" cx="0" cy="0" r="1" gradientUnits="userSpaceOnUse" gradientTransform="translate(1865.12 944.795) rotate(-19.7543) scale(654.796 653.443)">
<stop stop-color="#C82809"/>
<stop offset="1" stop-color="#C82809" stop-opacity="0"/>
</radialGradient>
<radialGradient id="paint4_radial_1187_52893" cx="0" cy="0" r="1" gradientUnits="userSpaceOnUse" gradientTransform="translate(159.707 1529.61) rotate(59.3325) scale(3350.14 4833.46)">
<stop stop-color="white" stop-opacity="0"/>
<stop offset="1"/>
</radialGradient>
<radialGradient id="paint5_radial_1187_52893" cx="0" cy="0" r="1" gradientUnits="userSpaceOnUse" gradientTransform="translate(119.487 3.55432) scale(156.347 155.869)">
<stop stop-color="white" stop-opacity="0"/>
<stop offset="1"/>
</radialGradient>
<radialGradient id="paint6_radial_1187_52893" cx="0" cy="0" r="1" gradientUnits="userSpaceOnUse" gradientTransform="translate(-6618.89 -2071.62) rotate(149.216) scale(3540.76 2058.89)">
<stop stop-color="white" stop-opacity="0"/>
<stop offset="1"/>
</radialGradient>
<radialGradient id="paint7_radial_1187_52893" cx="0" cy="0" r="1" gradientUnits="userSpaceOnUse" gradientTransform="translate(-754.212 -860.747) rotate(167.009) scale(167.579 212.149)">
<stop stop-color="white" stop-opacity="0"/>
<stop offset="1"/>
</radialGradient>
<radialGradient id="paint8_radial_1187_52893" cx="0" cy="0" r="1" gradientUnits="userSpaceOnUse" gradientTransform="translate(637.213 1007.53) rotate(-21.7594) scale(343.914 243.939)">
<stop stop-color="white" stop-opacity="0"/>
<stop offset="1"/>
</radialGradient>
<radialGradient id="paint9_radial_1187_52893" cx="0" cy="0" r="1" gradientUnits="userSpaceOnUse" gradientTransform="translate(-1039.67 -517.782) rotate(158.241) scale(345.519 242.451)">
<stop stop-color="white" stop-opacity="0"/>
<stop offset="1"/>
</radialGradient>
<clipPath id="clip0_1187_52893">
<rect width="49.2414" height="60" fill="white" transform="translate(0.878906)"/>
</clipPath>
</defs>
</svg>
