<svg width="14" height="14" viewBox="0 0 14 14" fill="none" xmlns="http://www.w3.org/2000/svg">
<g clip-path="url(#clip0_1345_69109)">
<path d="M6.19027 10.3812L6.7022 9.20856C7.15784 8.16509 7.97789 7.33442 9.00083 6.88036L10.41 6.25485C10.858 6.05599 10.858 5.40422 10.41 5.20536L9.04481 4.59937C7.99557 4.13363 7.16082 3.27221 6.71299 2.19312L6.19441 0.9435C6.00197 0.47977 5.36123 0.479771 5.16879 0.9435L4.65019 2.19311C4.20237 3.27221 3.36759 4.13363 2.31836 4.59937L0.953207 5.20536C0.505181 5.40422 0.505181 6.05599 0.953207 6.25485L2.36238 6.88036C3.3853 7.33442 4.20537 8.16509 4.66097 9.20856L5.17294 10.3812C5.36973 10.8319 5.99345 10.8319 6.19027 10.3812ZM11.316 13.2362L11.46 12.9062C11.7167 12.3178 12.1789 11.8494 12.7557 11.5931L13.1993 11.396C13.4392 11.2894 13.4392 10.9408 13.1993 10.8342L12.7806 10.6481C12.1889 10.3853 11.7183 9.89946 11.4661 9.2911L11.3182 8.93451C11.2152 8.68601 10.8716 8.68601 10.7685 8.93451L10.6207 9.2911C10.3685 9.89946 9.89788 10.3853 9.3062 10.6481L8.88743 10.8342C8.64756 10.9408 8.64756 11.2894 8.88743 11.396L9.33099 11.5931C9.90785 11.8494 10.3701 12.3178 10.6268 12.9062L10.7708 13.2362C10.8761 13.4777 11.2106 13.4777 11.316 13.2362Z" fill="white"/>
</g>
<defs>
<clipPath id="clip0_1345_69109">
<rect width="14" height="14" fill="white"/>
</clipPath>
</defs>
</svg>
