<svg width="395" height="302" viewBox="0 0 395 302" fill="none" xmlns="http://www.w3.org/2000/svg">
<g opacity="0.1" clip-path="url(#clip0_1936_39834)">
<path d="M1013 472.83L242.17 715L0 -55.8303L770.83 -298L1013 472.83Z" fill="white"/>
<path d="M169.345 51.8812C168.861 50.3395 168.376 48.7978 169.434 46.7718C168.949 45.2302 170.007 43.2042 168.465 43.6885C168.465 43.6885 167.408 45.7145 165.866 46.1989C164.809 48.2249 163.267 48.7092 163.267 48.7092C161.241 47.6519 162.298 45.6259 161.814 44.0842C163.356 43.5999 162.871 42.0582 162.387 40.5166C162.387 40.5166 161.33 42.5426 159.788 43.0269C158.731 45.0529 157.673 47.0789 157.189 45.5372C155.647 46.0216 156.705 43.9956 156.22 42.4539C155.736 40.9123 156.793 38.8863 156.793 38.8863L156.309 37.3446C158.335 38.4019 157.278 40.4279 157.762 41.9696C156.22 42.4539 157.189 45.5372 157.189 45.5372C157.189 45.5372 158.246 43.5112 159.788 43.0269C160.845 41.0009 161.903 38.9749 162.387 40.5166C163.929 40.0322 162.871 42.0582 163.84 45.1415C162.298 45.6259 162.783 47.1675 163.267 48.7092C163.267 48.7092 164.324 46.6832 165.866 46.1989C166.923 44.1729 167.981 42.1469 170.007 43.2042C170.007 43.2042 170.491 44.7458 169.434 46.7718C169.918 48.3135 168.861 50.3395 168.861 50.3395L169.345 51.8812Z" fill="#06273F"/>
<path fill-rule="evenodd" clip-rule="evenodd" d="M68.1663 80.2796L52.7497 85.123L48.3906 71.248L63.8072 66.4047L68.1663 80.2796ZM53.807 83.097L66.1403 79.2223L62.7499 68.4307L50.4166 72.3054L53.807 83.097Z" fill="#06273F"/>
<path fill-rule="evenodd" clip-rule="evenodd" d="M117.42 69.887L103.238 62.4857L110.639 48.3037L126.363 55.2206L117.42 69.887ZM104.78 62.0014L116.936 68.3453L121.738 56.6736L111.608 51.387L104.78 62.0014Z" fill="#06273F"/>
<path d="M84.5232 51.4279C82.4676 52.0736 80.7645 52.0441 79.4139 51.3392C75.8462 50.7662 74.8775 47.6829 76.9922 43.6309C76.4192 47.1986 77.3879 50.2819 79.4139 51.3392C82.9815 51.9122 86.0649 50.9435 87.1222 48.9175L88.6638 48.4332C87.959 49.7838 86.5787 50.7821 84.5232 51.4279Z" fill="#06273F"/>
<path d="M195.81 28.3219L194.268 28.8062C194.65 26.4278 194.166 24.8861 192.815 24.1812C191.464 23.4763 190.275 23.2853 189.247 23.6082C186.869 23.2262 185.327 23.7106 184.622 25.0613C183.917 26.4119 183.726 27.6011 184.049 28.6289L182.508 29.1133C182.185 28.0855 182.89 26.7348 184.622 25.0613C185.327 23.7106 186.707 22.7124 188.763 22.0666C190.819 21.4208 192.169 22.1257 192.815 24.1812C194.166 24.8861 195.164 26.2663 195.81 28.3219Z" fill="#06273F"/>
<path fill-rule="evenodd" clip-rule="evenodd" d="M44.3015 42.0445C36.5932 44.4662 30.0308 39.7526 28.0935 33.586C26.1561 27.4193 28.8437 19.7997 36.552 17.378C42.7187 15.4406 49.281 20.1542 51.2184 26.3209C53.1557 32.4875 50.4681 40.1072 44.3015 42.0445ZM37.0364 18.9196C30.8697 20.857 27.6978 26.935 29.6351 33.1016C31.5725 39.2683 37.6505 42.4402 43.8171 40.5029C48.4421 39.0499 51.6141 32.9719 49.6767 26.8052C47.7394 20.6386 41.6614 17.4666 37.0364 18.9196Z" fill="#06273F"/>
<path fill-rule="evenodd" clip-rule="evenodd" d="M116.752 19.283C113.669 20.2517 110.101 19.6787 109.133 16.5954C108.164 13.512 110.279 9.46003 113.362 8.49135C116.445 7.52267 118.956 10.1217 119.924 13.205C120.893 16.2883 119.836 18.3143 116.752 19.283ZM113.846 10.033C110.763 11.0017 109.706 13.0277 110.674 16.111C111.643 19.1943 113.669 20.2517 116.752 19.283C119.836 18.3143 120.893 16.2883 119.924 13.205C118.956 10.1217 116.93 9.06433 113.846 10.033Z" fill="#06273F"/>
<path fill-rule="evenodd" clip-rule="evenodd" d="M181.014 -2.60212L156.347 5.14731L162.384 -18.769L181.014 -2.60212ZM158.462 1.09531L176.962 -4.71676L162.868 -17.2273L158.462 1.09531Z" fill="#06273F"/>
<path fill-rule="evenodd" clip-rule="evenodd" d="M50.6052 2.79773L47.2148 -7.9939L59.9438 -5.21763L50.6052 2.79773ZM47.2148 -7.9939L50.1209 1.25607L56.3762 -5.79061L47.2148 -7.9939Z" fill="#06273F"/>
<path d="M214.836 51.1381C213.808 51.461 213.133 51.1085 212.81 50.0807C212.487 49.053 211.811 48.7005 210.784 49.0234C210.784 49.0234 210.431 49.6988 209.726 51.0494C210.049 52.0772 209.697 52.7525 208.669 53.0754C208.669 53.0754 207.994 52.723 206.643 52.0181C206.32 50.9903 205.645 50.6379 204.617 50.9608C204.617 50.9608 204.778 51.4747 205.101 52.5024C204.396 53.8531 204.044 54.5284 204.044 54.5284C203.016 54.8513 201.827 54.6603 200.476 53.9555C200.153 52.9277 199.992 52.4138 199.992 52.4138C198.964 52.7367 198.612 53.412 198.935 54.4398C198.23 55.7905 197.877 56.4658 197.877 56.4658C196.85 56.7887 196.174 56.4362 195.851 55.4085C194.501 54.7036 193.825 54.3512 193.825 54.3512C192.798 54.6741 192.445 55.3494 192.768 56.3772C193.091 57.4049 192.739 58.0803 191.711 58.4032C190.683 58.7261 190.008 58.3736 189.685 57.3458C189.362 56.3181 188.687 55.9656 187.659 56.2885C186.631 56.6114 186.279 57.2867 186.601 58.3145C186.924 59.3423 186.572 60.0176 185.544 60.3405C184.516 60.6634 183.841 60.311 183.518 59.2832C183.195 58.2554 182.52 57.903 181.492 58.2259C181.492 58.2259 181.14 58.9012 180.435 60.2519C180.758 61.2796 180.405 61.955 179.377 62.2779C179.377 62.2779 178.702 61.9254 177.351 61.2205C177.029 60.1928 176.353 59.8403 175.325 60.1632C175.325 60.1632 175.487 60.6771 175.81 61.7049C175.105 63.0556 174.752 63.7309 174.752 63.7309C173.725 64.0538 172.535 63.8628 171.185 63.1579C170.862 62.1301 170.7 61.6163 170.7 61.6163C169.673 61.9391 169.32 62.6145 169.643 63.6422C169.966 64.67 169.614 65.3454 168.586 65.6683C167.558 65.9911 166.883 65.6387 166.56 64.6109C165.209 63.906 164.534 63.5536 164.534 63.5536C163.506 63.8765 163.154 64.5518 163.477 65.5796C163.799 66.6074 163.447 67.2827 162.419 67.6056C161.391 67.9285 160.716 67.5761 160.393 66.5483C160.393 66.5483 160.907 66.3868 161.935 66.0639C162.963 65.741 163.477 65.5796 163.477 65.5796C163.154 64.5518 163.506 63.8765 164.534 63.5536C165.562 63.2307 166.237 63.5831 166.56 64.6109C166.56 64.6109 167.074 64.4495 168.101 64.1266C168.101 64.1266 168.615 63.9651 169.643 63.6422C169.32 62.6145 169.673 61.9391 170.7 61.6163C170.7 61.6163 171.376 61.9687 172.726 62.6736C172.726 62.6736 173.24 62.5121 174.268 62.1892C174.973 60.8386 175.325 60.1632 175.325 60.1632C176.353 59.8403 177.542 60.0313 178.893 60.7362C179.921 60.4133 180.435 60.2519 180.435 60.2519C180.112 59.2241 180.464 58.5488 181.492 58.2259C182.52 57.903 183.195 58.2554 183.518 59.2832C184.546 58.9603 185.06 58.7988 185.06 58.7988C186.088 58.476 186.601 58.3145 186.601 58.3145C186.279 57.2867 186.631 56.6114 187.659 56.2885C188.687 55.9656 189.362 56.3181 189.685 57.3458C189.685 57.3458 190.199 57.1844 191.226 56.8615C191.226 56.8615 191.74 56.7 192.768 56.3772C192.445 55.3494 192.798 54.6741 193.825 54.3512C194.853 54.0283 195.528 54.3807 195.851 55.4085C195.851 55.4085 196.365 55.247 197.393 54.9241C197.393 54.9241 197.907 54.7627 198.935 54.4398C198.612 53.412 198.964 52.7367 199.992 52.4138C199.992 52.4138 200.667 52.7662 202.018 53.4711C202.018 53.4711 202.532 53.3097 203.56 52.9868C204.265 51.6361 204.617 50.9608 204.617 50.9608C205.645 50.6379 206.32 50.9903 206.643 52.0181C207.671 51.6952 208.185 51.5338 208.185 51.5338C209.212 51.2109 209.726 51.0494 209.726 51.0494C209.403 50.0216 209.756 49.3463 210.784 49.0234C211.811 48.7005 212.487 49.053 212.81 50.0807C213.837 49.7578 214.351 49.5964 214.351 49.5964C215.379 49.2735 215.893 49.1121 215.893 49.1121C215.57 48.0843 215.923 47.409 216.95 47.0861C216.95 47.0861 216.598 47.7614 215.893 49.1121C216.216 50.1398 215.863 50.8152 214.836 51.1381Z" fill="#06273F"/>
<path d="M71.1621 25.1362C71.1621 25.1362 70.6483 25.2977 69.6205 25.6206C69.2976 24.5928 69.2976 24.5928 69.6205 25.6206L69.1361 24.0789C69.1361 24.0789 69.65 23.9175 70.6778 23.5946C71.7056 23.2717 72.2195 23.1102 72.2195 23.1102C70.8688 22.4054 70.7074 21.8915 71.7351 21.5686C71.4122 20.5408 71.9261 20.3794 73.2768 21.0842C73.2768 21.0842 73.7907 20.9228 74.8185 20.5999C74.4956 19.5721 74.3341 19.0582 74.3341 19.0582C74.0112 18.0305 73.8498 17.5166 73.8498 17.5166C74.8775 17.1937 75.3914 17.0322 75.3914 17.0322C75.3914 17.0322 75.9053 16.8708 76.9331 16.5479C76.9331 16.5479 76.7716 16.034 76.4488 15.0062C76.4488 15.0062 76.2873 14.4924 75.9644 13.4646C76.9922 13.1417 77.5061 12.9802 77.5061 12.9802C78.8567 13.6851 79.3706 13.5237 79.0477 12.4959C78.7248 11.4681 79.0773 10.7928 80.1051 10.4699C80.1051 10.4699 80.6189 10.3085 81.6467 9.98557C82.3516 8.6349 82.704 7.95957 82.704 7.95957C82.704 7.95957 82.5426 7.44567 82.2197 6.4179C83.2475 6.09501 83.7614 5.93356 83.7614 5.93356C83.7614 5.93356 84.2753 5.77212 85.303 5.44922C85.303 5.44922 85.1416 4.93534 84.8187 3.90756C84.8187 3.90756 84.6572 3.39368 84.3343 2.3659C85.3621 2.04301 85.876 1.88156 85.876 1.88156C87.2267 2.58645 87.7406 2.425 87.4177 1.39723C87.0948 0.369453 87.4472 -0.305879 88.475 -0.628772C88.1521 -1.65655 88.666 -1.81799 90.0167 -1.11311C90.7215 -2.46378 91.074 -3.13911 91.074 -3.13911C90.7511 -4.16688 90.5896 -4.68078 90.5896 -4.68078C91.6174 -5.00367 92.1313 -5.16512 92.1313 -5.16512C92.1313 -5.16512 92.6452 -5.32656 93.673 -5.64945C93.673 -5.64945 93.5115 -6.16334 93.1886 -7.19111C93.1886 -7.19111 93.0272 -7.705 92.7043 -8.73277C93.732 -9.05567 94.2459 -9.21711 94.2459 -9.21711C95.2737 -9.54 95.7876 -9.70145 95.7876 -9.70145C95.4647 -10.7292 95.8171 -11.4046 96.8449 -11.7275C96.8449 -11.7275 97.0064 -11.2136 97.3293 -10.1858C97.3293 -10.1858 96.8154 -10.0243 95.7876 -9.70145C96.1105 -8.67368 95.5966 -8.51223 94.2459 -9.21711C94.2459 -9.21711 93.8935 -8.54178 93.1886 -7.19111C93.5115 -6.16334 93.673 -5.64945 93.673 -5.64945C92.6452 -5.32656 92.1313 -5.16512 92.1313 -5.16512C91.1035 -4.84222 90.5896 -4.68078 90.5896 -4.68078C90.9125 -3.653 91.074 -3.13911 91.074 -3.13911C91.074 -3.13911 91.2354 -2.62523 91.5583 -1.59745C90.5305 -1.27456 90.0167 -1.11311 90.0167 -1.11311C88.9889 -0.79022 88.475 -0.628772 88.475 -0.628772C87.4472 -0.305879 87.6087 0.208007 88.9593 0.912887C88.9593 0.912887 88.6069 1.58822 87.902 2.93888C87.902 2.93888 87.3881 3.10033 86.3603 3.42322C86.0375 2.39545 85.5236 2.5569 84.8187 3.90756C85.1416 4.93534 85.303 5.44922 85.303 5.44922C84.2753 5.77212 83.7614 5.93356 83.7614 5.93356C82.7336 6.25646 82.2197 6.4179 82.2197 6.4179C82.5426 7.44567 82.704 7.95957 82.704 7.95957C82.704 7.95957 82.8655 8.47345 83.1884 9.50123C82.1606 9.82412 81.6467 9.98557 81.6467 9.98557C80.6189 10.3085 80.1051 10.4699 80.1051 10.4699C80.1051 10.4699 80.2665 10.9838 80.5894 12.0116C80.5894 12.0116 80.237 12.6869 79.5321 14.0376C79.5321 14.0376 79.0182 14.199 77.9904 14.5219C77.6675 13.4941 77.6675 13.4941 77.9904 14.5219C76.9626 14.8448 76.4488 15.0062 76.4488 15.0062C76.7716 16.034 76.9331 16.5479 76.9331 16.5479C75.9053 16.8708 75.3914 17.0322 75.3914 17.0322C75.3914 17.0322 74.8775 17.1937 73.8498 17.5166C74.1727 18.5444 74.3341 19.0582 74.3341 19.0582C74.3341 19.0582 74.4956 19.5721 74.8185 20.5999C73.7907 20.9228 73.2768 21.0842 73.2768 21.0842C72.249 21.4071 71.7351 21.5686 71.7351 21.5686C71.7351 21.5686 71.8966 22.0825 72.2195 23.1102C72.2195 23.1102 71.7056 23.2717 70.6778 23.5946C71.0007 24.6224 71.1621 25.1362 71.1621 25.1362Z" fill="#06273F"/>
<path fill-rule="evenodd" clip-rule="evenodd" d="M260.877 19.7371L245.461 24.5805L241.102 10.7056L256.518 5.86217L260.877 19.7371ZM246.518 22.5545L258.851 18.6798L255.461 7.88818L243.128 11.7629L246.518 22.5545Z" fill="#06273F"/>
<path fill-rule="evenodd" clip-rule="evenodd" d="M310.127 9.34449L295.945 1.94323L303.346 -12.2388L319.07 -5.32186L310.127 9.34449ZM297.487 1.45889L309.643 7.80282L314.445 -3.86884L304.315 -9.15545L297.487 1.45889Z" fill="#06273F"/>
<path d="M407.547 -9.40466C406.519 -9.08176 405.843 -9.43421 405.521 -10.462C405.198 -11.4898 404.522 -11.8422 403.495 -11.5193C403.495 -11.5193 403.142 -10.844 402.437 -9.4933C402.76 -8.46552 402.408 -7.79018 401.38 -7.46729C401.38 -7.46729 400.705 -7.81974 399.354 -8.52462C399.031 -9.5524 398.356 -9.90483 397.328 -9.58194C397.328 -9.58194 397.489 -9.06806 397.812 -8.04028C397.107 -6.68962 396.755 -6.01428 396.755 -6.01428C395.727 -5.69138 394.538 -5.88238 393.187 -6.58726C392.864 -7.61503 392.703 -8.12891 392.703 -8.12891C391.675 -7.80602 391.323 -7.1307 391.646 -6.10293C390.941 -4.75226 390.588 -4.07692 390.588 -4.07692C389.561 -3.75403 388.885 -4.10647 388.562 -5.13425C387.212 -5.83913 386.536 -6.19156 386.536 -6.19156C385.509 -5.86866 385.156 -5.19334 385.479 -4.16556C385.802 -3.13779 385.449 -2.46246 384.422 -2.13957C383.394 -1.81667 382.719 -2.16912 382.396 -3.19689C382.073 -4.22467 381.397 -4.5771 380.37 -4.2542C380.37 -4.2542 380.017 -3.57888 379.312 -2.22821C379.635 -1.20044 379.283 -0.525094 378.255 -0.202201C377.227 0.120692 376.552 -0.231762 376.229 -1.25954C375.906 -2.28731 375.231 -2.63974 374.203 -2.31685C374.203 -2.31685 373.851 -1.64152 373.146 -0.290854C373.469 0.73692 373.116 1.41226 372.088 1.73515C372.088 1.73515 371.413 1.38271 370.062 0.677829C369.739 -0.349945 369.064 -0.702385 368.036 -0.379492C368.036 -0.379492 368.198 0.134386 368.521 1.16216C367.816 2.51283 367.463 3.18817 367.463 3.18817C366.436 3.51106 365.246 3.32006 363.896 2.61518C363.573 1.58741 363.411 1.07353 363.411 1.07353C362.384 1.39642 362.031 2.07175 362.354 3.09952C362.677 4.1273 362.325 4.80263 361.297 5.12552C360.269 5.44842 359.594 5.09597 359.271 4.0682C357.92 3.36332 357.245 3.01089 357.245 3.01089C356.217 3.33378 355.865 4.00911 356.187 5.03688C356.51 6.06465 356.158 6.74 355.13 7.06289C354.102 7.38578 353.427 7.03333 353.104 6.00555C353.104 6.00555 353.618 5.84411 354.646 5.52122C355.674 5.19833 356.187 5.03688 356.187 5.03688C355.865 4.00911 356.217 3.33378 357.245 3.01089C358.273 2.68799 358.948 3.04042 359.271 4.0682C359.271 4.0682 359.785 3.90675 360.812 3.58386C360.812 3.58386 361.326 3.42242 362.354 3.09952C362.031 2.07175 362.384 1.39642 363.411 1.07353C363.411 1.07353 364.087 1.42596 365.437 2.13084C365.437 2.13084 365.951 1.96939 366.979 1.6465C367.684 0.295835 368.036 -0.379492 368.036 -0.379492C369.064 -0.702385 370.253 -0.511394 371.604 0.193487C372.632 -0.129405 373.146 -0.290854 373.146 -0.290854C372.823 -1.31863 373.175 -1.99395 374.203 -2.31685C375.231 -2.63974 375.906 -2.28731 376.229 -1.25954C377.257 -1.58243 377.771 -1.74387 377.771 -1.74387C378.798 -2.06676 379.312 -2.22821 379.312 -2.22821C378.989 -3.25598 379.342 -3.93131 380.37 -4.2542C381.397 -4.5771 382.073 -4.22467 382.396 -3.19689C382.396 -3.19689 382.91 -3.35834 383.937 -3.68123C383.937 -3.68123 384.451 -3.84267 385.479 -4.16556C385.156 -5.19334 385.509 -5.86866 386.536 -6.19156C387.564 -6.51445 388.239 -6.16202 388.562 -5.13425C388.562 -5.13425 389.076 -5.29569 390.104 -5.61859C390.104 -5.61859 390.618 -5.78004 391.646 -6.10293C391.323 -7.1307 391.675 -7.80602 392.703 -8.12891C392.703 -8.12891 393.378 -7.77648 394.729 -7.0716C394.729 -7.0716 395.243 -7.23305 396.271 -7.55594C396.975 -8.90661 397.328 -9.58194 397.328 -9.58194C398.356 -9.90483 399.031 -9.5524 399.354 -8.52462C400.382 -8.84752 400.896 -9.00896 400.896 -9.00896C401.923 -9.33185 402.437 -9.4933 402.437 -9.4933C402.114 -10.5211 402.467 -11.1964 403.495 -11.5193C404.522 -11.8422 405.198 -11.4898 405.521 -10.462C406.548 -10.7849 407.062 -10.9463 407.062 -10.9463C408.09 -11.2692 408.604 -11.4307 408.604 -11.4307C408.281 -12.4584 408.633 -13.1338 409.661 -13.4566C409.661 -13.4566 409.309 -12.7813 408.604 -11.4307C408.927 -10.4029 408.574 -9.72755 407.547 -9.40466Z" fill="#06273F"/>
<path d="M300.803 222.308L311.376 202.048L309.835 202.533L299.261 222.793L300.803 222.308Z" fill="#06273F"/>
<path d="M314.678 217.949L316.22 217.465L295.96 206.892L294.418 207.376L314.678 217.949Z" fill="#06273F"/>
<path d="M347.851 43.2264C350.935 42.2577 349.966 39.1744 350.539 35.6067C350.055 34.065 350.143 28.9557 350.143 28.9557C351.685 28.4714 353.138 33.0964 355.164 34.1537C356.133 37.237 358.643 39.836 360.185 39.3516C361.726 38.8673 362.299 35.2996 362.872 31.732C362.388 30.1903 360.935 25.5653 362.476 25.081C364.018 24.5967 365.471 29.2216 367.497 30.279C368.466 33.3623 370.976 35.9613 372.518 35.4769C374.059 34.9926 374.632 31.4249 373.664 28.3416C374.721 26.3156 373.268 21.6906 374.81 21.2063C371.726 22.175 372.695 25.2583 372.122 28.8259C372.606 30.3676 373.575 33.4509 372.033 33.9353C370.492 34.4196 369.523 31.3363 367.497 30.279C366.528 27.1956 364.018 24.5967 362.476 25.081C360.935 25.5653 360.362 29.133 361.331 32.2163C360.273 34.2423 361.242 37.3256 359.7 37.81C359.7 37.81 357.19 35.211 356.706 33.6693C354.195 31.0704 353.227 27.987 350.143 28.9557C348.602 29.4401 348.029 33.0077 348.997 36.091C347.94 38.117 348.909 41.2003 347.367 41.6847L347.851 43.2264Z" fill="#06273F"/>
<path d="M370.766 137.658C372.308 137.173 372.881 133.606 375.48 131.095C376.537 129.069 377.11 125.502 377.11 125.502L378.168 123.476C376.626 123.96 374.027 126.47 373.454 130.038C372.397 132.064 371.824 135.632 370.282 136.116C369.798 134.574 368.829 131.491 368.345 129.949C368.918 126.382 367.949 123.298 365.923 122.241C362.84 123.21 361.782 125.236 361.209 128.803C360.152 130.829 359.579 134.397 358.037 134.881C356.011 133.824 356.584 130.256 356.1 128.715C355.131 125.631 355.704 122.064 353.678 121.006C350.595 121.975 349.538 124.001 348.965 127.569C347.907 129.595 347.334 133.162 345.793 133.647C345.793 133.647 345.631 133.133 345.308 132.105L345.793 133.647C347.819 134.704 348.392 131.136 348.965 127.569C350.022 125.543 352.621 123.032 352.621 123.032C354.163 122.548 353.59 126.116 354.558 129.199C355.527 132.282 354.954 135.85 358.037 134.881C360.063 135.939 360.636 132.371 363.235 129.861C362.267 126.777 364.866 124.267 364.866 124.267C366.407 123.783 365.834 127.35 366.803 130.434C367.772 133.517 368.74 136.6 370.766 137.658Z" fill="#06273F"/>
<path d="M369.926 215.838C371.467 215.354 369.441 214.296 368.957 212.755C366.931 211.697 366.447 210.156 366.447 210.156C366.447 210.156 367.988 209.671 370.014 210.729C372.04 211.786 373.582 211.302 375.124 210.817C374.639 209.276 374.155 207.734 372.129 206.677C371.645 205.135 369.619 204.078 369.619 204.078C371.16 203.593 373.186 204.651 373.186 204.651C375.212 205.708 376.754 205.224 378.296 204.739C377.811 203.198 377.327 201.656 375.301 200.599C375.301 200.599 373.275 199.541 374.332 197.515L372.791 198C372.791 198 373.275 199.541 375.785 202.14C375.785 202.14 377.811 203.198 376.27 203.682C376.754 205.224 374.728 204.166 374.728 204.166C372.702 203.109 370.676 202.052 369.619 204.078C369.619 204.078 370.103 205.619 372.129 206.677C372.613 208.218 373.098 209.76 373.098 209.76C373.098 209.76 371.556 210.244 369.53 209.187C367.988 209.671 365.962 208.614 365.962 208.614C364.905 210.64 366.931 211.697 367.415 213.239C369.441 214.296 369.926 215.838 369.926 215.838Z" fill="#06273F"/>
<path fill-rule="evenodd" clip-rule="evenodd" d="M303.012 35.2932L324.595 28.5125L331.376 50.0957L309.792 56.8765L303.012 35.2932ZM324.022 32.0801L305.522 37.8922L310.85 54.8505L329.35 49.0384L324.022 32.0801Z" fill="#06273F"/>
<path fill-rule="evenodd" clip-rule="evenodd" d="M252.933 64.5777L264.564 42.2917L285.308 54.4065L274.735 74.6665L252.933 64.5777ZM264.475 47.401L256.017 63.609L272.225 72.0676L282.225 55.3752L264.475 47.401Z" fill="#06273F"/>
<path d="M297.244 162.449L296.76 160.907L287.026 162.272L292.312 152.142L281.036 153.991L286.807 145.402L284.781 144.345L277.953 154.959L289.713 154.652L284.427 164.782L297.244 162.449Z" fill="#06273F"/>
<path d="M393.345 101.769L394.402 99.7432C389.382 94.5452 390.527 87.4099 395.725 82.3892C399.382 77.8529 408.059 78.5145 412.595 82.1708L414.137 81.6865C408.632 74.9468 400.439 75.8269 393.699 81.3319C388.502 86.3525 387.84 95.0295 393.345 101.769Z" fill="#06273F"/>
<path d="M296.118 110.294L295.633 108.752C293.96 107.019 293.153 104.45 293.212 101.044C293.594 98.6653 294.651 96.6393 296.384 94.9657C301.582 89.945 308.233 89.5493 311.712 95.2316L312.769 93.2057C307.748 88.0077 301.097 88.4034 295.899 93.4241C293.139 95.4205 291.729 98.1218 291.67 101.528C291.611 104.934 293.093 107.856 296.118 110.294Z" fill="#06273F"/>
<path d="M335.219 213.192L336.76 212.707C336.114 210.652 335.63 209.11 335.307 208.082C336.012 206.732 337.231 205.219 338.963 203.546C339.991 203.223 341.18 203.414 342.531 204.119C343.882 204.824 345.232 205.529 346.583 206.233C345.937 204.178 344.939 202.798 343.588 202.093C341.21 201.711 339.154 202.357 337.422 204.03C336.394 204.353 335.689 205.704 335.307 208.082C334.602 209.433 334.573 211.136 335.219 213.192Z" fill="#06273F"/>
<path fill-rule="evenodd" clip-rule="evenodd" d="M388.816 157.394C387.848 154.311 389.962 150.259 391.504 149.775C394.587 148.806 398.639 150.921 399.608 154.004C400.577 157.087 397.978 159.598 394.894 160.566C393.353 161.051 389.785 160.478 388.816 157.394ZM388.816 157.394C389.301 158.936 393.353 161.051 394.894 160.566C397.978 159.598 400.092 155.546 399.608 154.004C398.639 150.921 395.072 150.348 391.988 151.316C390.447 151.801 387.848 154.311 388.816 157.394Z" fill="#06273F"/>
<path fill-rule="evenodd" clip-rule="evenodd" d="M335.198 153.912L354.312 171.621L331.187 178.886L335.198 153.912ZM336.167 156.995L331.76 175.318L348.718 169.99L336.167 156.995Z" fill="#06273F"/>
<path fill-rule="evenodd" clip-rule="evenodd" d="M266.605 102.629L277.793 105.889L270.48 114.962L266.605 102.629ZM268.631 103.686L271.053 111.394L276.251 106.374L268.631 103.686Z" fill="#06273F"/>
<path fill-rule="evenodd" clip-rule="evenodd" d="M309.062 129.94L321.307 131.175L313.995 140.248L312.453 140.732L309.062 129.94ZM311.088 130.998L313.51 138.706L320.25 133.201L311.088 130.998Z" fill="#06273F"/>
<path fill-rule="evenodd" clip-rule="evenodd" d="M342.802 70.2209L354.385 80.1325L338.968 84.9759L342.802 70.2209ZM343.771 73.3042L342.052 84.0072L352.843 80.6168L343.771 73.3042Z" fill="#06273F"/>
<path d="M332.654 242.791C333.358 241.44 333.711 240.765 333.711 240.765C334.416 239.414 334.768 238.739 334.768 238.739C335.796 238.416 336.471 238.768 336.794 239.796C336.794 239.796 337.47 240.148 338.82 240.853C339.525 239.503 339.878 238.827 339.878 238.827C339.555 237.8 339.907 237.124 340.935 236.801C340.935 236.801 341.61 237.154 342.961 237.859C342.961 237.859 343.636 238.211 344.987 238.916C345.692 237.565 346.044 236.89 346.044 236.89C345.721 235.862 346.074 235.187 347.102 234.864C347.102 234.864 347.777 235.216 349.127 235.921C349.127 235.921 349.803 236.274 351.153 236.979C350.831 235.951 351.183 235.275 352.211 234.953C351.888 233.925 352.24 233.249 353.268 232.927C353.268 232.927 353.43 233.44 353.752 234.468C354.78 234.145 355.456 234.498 355.778 235.526C356.483 234.175 356.836 233.5 356.836 233.5C357.541 232.149 357.893 231.474 357.893 231.474C358.921 231.151 359.596 231.503 359.919 232.531C359.919 232.531 360.594 232.883 361.945 233.588C362.65 232.238 363.002 231.562 363.002 231.562C363.707 230.212 364.06 229.536 364.06 229.536C365.088 229.213 365.763 229.566 366.086 230.594C366.086 230.594 366.761 230.946 368.112 231.651C368.817 230.3 369.169 229.625 369.169 229.625C368.846 228.597 369.199 227.922 370.226 227.599C370.226 227.599 370.902 227.951 372.252 228.656C372.252 228.656 372.928 229.009 374.278 229.713C374.983 228.363 375.336 227.688 375.336 227.688C375.013 226.66 375.365 225.984 376.393 225.662C376.393 225.662 377.068 226.014 378.419 226.719C378.419 226.719 379.094 227.071 380.445 227.776C380.122 226.748 380.475 226.073 381.502 225.75C381.179 224.722 381.018 224.208 381.018 224.208C382.046 223.886 382.721 224.238 383.044 225.266C384.072 224.943 384.747 225.295 385.07 226.323C385.775 224.972 386.127 224.297 386.127 224.297C386.832 222.946 387.185 222.271 387.185 222.271C386.157 222.594 385.804 223.269 386.127 224.297C386.127 224.297 385.613 224.459 384.586 224.781C383.235 224.077 382.046 223.886 381.018 224.208C381.018 224.208 380.666 224.884 379.961 226.234C378.933 226.557 378.419 226.719 378.419 226.719C377.068 226.014 376.393 225.662 376.393 225.662C375.365 225.984 375.013 226.66 375.336 227.688C374.308 228.01 373.794 228.172 373.794 228.172C372.766 228.495 372.252 228.656 372.252 228.656C371.93 227.628 371.254 227.276 370.226 227.599C369.199 227.922 368.846 228.597 369.169 229.625C369.169 229.625 368.655 229.786 367.627 230.109C366.6 230.432 366.086 230.594 366.086 230.594C365.763 229.566 365.088 229.213 364.06 229.536C363.032 229.859 362.68 230.534 363.002 231.562C363.002 231.562 362.489 231.724 361.461 232.047C361.461 232.047 360.947 232.208 359.919 232.531C359.596 231.503 358.921 231.151 357.893 231.474C357.893 231.474 357.541 232.149 356.836 233.5C356.836 233.5 356.322 233.661 355.294 233.984C353.943 233.279 353.268 232.927 353.268 232.927C352.24 233.249 351.374 234.086 350.669 235.437C349.641 235.76 349.127 235.921 349.127 235.921C348.805 234.894 348.129 234.541 347.102 234.864C346.074 235.187 345.721 235.862 346.044 236.89C345.016 237.213 344.503 237.374 344.503 237.374C343.475 237.697 342.961 237.859 342.961 237.859C342.638 236.831 341.963 236.478 340.935 236.801C339.907 237.124 339.555 237.8 339.878 238.827C339.878 238.827 339.364 238.989 338.336 239.312C338.336 239.312 337.822 239.473 336.794 239.796C336.471 238.768 335.796 238.416 334.768 238.739C333.74 239.062 333.388 239.737 333.711 240.765C333.711 240.765 333.197 240.926 332.169 241.249C332.169 241.249 331.655 241.41 330.628 241.733C330.628 241.733 331.303 242.086 332.654 242.791Z" fill="#06273F"/>
<path d="M435.162 137.753C436.19 137.431 436.704 137.269 436.704 137.269C435.676 137.592 435.162 137.753 435.162 137.753C435.162 137.753 435.001 137.24 434.678 136.212C434.678 136.212 434.002 135.859 432.652 135.154C431.947 136.505 431.433 136.667 431.11 135.639C430.787 134.611 430.112 134.259 429.084 134.582C429.084 134.582 428.57 134.743 427.542 135.066C426.515 135.389 425.839 135.036 425.516 134.009C425.516 134.009 425.355 133.495 425.032 132.467C424.004 132.79 423.49 132.951 423.49 132.951C423.49 132.951 422.976 133.113 421.949 133.436C421.949 133.436 421.787 132.922 421.464 131.894C420.114 131.189 419.438 130.837 419.438 130.837C418.733 132.187 418.22 132.349 417.897 131.321C417.574 130.293 416.898 129.941 415.871 130.264C415.871 130.264 415.357 130.425 414.329 130.748C412.978 130.043 412.303 129.691 412.303 129.691C412.303 129.691 412.142 129.177 411.819 128.149C411.819 128.149 411.305 128.31 410.277 128.633C410.277 128.633 409.763 128.795 408.735 129.118C408.735 129.118 408.574 128.604 408.251 127.576C408.251 127.576 408.09 127.062 407.767 126.034C406.739 126.357 406.225 126.519 406.225 126.519C405.52 127.869 405.006 128.031 404.683 127.003C404.36 125.975 403.685 125.623 402.657 125.946C402.657 125.946 402.143 126.107 401.116 126.43C399.765 125.725 399.09 125.373 399.09 125.373C399.09 125.373 398.928 124.859 398.605 123.831C397.578 124.154 397.064 124.315 397.064 124.315C397.064 124.315 396.55 124.477 395.522 124.8C395.522 124.8 395.361 124.286 395.038 123.258C395.038 123.258 394.876 122.744 394.553 121.716L393.496 123.742C394.524 123.419 395.038 123.258 395.038 123.258C395.361 124.286 395.522 124.8 395.522 124.8C396.55 124.477 397.064 124.315 397.064 124.315C397.064 124.315 397.578 124.154 398.605 123.831C398.928 124.859 399.09 125.373 399.09 125.373C399.09 125.373 399.251 125.887 399.574 126.914C400.602 126.591 401.116 126.43 401.116 126.43C402.143 126.107 402.657 125.946 402.657 125.946C403.685 125.623 403.847 126.137 403.142 127.487C403.142 127.487 403.817 127.84 405.168 128.545C405.168 128.545 405.682 128.383 406.709 128.06C406.387 127.033 406.9 126.871 408.251 127.576C408.574 128.604 408.735 129.118 408.735 129.118C410.086 129.822 410.6 129.661 410.277 128.633C411.305 128.31 411.819 128.149 411.819 128.149C412.142 129.177 412.303 129.691 412.303 129.691C412.626 130.718 413.301 131.071 414.329 130.748C415.357 130.425 415.871 130.264 415.871 130.264C416.898 129.941 417.06 130.455 416.355 131.805C416.355 131.805 417.03 132.158 418.381 132.863C418.381 132.863 418.895 132.701 419.923 132.378C419.923 132.378 420.437 132.217 421.464 131.894C421.787 132.922 421.949 133.436 421.949 133.436C423.299 134.14 423.813 133.979 423.49 132.951C423.49 132.951 424.004 132.79 425.032 132.467C425.355 133.495 425.516 134.009 425.516 134.009C425.839 135.036 426.001 135.55 426.001 135.55C427.028 135.227 427.542 135.066 427.542 135.066C428.57 134.743 429.084 134.582 429.084 134.582C429.084 134.582 429.245 135.095 429.568 136.123C429.568 136.123 430.244 136.476 431.594 137.18C431.594 137.18 432.108 137.019 433.136 136.696C432.813 135.668 432.813 135.668 433.136 136.696C434.164 136.373 434.678 136.212 434.678 136.212C435.001 137.24 435.162 137.753 435.162 137.753Z" fill="#06273F"/>
<path d="M370.946 68.1533C371.974 67.8304 372.327 67.155 372.004 66.1273C371.681 65.0995 372.033 64.4242 373.061 64.1013C373.061 64.1013 373.736 64.4537 375.087 65.1586C375.087 65.1586 375.601 64.9971 376.629 64.6743C376.629 64.6743 377.143 64.5128 378.17 64.1899C377.847 63.1621 377.686 62.6482 377.686 62.6482C378.714 62.3254 379.228 62.1639 379.228 62.1639C380.578 62.8688 381.254 63.2212 381.254 63.2212C382.281 62.8983 382.634 62.223 382.311 61.1952C383.016 59.8446 383.368 59.1692 383.368 59.1692C384.396 58.8463 385.071 59.1988 385.394 60.2266C385.394 60.2266 385.908 60.0651 386.936 59.7422C387.964 59.4193 388.316 58.744 387.993 57.7162C387.993 57.7162 388.507 57.5548 389.535 57.2319C389.535 57.2319 390.049 57.0704 391.077 56.7475C391.399 57.7753 392.075 58.1277 393.103 57.8049C393.807 56.4542 394.16 55.7788 394.16 55.7788C393.837 54.7511 394.189 54.0758 395.217 53.7529C395.217 53.7529 395.893 54.1053 397.243 54.8102C397.243 54.8102 397.757 54.6487 398.785 54.3258C398.785 54.3258 399.137 53.6505 399.842 52.2998C399.842 52.2998 399.681 51.7859 399.358 50.7582C400.386 50.4353 401.061 50.7877 401.384 51.8155C402.412 51.4926 403.087 51.845 403.41 52.8728C404.115 51.5222 404.467 50.8468 404.467 50.8468C405.172 49.4962 405.525 48.8208 405.525 48.8208C406.552 48.4979 407.066 48.3365 407.066 48.3365C407.389 49.3643 408.064 49.7167 409.092 49.3938C410.12 49.0709 410.472 48.3956 410.149 47.3678C409.827 46.34 410.179 45.6647 411.207 45.3418C411.207 45.3418 411.882 45.6942 413.233 46.3991C413.233 46.3991 413.747 46.2377 414.774 45.9148C415.802 45.5919 416.155 44.9166 415.832 43.8888C415.832 43.8888 416.346 43.7273 417.373 43.4045C418.724 44.1093 419.913 44.3003 420.941 43.9774C420.941 43.9774 421.294 43.3021 421.998 41.9514C421.676 40.9237 421.514 40.4098 421.514 40.4098C420.486 40.7327 420.134 41.408 420.457 42.4358C420.457 42.4358 420.618 42.9497 420.941 43.9774C419.913 44.3003 419.238 43.9479 418.915 42.9201C417.564 42.2152 416.889 41.8628 416.889 41.8628C416.184 43.2135 415.832 43.8888 415.832 43.8888C415.127 45.2395 414.774 45.9148 414.774 45.9148C413.747 46.2377 413.233 46.3991 413.233 46.3991C412.91 45.3713 412.235 45.0189 411.207 45.3418C410.179 45.6647 409.827 46.34 410.149 47.3678C410.472 48.3956 410.12 49.0709 409.092 49.3938C409.092 49.3938 408.417 49.0414 407.066 48.3365C407.066 48.3365 406.552 48.4979 405.525 48.8208C404.497 49.1437 403.983 49.3052 403.983 49.3052C404.306 50.3329 403.953 51.0083 402.926 51.3312C402.926 51.3312 402.412 51.4926 401.384 51.8155C401.061 50.7877 400.386 50.4353 399.358 50.7582C399.358 50.7582 399.005 51.4335 398.301 52.7842C398.623 53.812 398.785 54.3258 398.785 54.3258C397.757 54.6487 397.082 54.2963 396.759 53.2685C395.731 53.5914 395.217 53.7529 395.217 53.7529C394.189 54.0758 393.837 54.7511 394.16 55.7788C393.132 56.1017 392.618 56.2632 392.618 56.2632C391.59 56.5861 391.077 56.7475 391.077 56.7475C390.754 55.7198 390.078 55.3673 389.051 55.6902C388.023 56.0131 387.67 56.6884 387.993 57.7162C388.316 58.744 387.964 59.4193 386.936 59.7422C386.936 59.7422 386.261 59.3898 384.91 58.6849C384.91 58.6849 384.396 58.8463 383.368 59.1692C382.341 59.4921 381.988 60.1675 382.311 61.1952C382.311 61.1952 381.959 61.8706 381.254 63.2212C381.254 63.2212 381.092 62.7073 380.769 61.6796C379.419 60.9747 378.229 60.7837 377.202 61.1066C377.525 62.1344 377.172 62.8097 376.144 63.1326C376.467 64.1604 376.629 64.6743 376.629 64.6743C375.601 64.9971 375.087 65.1586 375.087 65.1586C373.736 64.4537 373.061 64.1013 373.061 64.1013C372.033 64.4242 371.681 65.0995 372.004 66.1273C371.299 67.4779 370.946 68.1533 370.946 68.1533C369.919 68.4762 369.243 68.1237 368.92 67.096C368.92 67.096 368.406 67.2574 367.379 67.5803C367.379 67.5803 367.893 67.4188 368.92 67.096C369.243 68.1237 369.919 68.4762 370.946 68.1533Z" fill="#06273F"/>
<path d="M289.663 127.565C290.69 127.242 291.043 126.567 290.72 125.539C291.748 125.216 292.262 125.055 292.262 125.055C292.584 126.083 292.746 126.597 292.746 126.597C292.746 126.597 293.26 126.435 294.288 126.112C294.288 126.112 294.126 125.598 293.803 124.571C293.803 124.571 294.317 124.409 295.345 124.086C295.345 124.086 295.859 123.925 296.887 123.602C297.591 122.251 297.944 121.576 297.944 121.576C297.944 121.576 298.619 121.928 299.97 122.633C300.998 122.31 301.35 121.635 301.027 120.607C302.055 120.284 302.569 120.123 302.569 120.123C302.892 121.151 303.567 121.503 304.595 121.18C304.272 120.152 304.11 119.639 304.11 119.639C304.11 119.639 304.463 118.963 305.168 117.613C305.168 117.613 305.329 118.126 305.652 119.154C305.652 119.154 306.166 118.993 307.194 118.67C307.194 118.67 307.708 118.508 308.735 118.186C308.413 117.158 308.251 116.644 308.251 116.644C308.251 116.644 308.765 116.482 309.793 116.16C310.116 117.187 310.277 117.701 310.277 117.701C311.305 117.378 311.657 116.703 311.334 115.675C312.362 115.352 312.876 115.191 312.876 115.191C313.904 114.868 314.418 114.707 314.418 114.707C314.095 113.679 314.447 113.003 315.475 112.681C315.475 112.681 315.637 113.194 315.959 114.222C315.959 114.222 316.473 114.061 317.501 113.738C318.206 112.387 318.558 111.712 318.558 111.712C319.909 112.417 320.584 112.769 320.584 112.769C321.612 112.446 321.965 111.771 321.642 110.743L321.157 109.202C321.48 110.229 321.642 110.743 321.642 110.743C320.614 111.066 320.262 111.741 320.584 112.769C320.584 112.769 320.423 112.255 320.1 111.228C319.072 111.55 318.558 111.712 318.558 111.712C317.531 112.035 317.017 112.196 317.017 112.196C317.34 113.224 317.501 113.738 317.501 113.738C316.473 114.061 315.959 114.222 315.959 114.222C315.637 113.194 315.475 112.681 315.475 112.681C314.447 113.003 314.095 113.679 314.418 114.707C314.418 114.707 313.904 114.868 312.876 115.191C312.876 115.191 312.362 115.352 311.334 115.675C311.657 116.703 311.305 117.378 310.277 117.701C310.277 117.701 310.116 117.187 309.793 116.16C308.765 116.482 308.251 116.644 308.251 116.644C307.223 116.967 306.871 117.642 307.194 118.67C307.194 118.67 306.68 118.831 305.652 119.154C305.329 118.126 305.168 117.613 305.168 117.613C304.14 117.935 303.788 118.611 304.11 119.639C303.083 119.961 302.569 120.123 302.569 120.123C302.569 120.123 302.055 120.284 301.027 120.607C301.35 121.635 300.998 122.31 299.97 122.633C299.97 122.633 299.808 122.119 299.486 121.092C298.458 121.414 297.944 121.576 297.944 121.576C296.916 121.899 296.564 122.574 296.887 123.602C296.887 123.602 296.373 123.763 295.345 124.086C295.022 123.058 294.861 122.545 294.861 122.545C294.156 123.895 293.803 124.571 293.803 124.571C292.775 124.893 292.262 125.055 292.262 125.055C292.262 125.055 291.748 125.216 290.72 125.539C290.015 126.89 289.663 127.565 289.663 127.565C288.312 126.86 287.637 126.508 287.637 126.508C287.637 126.508 287.798 127.022 288.121 128.05C289.149 127.727 289.663 127.565 289.663 127.565Z" fill="#06273F"/>
<path d="M220.404 84.9605L233.665 57.0808L232.124 57.5652L218.378 83.9032L220.404 84.9605Z" fill="#06273F"/>
<path d="M238.904 79.1484L239.962 77.1224L213.624 63.3772L212.082 63.8616L238.904 79.1484Z" fill="#06273F"/>
<path d="M108.096 282.851L118.669 262.591L117.128 263.075L106.554 283.335L108.096 282.851Z" fill="#06273F"/>
<path d="M121.971 278.492L123.513 278.007L103.253 267.434L101.711 267.918L121.971 278.492Z" fill="#06273F"/>
<path d="M155.144 103.769C158.228 102.8 157.259 99.7168 157.832 96.1492C157.348 94.6075 157.436 89.4982 157.436 89.4982C158.978 89.0138 160.431 93.6388 162.457 94.6961C163.426 97.7795 165.936 100.378 167.478 99.8941C169.019 99.4098 169.592 95.8421 170.165 92.2744C169.681 90.7328 168.228 86.1078 169.769 85.6235C171.311 85.1391 172.764 89.7641 173.248 91.3058C175.759 93.9048 178.269 96.5037 179.811 96.0194C181.352 95.5351 181.925 91.9674 180.957 88.8841C182.014 86.8581 180.561 82.2331 182.103 81.7488C179.019 82.7174 179.988 85.8008 179.415 89.3684C179.899 90.9101 180.868 93.9934 179.326 94.4777C177.785 94.9621 176.816 91.8788 174.79 90.8214C173.821 87.7381 171.311 85.1391 169.769 85.6235C168.228 86.1078 167.655 89.6755 168.623 92.7588C167.566 94.7848 168.535 97.8681 166.993 98.3525C166.993 98.3525 164.483 95.7535 163.999 94.2118C161.488 91.6128 160.519 88.5295 157.436 89.4982C155.895 89.9825 155.322 93.5502 156.29 96.6335C155.233 98.6595 156.202 101.743 154.66 102.227L155.144 103.769Z" fill="#06273F"/>
<path d="M178.055 198.2C179.597 197.716 180.17 194.148 182.769 191.638C183.826 189.612 184.399 186.044 184.399 186.044L185.457 184.018C183.915 184.502 181.316 187.013 180.743 190.58C179.686 192.606 179.113 196.174 177.571 196.658C177.087 195.117 176.118 192.033 175.634 190.492C176.207 186.924 175.238 183.841 173.212 182.783C170.129 183.752 169.071 185.778 168.498 189.346C167.441 191.372 166.868 194.939 165.326 195.424C163.3 194.366 163.873 190.799 163.389 189.257C162.42 186.174 162.993 182.606 160.967 181.549C157.884 182.518 156.827 184.544 156.254 188.111C155.196 190.137 154.623 193.705 153.082 194.189C153.082 194.189 152.92 193.675 152.597 192.648L153.082 194.189C155.108 195.247 155.681 191.679 156.254 188.111C157.311 186.085 159.91 183.575 159.91 183.575C161.452 183.091 160.879 186.658 161.847 189.741C162.816 192.825 162.243 196.392 165.326 195.424C167.352 196.481 167.925 192.913 170.524 190.403C169.556 187.32 172.155 184.809 172.155 184.809C173.696 184.325 173.123 187.893 174.092 190.976C175.061 194.059 176.029 197.143 178.055 198.2Z" fill="#06273F"/>
<path d="M177.219 276.38C178.76 275.896 176.734 274.839 176.25 273.297C174.224 272.24 173.74 270.698 173.74 270.698C173.74 270.698 175.281 270.214 177.307 271.271C179.333 272.328 180.875 271.844 182.417 271.36C181.932 269.818 181.448 268.276 179.422 267.219C178.938 265.677 176.912 264.62 176.912 264.62C178.453 264.136 180.479 265.193 180.479 265.193C182.505 266.25 184.047 265.766 185.589 265.282C185.104 263.74 184.62 262.198 182.594 261.141C182.594 261.141 180.568 260.084 181.625 258.058L180.084 258.542C180.084 258.542 180.568 260.084 183.078 262.683C183.078 262.683 185.104 263.74 183.563 264.224C184.047 265.766 182.021 264.709 182.021 264.709C179.995 263.651 177.969 262.594 176.912 264.62C175.37 265.104 177.396 266.162 179.422 267.219C179.906 268.761 180.391 270.302 180.391 270.302C180.391 270.302 178.849 270.787 176.823 269.729C175.281 270.214 173.255 269.156 173.255 269.156C172.198 271.182 174.224 272.24 174.708 273.781C176.734 274.839 177.219 276.38 177.219 276.38Z" fill="#06273F"/>
<path fill-rule="evenodd" clip-rule="evenodd" d="M110.309 95.8354L131.892 89.0547L138.673 110.638L117.089 117.419L110.309 95.8354ZM131.319 92.6224L112.819 98.4344L118.147 115.393L136.647 109.581L131.319 92.6224Z" fill="#06273F"/>
<path fill-rule="evenodd" clip-rule="evenodd" d="M273.633 227.458L287.508 223.098L291.867 236.973L277.992 241.332L273.633 227.458ZM286.45 225.124L275.659 228.515L279.534 240.848L290.325 237.458L286.45 225.124Z" fill="#06273F"/>
<path fill-rule="evenodd" clip-rule="evenodd" d="M60.2223 125.12L71.8528 102.834L92.5971 114.949L82.0239 135.209L60.2223 125.12ZM71.7642 107.943L63.3056 124.151L79.5136 132.61L89.5138 115.918L71.7642 107.943Z" fill="#06273F"/>
<path fill-rule="evenodd" clip-rule="evenodd" d="M216.41 255.597L223.811 241.415L237.993 248.816L230.592 262.998L216.41 255.597ZM224.295 242.957L217.952 255.113L230.108 261.457L236.451 249.301L224.295 242.957Z" fill="#06273F"/>
<path d="M261.428 134.743L262.751 117.389L248.303 125.316L250.111 109.503L234.605 119.456L236.631 120.513L247.996 113.555L246.188 129.368L260.152 119.899L259.886 135.227L261.428 134.743Z" fill="#06273F"/>
<path d="M104.533 222.992L104.049 221.45L94.3147 222.814L99.6013 212.684L88.3253 214.533L94.0963 205.945L92.0703 204.887L85.242 215.502L97.0023 215.195L91.7157 225.325L104.533 222.992Z" fill="#06273F"/>
<path d="M200.638 162.312L201.695 160.286C196.675 155.088 197.82 147.952 203.018 142.932C206.675 138.395 215.352 139.057 219.888 142.713L221.43 142.229C215.925 135.489 207.732 136.369 200.992 141.874C195.794 146.895 195.133 155.572 200.638 162.312Z" fill="#06273F"/>
<path d="M103.411 170.836L102.926 169.294C101.253 167.562 100.445 164.992 100.505 161.586C100.887 159.208 101.944 157.182 103.677 155.508C108.875 150.487 115.525 150.092 119.005 155.774L120.062 153.748C115.041 148.55 108.39 148.946 103.192 153.966C100.432 155.963 99.022 158.664 98.9629 162.07C98.9038 165.477 100.386 168.398 103.411 170.836Z" fill="#06273F"/>
<path d="M248.565 228.558C249.593 228.235 250.459 227.398 251.164 226.048C253.763 223.537 252.31 218.912 250.284 217.855L248.742 218.339C252.31 218.912 252.221 224.022 251.164 226.048C248.565 228.558 245.482 229.527 242.971 226.928L241.914 228.954C244.292 229.336 246.509 229.204 248.565 228.558Z" fill="#06273F"/>
<path d="M142.512 273.734L144.053 273.249C143.407 271.194 142.923 269.652 142.6 268.624C143.305 267.274 144.524 265.762 146.256 264.088C147.284 263.765 148.473 263.956 149.824 264.661C151.175 265.366 152.525 266.071 153.876 266.776C153.23 264.72 152.232 263.34 150.881 262.635C148.503 262.253 146.447 262.899 144.715 264.572C143.687 264.895 142.982 266.246 142.6 268.624C141.895 269.975 141.866 271.678 142.512 273.734Z" fill="#06273F"/>
<path fill-rule="evenodd" clip-rule="evenodd" d="M259.988 189.398C258.051 183.231 260.738 175.612 268.447 173.19C274.613 171.253 281.176 175.966 283.113 182.133C285.05 188.3 281.878 194.378 275.712 196.315C268.003 198.737 261.925 195.565 259.988 189.398ZM261.53 188.914C262.983 193.539 269.061 196.711 275.227 194.773C279.852 193.32 283.024 187.242 281.571 182.617C279.634 176.451 273.556 173.279 268.931 174.732C262.764 176.669 259.592 182.747 261.53 188.914Z" fill="#06273F"/>
<path fill-rule="evenodd" clip-rule="evenodd" d="M196.109 217.937C195.141 214.854 197.255 210.802 198.797 210.317C201.88 209.349 205.932 211.463 206.901 214.547C207.87 217.63 205.271 220.14 202.187 221.109C200.646 221.593 197.078 221.02 196.109 217.937ZM196.109 217.937C196.594 219.479 200.646 221.593 202.187 221.109C205.271 220.14 207.385 216.088 206.901 214.547C205.932 211.463 202.365 210.89 199.281 211.859C197.74 212.343 195.141 214.854 196.109 217.937Z" fill="#06273F"/>
<path fill-rule="evenodd" clip-rule="evenodd" d="M142.491 214.454L161.605 232.163L138.48 239.428L142.491 214.454ZM143.46 217.538L139.053 235.86L156.011 230.533L143.46 217.538Z" fill="#06273F"/>
<path fill-rule="evenodd" clip-rule="evenodd" d="M234.773 168.524L243.628 158.967L247.018 169.759L234.773 168.524ZM236.315 168.04L245.476 170.243L243.055 162.535L236.315 168.04Z" fill="#06273F"/>
<path fill-rule="evenodd" clip-rule="evenodd" d="M73.8984 163.171L85.0858 166.431L77.7732 175.504L73.8984 163.171ZM75.9244 164.228L78.3461 171.937L83.5441 166.916L75.9244 164.228Z" fill="#06273F"/>
<path fill-rule="evenodd" clip-rule="evenodd" d="M116.352 190.483L128.596 191.717L121.284 200.79L119.742 201.274L116.352 190.483ZM118.378 191.54L120.799 199.248L127.539 193.743L118.378 191.54Z" fill="#06273F"/>
<path fill-rule="evenodd" clip-rule="evenodd" d="M150.091 130.763L161.674 140.675L146.258 145.518L150.091 130.763ZM151.06 133.847L149.341 144.55L160.132 141.159L151.06 133.847Z" fill="#06273F"/>
<path d="M139.943 303.333C140.648 301.983 141 301.307 141 301.307C141.705 299.957 142.057 299.281 142.057 299.281C143.085 298.958 143.76 299.311 144.083 300.339C144.083 300.339 144.759 300.691 146.109 301.396C146.814 300.045 147.167 299.37 147.167 299.37C146.844 298.342 147.196 297.667 148.224 297.344C148.224 297.344 148.899 297.696 150.25 298.401C150.25 298.401 150.925 298.754 152.276 299.459C152.981 298.108 153.333 297.433 153.333 297.433C153.01 296.405 153.363 295.73 154.391 295.407C154.391 295.407 155.066 295.759 156.417 296.464C156.417 296.464 157.092 296.816 158.443 297.521C158.12 296.494 158.472 295.818 159.5 295.495C159.177 294.468 159.529 293.792 160.557 293.469C160.557 293.469 160.719 293.983 161.042 295.011C162.069 294.688 162.745 295.041 163.068 296.068C163.772 294.718 164.125 294.042 164.125 294.042C164.83 292.692 165.182 292.016 165.182 292.016C166.21 291.693 166.885 292.046 167.208 293.074C167.208 293.074 167.884 293.426 169.234 294.131C169.939 292.78 170.292 292.105 170.292 292.105C170.996 290.754 171.349 290.079 171.349 290.079C172.377 289.756 173.052 290.108 173.375 291.136C173.375 291.136 174.05 291.489 175.401 292.194C176.106 290.843 176.458 290.168 176.458 290.168C176.135 289.14 176.488 288.464 177.515 288.142C177.515 288.142 178.191 288.494 179.541 289.199C179.541 289.199 180.217 289.551 181.567 290.256C182.272 288.906 182.625 288.23 182.625 288.23C182.302 287.202 182.654 286.527 183.682 286.204C183.682 286.204 184.357 286.557 185.708 287.262C185.708 287.262 186.383 287.614 187.734 288.319C187.411 287.291 187.764 286.616 188.791 286.293C188.469 285.265 188.307 284.751 188.307 284.751C189.335 284.428 190.01 284.781 190.333 285.809C191.361 285.486 192.036 285.838 192.359 286.866C193.064 285.515 193.416 284.84 193.416 284.84C194.121 283.489 194.474 282.814 194.474 282.814C193.446 283.137 193.094 283.812 193.416 284.84C193.416 284.84 192.903 285.001 191.875 285.324C190.524 284.619 189.335 284.428 188.307 284.751C188.307 284.751 187.955 285.427 187.25 286.777C186.222 287.1 185.708 287.262 185.708 287.262C184.357 286.557 183.682 286.204 183.682 286.204C182.654 286.527 182.302 287.202 182.625 288.23C181.597 288.553 181.083 288.715 181.083 288.715C180.055 289.037 179.541 289.199 179.541 289.199C179.219 288.171 178.543 287.819 177.515 288.142C176.488 288.464 176.135 289.14 176.458 290.168C176.458 290.168 175.944 290.329 174.916 290.652C173.889 290.975 173.375 291.136 173.375 291.136C173.052 290.108 172.377 289.756 171.349 290.079C170.321 290.402 169.969 291.077 170.292 292.105C170.292 292.105 169.778 292.266 168.75 292.589C168.75 292.589 168.236 292.751 167.208 293.074C166.885 292.046 166.21 291.693 165.182 292.016C165.182 292.016 164.83 292.692 164.125 294.042C164.125 294.042 163.611 294.204 162.583 294.527C161.233 293.822 160.557 293.469 160.557 293.469C159.529 293.792 158.663 294.629 157.958 295.98C156.93 296.303 156.417 296.464 156.417 296.464C156.094 295.436 155.418 295.084 154.391 295.407C153.363 295.73 153.01 296.405 153.333 297.433C152.305 297.756 151.792 297.917 151.792 297.917C150.764 298.24 150.25 298.401 150.25 298.401C149.927 297.374 149.252 297.021 148.224 297.344C147.196 297.667 146.844 298.342 147.167 299.37C147.167 299.37 146.653 299.531 145.625 299.854C144.597 300.177 144.083 300.339 144.083 300.339C143.76 299.311 143.085 298.958 142.057 299.281C141.029 299.604 140.677 300.28 141 301.307C141 301.307 140.486 301.469 139.458 301.792C139.458 301.792 138.944 301.953 137.917 302.276C137.917 302.276 138.592 302.628 139.943 303.333Z" fill="#06273F"/>
<path d="M242.455 198.296C243.483 197.973 243.997 197.812 243.997 197.812C242.969 198.134 242.455 198.296 242.455 198.296C242.455 198.296 242.294 197.782 241.971 196.754C241.971 196.754 241.295 196.402 239.945 195.697C239.24 197.048 238.726 197.209 238.403 196.181C238.08 195.154 237.405 194.801 236.377 195.124C236.377 195.124 235.863 195.285 234.835 195.608C233.808 195.931 233.132 195.579 232.809 194.551C232.809 194.551 232.648 194.037 232.325 193.009C231.297 193.332 230.783 193.494 230.783 193.494C230.783 193.494 230.269 193.655 229.242 193.978C229.242 193.978 229.08 193.464 228.757 192.436C227.407 191.731 226.731 191.379 226.731 191.379C226.026 192.73 225.513 192.891 225.19 191.863C224.867 190.836 224.191 190.483 223.164 190.806C223.164 190.806 222.65 190.968 221.622 191.29C220.271 190.586 219.596 190.233 219.596 190.233C219.596 190.233 219.435 189.719 219.112 188.691C219.112 188.691 218.598 188.853 217.57 189.176C217.57 189.176 217.056 189.337 216.028 189.66C216.028 189.66 215.867 189.146 215.544 188.118C215.544 188.118 215.383 187.605 215.06 186.577C214.032 186.9 213.518 187.061 213.518 187.061C212.813 188.412 212.299 188.573 211.976 187.545C211.653 186.518 210.978 186.165 209.95 186.488C209.95 186.488 209.436 186.65 208.409 186.972C207.058 186.268 206.383 185.915 206.383 185.915C206.383 185.915 206.221 185.401 205.898 184.373C204.871 184.696 204.357 184.858 204.357 184.858C204.357 184.858 203.843 185.019 202.815 185.342C202.815 185.342 202.654 184.828 202.331 183.8C202.331 183.8 202.169 183.287 201.846 182.259L200.789 184.285C201.817 183.962 202.331 183.8 202.331 183.8C202.654 184.828 202.815 185.342 202.815 185.342C203.843 185.019 204.357 184.858 204.357 184.858C204.357 184.858 204.871 184.696 205.898 184.373C206.221 185.401 206.383 185.915 206.383 185.915C206.383 185.915 206.544 186.429 206.867 187.457C207.895 187.134 208.409 186.972 208.409 186.972C209.436 186.65 209.95 186.488 209.95 186.488C210.978 186.165 211.14 186.679 210.435 188.03C210.435 188.03 211.11 188.382 212.461 189.087C212.461 189.087 212.975 188.926 214.002 188.603C213.679 187.575 214.193 187.414 215.544 188.118C215.867 189.146 216.028 189.66 216.028 189.66C217.379 190.365 217.893 190.204 217.57 189.176C218.598 188.853 219.112 188.691 219.112 188.691C219.435 189.719 219.596 190.233 219.596 190.233C219.919 191.261 220.594 191.613 221.622 191.29C222.65 190.968 223.164 190.806 223.164 190.806C224.191 190.483 224.353 190.997 223.648 192.348C223.648 192.348 224.323 192.7 225.674 193.405C225.674 193.405 226.188 193.244 227.216 192.921C227.216 192.921 227.73 192.759 228.757 192.436C229.08 193.464 229.242 193.978 229.242 193.978C230.592 194.683 231.106 194.521 230.783 193.494C230.783 193.494 231.297 193.332 232.325 193.009C232.648 194.037 232.809 194.551 232.809 194.551C233.132 195.579 233.294 196.093 233.294 196.093C234.321 195.77 234.835 195.608 234.835 195.608C235.863 195.285 236.377 195.124 236.377 195.124C236.377 195.124 236.538 195.638 236.861 196.666C236.861 196.666 237.537 197.018 238.887 197.723C238.887 197.723 239.401 197.562 240.429 197.239C240.106 196.211 240.106 196.211 240.429 197.239C241.457 196.916 241.971 196.754 241.971 196.754C242.294 197.782 242.455 198.296 242.455 198.296Z" fill="#06273F"/>
<path d="M178.239 128.696C179.267 128.373 179.62 127.697 179.297 126.67C178.974 125.642 179.326 124.966 180.354 124.644C180.354 124.644 181.029 124.996 182.38 125.701C182.38 125.701 182.894 125.539 183.922 125.216C183.922 125.216 184.436 125.055 185.463 124.732C185.14 123.704 184.979 123.19 184.979 123.19C186.007 122.868 186.521 122.706 186.521 122.706C187.871 123.411 188.547 123.763 188.547 123.763C189.574 123.441 189.927 122.765 189.604 121.737C190.309 120.387 190.661 119.711 190.661 119.711C191.689 119.389 192.364 119.741 192.687 120.769C192.687 120.769 193.201 120.607 194.229 120.284C195.257 119.962 195.609 119.286 195.286 118.258C195.286 118.258 195.8 118.097 196.828 117.774C196.828 117.774 197.342 117.613 198.37 117.29C198.692 118.318 199.368 118.67 200.396 118.347C201.1 116.996 201.453 116.321 201.453 116.321C201.13 115.293 201.482 114.618 202.51 114.295C202.51 114.295 203.186 114.648 204.536 115.352C204.536 115.352 205.05 115.191 206.078 114.868C206.078 114.868 206.43 114.193 207.135 112.842C207.135 112.842 206.974 112.328 206.651 111.3C207.679 110.978 208.354 111.33 208.677 112.358C209.705 112.035 210.38 112.387 210.703 113.415C211.408 112.064 211.76 111.389 211.76 111.389C212.465 110.038 212.817 109.363 212.817 109.363C213.845 109.04 214.359 108.879 214.359 108.879C214.682 109.906 215.357 110.259 216.385 109.936C217.413 109.613 217.765 108.938 217.442 107.91C217.12 106.882 217.472 106.207 218.5 105.884C218.5 105.884 219.175 106.236 220.526 106.941C220.526 106.941 221.04 106.78 222.067 106.457C223.095 106.134 223.448 105.459 223.125 104.431C223.125 104.431 223.639 104.27 224.666 103.947C226.017 104.652 227.206 104.843 228.234 104.52C228.234 104.52 228.587 103.844 229.291 102.494C228.969 101.466 228.807 100.952 228.807 100.952C227.779 101.275 227.427 101.95 227.75 102.978C227.75 102.978 227.911 103.492 228.234 104.52C227.206 104.843 226.531 104.49 226.208 103.462C224.857 102.757 224.182 102.405 224.182 102.405C223.477 103.756 223.125 104.431 223.125 104.431C222.42 105.782 222.067 106.457 222.067 106.457C221.04 106.78 220.526 106.941 220.526 106.941C220.203 105.914 219.528 105.561 218.5 105.884C217.472 106.207 217.12 106.882 217.442 107.91C217.765 108.938 217.413 109.613 216.385 109.936C216.385 109.936 215.71 109.584 214.359 108.879C214.359 108.879 213.845 109.04 212.817 109.363C211.79 109.686 211.276 109.847 211.276 109.847C211.599 110.875 211.246 111.551 210.219 111.873C210.219 111.873 209.705 112.035 208.677 112.358C208.354 111.33 207.679 110.978 206.651 111.3C206.651 111.3 206.298 111.976 205.594 113.326C205.916 114.354 206.078 114.868 206.078 114.868C205.05 115.191 204.375 114.839 204.052 113.811C203.024 114.134 202.51 114.295 202.51 114.295C201.482 114.618 201.13 115.293 201.453 116.321C200.425 116.644 199.911 116.805 199.911 116.805C198.883 117.128 198.37 117.29 198.37 117.29C198.047 116.262 197.371 115.91 196.344 116.232C195.316 116.555 194.963 117.231 195.286 118.258C195.609 119.286 195.257 119.962 194.229 120.284C194.229 120.284 193.554 119.932 192.203 119.227C192.203 119.227 191.689 119.389 190.661 119.711C189.633 120.034 189.281 120.71 189.604 121.737C189.604 121.737 189.251 122.413 188.547 123.763C188.547 123.763 188.385 123.25 188.062 122.222C186.712 121.517 185.522 121.326 184.495 121.649C184.817 122.677 184.465 123.352 183.437 123.675C183.76 124.703 183.922 125.216 183.922 125.216C182.894 125.539 182.38 125.701 182.38 125.701C181.029 124.996 180.354 124.644 180.354 124.644C179.326 124.966 178.974 125.642 179.297 126.67C178.592 128.02 178.239 128.696 178.239 128.696C177.212 129.018 176.536 128.666 176.213 127.638C176.213 127.638 175.699 127.8 174.672 128.123C174.672 128.123 175.186 127.961 176.213 127.638C176.536 128.666 177.212 129.018 178.239 128.696Z" fill="#06273F"/>
<path d="M96.9555 188.108C97.9833 187.785 98.3358 187.11 98.0129 186.082C99.0406 185.759 99.5545 185.597 99.5545 185.597C99.8774 186.625 100.039 187.139 100.039 187.139C100.039 187.139 100.553 186.978 101.581 186.655C101.581 186.655 101.419 186.141 101.096 185.113C101.096 185.113 101.61 184.952 102.638 184.629C102.638 184.629 103.152 184.467 104.18 184.144C104.884 182.794 105.237 182.118 105.237 182.118C105.237 182.118 105.912 182.471 107.263 183.176C108.291 182.853 108.643 182.177 108.32 181.15C109.348 180.827 109.862 180.665 109.862 180.665C110.185 181.693 110.86 182.046 111.888 181.723C111.565 180.695 111.403 180.181 111.403 180.181C111.403 180.181 111.756 179.506 112.461 178.155C112.461 178.155 112.622 178.669 112.945 179.697C112.945 179.697 113.459 179.535 114.487 179.212C114.487 179.212 115.001 179.051 116.028 178.728C115.706 177.7 115.544 177.186 115.544 177.186C115.544 177.186 116.058 177.025 117.086 176.702C117.409 177.73 117.57 178.244 117.57 178.244C118.598 177.921 118.95 177.245 118.627 176.218C119.655 175.895 120.169 175.733 120.169 175.733C121.197 175.41 121.711 175.249 121.711 175.249C121.388 174.221 121.74 173.546 122.768 173.223C122.768 173.223 122.93 173.737 123.252 174.765C123.252 174.765 123.766 174.603 124.794 174.28C125.499 172.93 125.851 172.254 125.851 172.254C127.202 172.959 127.877 173.312 127.877 173.312C128.905 172.989 129.258 172.313 128.935 171.286L128.45 169.744C128.773 170.772 128.935 171.286 128.935 171.286C127.907 171.609 127.555 172.284 127.877 173.312C127.877 173.312 127.716 172.798 127.393 171.77C126.365 172.093 125.851 172.254 125.851 172.254C124.824 172.577 124.31 172.739 124.31 172.739C124.633 173.766 124.794 174.28 124.794 174.28C123.766 174.603 123.252 174.765 123.252 174.765C122.93 173.737 122.768 173.223 122.768 173.223C121.74 173.546 121.388 174.221 121.711 175.249C121.711 175.249 121.197 175.41 120.169 175.733C120.169 175.733 119.655 175.895 118.627 176.218C118.95 177.245 118.598 177.921 117.57 178.244C117.57 178.244 117.409 177.73 117.086 176.702C116.058 177.025 115.544 177.186 115.544 177.186C114.516 177.509 114.164 178.185 114.487 179.212C114.487 179.212 113.973 179.374 112.945 179.697C112.622 178.669 112.461 178.155 112.461 178.155C111.433 178.478 111.081 179.153 111.403 180.181C110.376 180.504 109.862 180.665 109.862 180.665C109.862 180.665 109.348 180.827 108.32 181.15C108.643 182.177 108.291 182.853 107.263 183.176C107.263 183.176 107.101 182.662 106.778 181.634C105.751 181.957 105.237 182.118 105.237 182.118C104.209 182.441 103.857 183.117 104.18 184.144C104.18 184.144 103.666 184.306 102.638 184.629C102.315 183.601 102.154 183.087 102.154 183.087C101.449 184.438 101.096 185.113 101.096 185.113C100.068 185.436 99.5545 185.597 99.5545 185.597C99.5545 185.597 99.0406 185.759 98.0129 186.082C97.308 187.432 96.9555 188.108 96.9555 188.108C95.6049 187.403 94.9295 187.05 94.9295 187.05C94.9295 187.05 95.091 187.564 95.4139 188.592C96.4417 188.269 96.9555 188.108 96.9555 188.108Z" fill="#06273F"/>
<path d="M218.502 310.836C216.961 311.32 214.45 308.721 213.482 305.638C211.456 304.581 210.487 301.497 208.945 301.982C208.945 301.982 208.372 305.549 208.857 307.091C208.284 310.659 209.252 313.742 206.169 314.711C204.627 315.195 202.117 312.596 201.148 309.513C199.122 308.455 198.154 305.372 196.612 305.856C196.612 305.856 196.039 309.424 196.523 310.966C195.95 314.533 196.919 317.617 193.836 318.585C192.294 319.07 191.325 315.986 188.815 313.387C188.331 311.846 185.82 309.247 185.82 309.247L185.336 307.705C186.878 307.221 187.846 310.304 190.357 312.903C190.841 314.445 193.351 317.044 193.351 317.044C194.893 316.559 195.466 312.992 194.982 311.45C194.013 308.367 194.586 304.799 196.128 304.315C199.211 303.346 200.18 306.429 202.69 309.028C203.174 310.57 205.685 313.169 205.685 313.169C207.226 312.685 206.258 309.601 207.315 307.575C206.346 304.492 206.919 300.924 208.461 300.44C210.003 299.956 212.513 302.555 215.023 305.154C215.508 306.695 216.476 309.779 218.018 309.294L218.502 310.836Z" fill="#06273F"/>
<path fill-rule="evenodd" clip-rule="evenodd" d="M259.554 301.327L236.429 308.592L229.164 285.467L252.289 278.202L259.554 301.327ZM239.028 306.081L255.986 300.754L250.659 283.795L233.7 289.123L239.028 306.081Z" fill="#06273F"/>
<path fill-rule="evenodd" clip-rule="evenodd" d="M298.02 294.323L276.218 284.234L287.849 261.948L308.593 274.063L298.02 294.323ZM280.359 281.239L297.051 291.239L305.026 273.49L288.818 265.031L280.359 281.239Z" fill="#06273F"/>
<path d="M348.493 271.691L320.613 258.43L321.671 256.404L348.009 270.15L348.493 271.691Z" fill="#06273F"/>
<path d="M328.451 277.988L326.425 276.93L341.712 250.108L342.196 251.65L328.451 277.988Z" fill="#06273F"/>
<path d="M411.213 250.294C409.671 250.778 407.161 248.179 406.192 245.096C404.166 244.038 403.198 240.955 401.656 241.439C401.656 241.439 401.083 245.007 401.567 246.549C400.994 250.116 401.963 253.2 398.88 254.168C397.338 254.653 394.828 252.054 393.859 248.97C391.833 247.913 390.864 244.83 389.323 245.314C389.323 245.314 388.75 248.882 389.234 250.423C388.661 253.991 389.63 257.074 386.547 258.043C385.005 258.527 384.036 255.444 381.526 252.845C381.042 251.303 378.531 248.705 378.531 248.705L378.047 247.163C379.589 246.679 380.557 249.762 383.068 252.361C383.552 253.902 386.062 256.501 386.062 256.501C387.604 256.017 388.177 252.449 387.693 250.908C386.724 247.824 387.297 244.257 388.838 243.772C391.922 242.804 392.89 245.887 395.401 248.486C395.885 250.028 398.395 252.627 398.395 252.627C399.937 252.142 398.968 249.059 400.026 247.033C399.057 243.95 399.63 240.382 401.172 239.898C402.713 239.413 405.224 242.012 407.734 244.611C408.218 246.153 409.187 249.236 410.729 248.752L411.213 250.294Z" fill="#06273F"/>
<path d="M407.39 324.329L405.848 324.813C406.994 317.678 403.031 310.454 395.896 309.308C388.76 308.162 382.021 313.667 380.875 320.802L378.849 319.745C379.995 312.609 388.276 306.62 395.411 307.766C404.088 308.428 410.078 316.709 407.39 324.329Z" fill="#06273F"/>
<path d="M408.078 283.46C408.078 283.46 407.564 283.621 406.536 283.944C406.536 283.944 405.861 283.592 404.51 282.887C403.482 283.21 402.968 283.371 402.968 283.371C402.263 284.722 401.911 285.397 401.911 285.397C400.56 284.692 399.885 284.34 399.885 284.34C398.534 283.635 397.859 283.282 397.859 283.282C396.831 283.605 396.317 283.767 396.317 283.767C396.64 284.794 396.288 285.47 395.26 285.793C394.232 286.116 393.557 285.763 393.234 284.735C393.234 284.735 392.559 284.383 391.208 283.678C391.208 283.678 390.856 284.353 390.151 285.704C390.474 286.732 390.121 287.407 389.093 287.73C387.743 287.025 387.067 286.673 387.067 286.673C386.745 285.645 386.069 285.293 385.041 285.615C384.337 286.966 383.47 287.803 382.442 288.126C382.442 288.126 381.767 287.773 380.416 287.068C380.094 286.041 379.932 285.527 379.932 285.527C378.904 285.85 378.552 286.525 378.875 287.553C377.847 287.876 377.333 288.037 377.333 288.037C376.305 288.36 375.63 288.008 375.307 286.98C375.307 286.98 374.793 287.141 373.765 287.464C372.738 287.787 372.224 287.948 372.224 287.948C372.547 288.976 372.194 289.652 371.166 289.974C370.139 290.297 369.463 289.945 369.14 288.917C368.818 287.889 368.142 287.537 367.114 287.86C367.114 287.86 366.762 288.535 366.057 289.886C366.057 289.886 365.543 290.047 364.515 290.37C363.488 290.693 362.812 290.341 362.489 289.313C362.489 289.313 362.328 288.799 362.005 287.771C360.977 288.094 360.463 288.256 360.463 288.256C360.463 288.256 360.625 288.769 360.948 289.797C360.243 291.148 359.89 291.823 359.89 291.823C358.863 292.146 358.349 292.308 358.349 292.308C358.026 291.28 357.351 290.927 356.323 291.25C356 290.222 355.838 289.709 355.838 289.709C356.866 289.386 357.542 289.738 357.864 290.766C358.892 290.443 359.406 290.282 359.406 290.282C360.111 288.931 360.463 288.256 360.463 288.256C360.463 288.256 360.977 288.094 362.005 287.771C362.005 287.771 362.167 288.285 362.489 289.313C363.84 290.018 364.515 290.37 364.515 290.37C365.543 290.047 365.896 289.372 365.573 288.344C365.573 288.344 366.087 288.183 367.114 287.86C368.142 287.537 368.818 287.889 369.14 288.917C369.14 288.917 369.654 288.756 370.682 288.433C371.005 289.461 371.519 289.299 372.224 287.948C371.901 286.921 372.253 286.245 373.281 285.922C374.632 286.627 375.307 286.98 375.307 286.98C375.63 288.008 376.305 288.36 377.333 288.037C377.333 288.037 377.847 287.876 378.875 287.553C378.552 286.525 378.904 285.85 379.932 285.527C380.96 285.204 381.635 285.556 381.958 286.584C382.281 287.612 382.442 288.126 382.442 288.126C382.442 288.126 382.956 287.964 383.984 287.641C383.984 287.641 383.823 287.128 383.5 286.1C384.527 285.777 384.88 285.102 384.557 284.074C384.557 284.074 385.071 283.912 386.099 283.589C386.422 284.617 386.583 285.131 386.583 285.131C387.934 285.836 388.609 286.188 388.609 286.188C389.637 285.866 390.151 285.704 390.151 285.704C389.828 284.676 390.18 284.001 391.208 283.678C392.236 283.355 392.911 283.708 393.234 284.735C393.557 285.763 394.232 286.116 395.26 285.793C395.26 285.793 395.612 285.117 396.317 283.767C396.317 283.767 396.831 283.605 397.859 283.282C398.887 282.959 399.562 283.312 399.885 284.34C399.885 284.34 400.399 284.178 401.427 283.855C401.427 283.855 401.941 283.694 402.968 283.371C402.645 282.343 402.998 281.668 404.026 281.345C405.053 281.022 405.729 281.375 406.052 282.402C406.375 283.43 406.536 283.944 406.536 283.944C407.564 283.621 407.916 282.946 407.593 281.918C408.621 281.595 409.649 281.272 410.677 280.949C410.677 280.949 410.163 281.111 409.135 281.434C409.135 281.434 409.296 281.948 409.619 282.975C408.592 283.298 408.078 283.46 408.078 283.46Z" fill="#06273F"/>
</g>
<defs>
<clipPath id="clip0_1936_39834">
<rect width="807.976" height="807.976" fill="white" transform="translate(0 -55.8303) rotate(-17.441)"/>
</clipPath>
</defs>
</svg>
