<svg width="352" height="302" viewBox="0 0 352 302" fill="none" xmlns="http://www.w3.org/2000/svg">
<g opacity="0.05">
<mask id="mask0_1936_39729" style="mask-type:luminance" maskUnits="userSpaceOnUse" x="-142" y="-65" width="494" height="526">
<path d="M116.394 460.469L-141.999 107.183L93.418 -65L351.811 288.285L116.394 460.469Z" fill="white"/>
</mask>
<g mask="url(#mask0_1936_39729)">
<path d="M90.3517 35.7877C90.3043 36.0935 90.3884 36.3771 90.5529 36.6019C90.7173 36.8267 90.962 36.9928 91.2679 37.0403C91.8517 37.1308 92.4138 36.7198 92.5204 36.1241L93.3443 30.8137L98.6387 31.6492C99.2386 31.7281 99.8007 31.317 99.8912 30.7331C99.9861 30.1214 99.5751 29.5594 98.9751 29.4806L93.6646 28.6567L94.4885 23.3462C94.5951 22.7506 94.184 22.1886 93.5724 22.0937C92.9885 22.0031 92.4264 22.4142 92.3198 23.0098L91.512 28.3085L86.2015 27.4847C85.6016 27.4059 85.0396 27.8169 84.949 28.4008C84.9015 28.7067 84.9857 28.9902 85.1501 29.215C85.3145 29.4398 85.5593 29.6059 85.8651 29.6534L91.1756 30.4772L90.3517 35.7877Z" fill="black"/>
<path d="M19.2703 72.4948C19.3491 71.8949 18.938 71.3329 18.3541 71.2423L15.2123 70.7549L15.6997 67.6131C15.7903 67.0292 15.3792 66.4672 14.7836 66.3605C14.1837 66.2817 13.6217 66.6928 13.5311 67.2766L13.0437 70.4184L9.90186 69.931C9.31799 69.8405 8.75594 70.2515 8.6493 70.8472C8.61792 71.1412 8.686 71.4365 8.85043 71.6613C9.01486 71.8862 9.28739 72.0566 9.56542 72.0997L12.7072 72.5871L12.2198 75.7289C12.1884 76.023 12.2565 76.3183 12.421 76.5431C12.5854 76.7679 12.8462 76.9223 13.1359 76.9815C13.7359 77.0603 14.2979 76.6492 14.3885 76.0654L14.8759 72.9236L18.0177 73.411C18.6016 73.5015 19.1636 73.0905 19.2703 72.4948Z" fill="black"/>
<path d="M144.497 137.72C144.592 137.108 144.193 136.562 143.581 136.468L140.44 135.98L140.939 132.854C141.034 132.243 140.623 131.681 140.023 131.602C139.427 131.495 138.865 131.906 138.77 132.518L138.283 135.66L135.157 135.161C134.545 135.066 133.983 135.477 133.904 136.077C133.845 136.366 133.941 136.666 134.105 136.891C134.27 137.116 134.515 137.282 134.82 137.329L137.95 137.801L137.463 140.942C137.416 141.248 137.5 141.532 137.664 141.757C137.829 141.981 138.073 142.148 138.379 142.195C138.963 142.286 139.525 141.874 139.632 141.279L140.103 138.149L143.245 138.636C143.845 138.715 144.407 138.304 144.497 137.72Z" fill="black"/>
<path d="M169.275 76.8314C169.244 77.1255 169.312 77.4207 169.476 77.6456C169.641 77.8704 169.902 78.0247 170.191 78.0839L173.333 78.5713L172.834 81.6971C172.803 81.9912 172.871 82.2865 173.035 82.5113C173.2 82.7361 173.46 82.8904 173.75 82.9496C174.362 83.0445 174.924 82.6334 175.003 82.0335L175.49 78.8917L178.632 79.3791C179.228 79.4857 179.79 79.0747 179.885 78.463C179.975 77.8791 179.564 77.3171 178.968 77.2104L175.838 76.7391L176.326 73.5973C176.405 72.9973 175.993 72.4353 175.41 72.3447C174.798 72.2498 174.236 72.6609 174.157 73.2608L173.67 76.4026L170.528 75.9152C169.932 75.8086 169.37 76.2197 169.275 76.8314Z" fill="black"/>
<path d="M57.713 67.1268C57.6816 67.4209 57.7497 67.7161 57.9141 67.941C58.0785 68.1658 58.3393 68.3201 58.6291 68.3793C59.229 68.4581 59.7911 68.0471 59.8817 67.4632L60.3691 64.3214L63.5109 64.8088C64.0947 64.8994 64.6568 64.4883 64.7634 63.8927C64.854 63.3088 64.4429 62.7468 63.8473 62.6401L60.7055 62.1527L61.2047 59.027C61.2835 58.427 60.8724 57.865 60.2885 57.7744C59.6769 57.6795 59.1148 58.0906 59.036 58.6905L58.5486 61.8323L55.4068 61.3449C54.8112 61.2383 54.2491 61.6494 54.1542 62.2611C54.1228 62.5551 54.1909 62.8504 54.3553 63.0753C54.5198 63.3001 54.7805 63.4544 55.0703 63.5136L58.2004 63.9849L57.713 67.1268Z" fill="black"/>
<path d="M28.4355 38.824L23.6002 41.1774L21.2468 36.3421C20.9747 35.8017 20.3247 35.5869 19.7842 35.859C19.232 36.115 19.0173 36.765 19.2733 37.3172L21.6427 42.1408L16.8074 44.4942C16.2669 44.7663 16.0522 45.4163 16.3082 45.9685C16.3367 46.0299 16.3665 46.082 16.3978 46.1248C16.715 46.5584 17.2902 46.7046 17.7825 46.4677L22.59 44.11L24.9595 48.9336C24.9879 48.9949 25.0178 49.047 25.0491 49.0899C25.3662 49.5234 25.9415 49.6696 26.4177 49.4445C26.9582 49.1725 27.189 48.5107 26.9169 47.9702L24.5635 43.1349L29.3828 40.7933C29.9233 40.5212 30.1541 39.8594 29.882 39.3189C29.6378 38.7828 28.976 38.552 28.4355 38.824Z" fill="black"/>
<path fill-rule="evenodd" clip-rule="evenodd" d="M52.9118 22.7472C49.6841 25.1079 45.1243 24.4006 42.7635 21.1728C40.391 17.929 41.1101 13.3853 44.3379 11.0245C47.5656 8.66375 52.1137 9.35507 54.4862 12.5989C56.847 15.8266 56.1396 20.3864 52.9118 22.7472ZM51.6199 20.9807C53.8841 19.3247 54.3641 16.139 52.7198 13.8908C51.0637 11.6266 47.8941 11.1349 45.6299 12.7909C43.3656 14.447 42.8739 17.6166 44.53 19.8809C46.1743 22.129 49.3556 22.6368 51.6199 20.9807Z" fill="black"/>
<path d="M103.246 116.202C102.927 116.608 102.928 117.149 103.222 117.55C103.269 117.615 103.33 117.676 103.406 117.736C103.871 118.135 104.553 118.056 104.936 117.603C107.108 114.979 110.407 113.355 113.799 113.24C117.174 113.138 120.6 114.552 122.922 117.019C123.322 117.465 124.019 117.474 124.453 117.057C124.9 116.657 124.908 115.96 124.508 115.514C121.757 112.596 117.73 110.932 113.726 111.051C109.717 111.198 105.818 113.113 103.246 116.202Z" fill="black"/>
<path d="M14.8196 17.6776C12.0691 14.7595 8.04211 13.0955 4.03747 13.2146C0.0167637 13.3453 -3.88211 15.2603 -6.44231 18.3653C-6.75724 18.7435 -6.76009 19.3125 -6.47821 19.6979C-6.4234 19.7729 -6.35789 19.84 -6.28167 19.8993C-5.82865 20.2827 -5.13548 20.2194 -4.73595 19.7547C-2.5796 17.1423 0.718877 15.5185 4.11065 15.4041C7.48636 15.3014 10.8998 16.6993 13.2219 19.1665C13.6224 19.6131 14.3305 19.6375 14.7652 19.2209C15.2 18.8043 15.2201 18.1241 14.8196 17.6776Z" fill="black"/>
<path d="M35.4007 87.3404C35.4143 87.5276 35.4879 87.6956 35.5819 87.824C35.8168 88.1452 36.2166 88.3211 36.6392 88.2585C39.9962 87.7258 43.5459 88.7036 46.1423 90.8717C48.7664 93.0441 50.3741 96.3544 50.4768 99.7301C50.4974 100.331 51.0049 100.823 51.606 100.802C52.2071 100.781 52.6826 100.286 52.662 99.6847C52.543 95.68 50.6323 91.7534 47.5551 89.1975C44.4662 86.6255 40.2739 85.4769 36.3071 86.0858C35.7091 86.1781 35.2923 86.7541 35.4007 87.3404Z" fill="black"/>
<path d="M124.122 160.213C124.217 159.602 123.806 159.04 123.206 158.961L117.895 158.137L118.719 152.826C118.826 152.231 118.415 151.669 117.803 151.574C117.219 151.483 116.657 151.894 116.55 152.49L115.742 157.789L110.432 156.965C109.832 156.886 109.27 157.297 109.179 157.881C109.132 158.187 109.216 158.47 109.381 158.695C109.545 158.92 109.79 159.086 110.096 159.134L115.406 159.957L114.582 165.268C114.535 165.574 114.619 165.857 114.783 166.082C114.948 166.307 115.192 166.473 115.498 166.52C116.082 166.611 116.644 166.2 116.751 165.604L117.575 160.294L122.869 161.129C123.469 161.208 124.031 160.797 124.122 160.213Z" fill="black"/>
<path d="M122.759 227.169C122.838 226.569 122.427 226.007 121.843 225.917L116.532 225.093L117.356 219.782C117.447 219.198 117.035 218.636 116.44 218.53C115.84 218.451 115.278 218.862 115.187 219.446L114.363 224.756L109.053 223.932C108.469 223.842 107.907 224.253 107.8 224.849C107.769 225.143 107.837 225.438 108.002 225.663C108.166 225.888 108.427 226.042 108.717 226.101L114.027 226.925L113.203 232.235C113.172 232.53 113.24 232.825 113.404 233.05C113.569 233.274 113.83 233.429 114.119 233.488C114.719 233.567 115.281 233.156 115.372 232.572L116.196 227.261L121.506 228.085C122.09 228.176 122.652 227.765 122.759 227.169Z" fill="black"/>
<path d="M126.144 83.6792L128.666 88.4409L123.92 90.9506C123.391 91.2387 123.188 91.9048 123.476 92.4336C123.497 92.4842 123.523 92.5309 123.554 92.5738C123.871 93.0073 124.463 93.1418 124.943 92.8889L129.705 90.3675L132.215 95.1132C132.246 95.156 132.277 95.1988 132.309 95.2416C132.626 95.6752 133.201 95.8214 133.698 95.5568C134.226 95.2686 134.429 94.6025 134.141 94.0738L131.615 89.3399L136.377 86.8185C136.906 86.5304 137.109 85.8643 136.821 85.3355C136.533 84.8068 135.867 84.6038 135.338 84.8919L130.592 87.4016L128.066 82.6677C127.794 82.1272 127.128 81.9242 126.6 82.2123C126.059 82.4844 125.856 83.1505 126.144 83.6792Z" fill="black"/>
<path d="M51.1474 177.451L48.8058 172.631L53.6133 170.274C54.1538 170.002 54.3963 169.356 54.1242 168.815C53.8682 168.263 53.2064 168.032 52.666 168.304L47.8307 170.658L45.489 165.839C45.2169 165.298 44.5552 165.067 44.0147 165.339C43.4625 165.595 43.2477 166.245 43.5037 166.798L45.8732 171.621L41.0379 173.975C40.4974 174.247 40.2827 174.897 40.5387 175.449C40.5671 175.51 40.6009 175.568 40.6401 175.621C40.9454 176.039 41.5207 176.185 42.013 175.948L46.8205 173.59L49.1899 178.414C49.2184 178.475 49.2522 178.533 49.2913 178.586C49.5967 179.004 50.172 179.15 50.6482 178.925C51.1887 178.653 51.4195 177.991 51.1474 177.451Z" fill="black"/>
<path fill-rule="evenodd" clip-rule="evenodd" d="M72.615 132.32C69.3872 134.681 64.8274 133.974 62.4667 130.746C60.0941 127.502 60.8133 122.958 64.041 120.598C67.2848 118.225 71.8168 118.928 74.1893 122.172C76.5501 125.4 75.8588 129.948 72.615 132.32ZM71.323 130.554C73.5872 128.898 74.0672 125.712 72.4229 123.464C70.7668 121.2 67.5972 120.708 65.333 122.364C63.0848 124.008 62.577 127.19 64.2331 129.454C65.8774 131.702 69.0748 132.198 71.323 130.554Z" fill="black"/>
<path fill-rule="evenodd" clip-rule="evenodd" d="M99.6073 71.0203C101.98 74.2641 101.272 78.8238 98.0447 81.1846C94.8169 83.5454 90.2571 82.838 87.8846 79.5942C85.5239 76.3665 86.2312 71.8067 89.459 69.4459C92.6867 67.0851 97.2465 67.7925 99.6073 71.0203ZM97.8409 72.3122C96.1965 70.064 93.0152 69.5563 90.7509 71.2123C88.4867 72.8684 88.0067 76.0541 89.6511 78.3022C91.3071 80.5665 94.4885 81.0743 96.7527 79.4182C99.0169 77.7621 99.4969 74.5765 97.8409 72.3122Z" fill="black"/>
<path fill-rule="evenodd" clip-rule="evenodd" d="M111.347 -3.10896C116.068 -6.56203 122.729 -5.54289 126.194 -0.805653C129.659 3.93158 128.623 10.6044 123.902 14.0575C119.165 17.5223 112.492 16.4871 109.027 11.7499C105.563 7.01265 106.609 0.355847 111.347 -3.10896ZM112.639 -1.34254C108.881 1.40582 108.045 6.70025 110.794 10.4579C113.542 14.2156 118.853 15.0394 122.61 12.2911C126.368 9.54272 127.176 4.24398 124.427 0.48631C121.679 -3.27136 116.396 -4.0909 112.639 -1.34254Z" fill="black"/>
<path fill-rule="evenodd" clip-rule="evenodd" d="M76.3142 232.99C73.0864 235.351 68.5384 234.66 66.1659 231.416C63.8051 228.188 64.5125 223.628 67.7402 221.267C70.984 218.895 75.5278 219.614 77.8885 222.842C80.261 226.086 79.558 230.618 76.3142 232.99ZM75.0222 231.224C77.2864 229.568 77.7782 226.398 76.1221 224.134C74.4778 221.886 71.2964 221.378 69.0322 223.034C66.784 224.678 66.288 227.876 67.9323 230.124C69.5884 232.388 72.774 232.868 75.0222 231.224Z" fill="black"/>
<path fill-rule="evenodd" clip-rule="evenodd" d="M13.5249 99.0515C15.9658 97.2662 19.4134 97.8011 21.1987 100.242C22.9722 102.667 22.4373 106.114 19.9965 107.9C17.5716 109.673 14.124 109.138 12.3505 106.714C10.5652 104.273 11.1001 100.825 13.5249 99.0515ZM14.8169 100.818C13.3555 101.887 13.0481 103.96 14.1169 105.422C15.1857 106.883 17.2432 107.202 18.7045 106.133C20.1819 105.053 20.5011 102.995 19.4323 101.534C18.3635 100.073 16.2942 99.7373 14.8169 100.818Z" fill="black"/>
<path d="M137.36 42.5679C137.47 42.7178 137.589 42.8691 137.717 43.0219C138.129 43.4844 138.805 43.5323 139.267 43.1201C139.714 42.7195 139.762 42.0436 139.366 41.5693C138.286 40.3625 137.914 38.5395 138.342 36.6982C138.77 34.857 139.921 33.3984 141.441 32.78C142.001 32.5679 142.271 31.9265 142.031 31.3625C141.819 30.8028 141.178 30.5325 140.602 30.7564C138.458 31.6339 136.807 33.6555 136.199 36.195C135.67 38.5046 136.092 40.8336 137.36 42.5679Z" fill="black"/>
<path d="M147.622 51.4062C149.532 54.0515 150.017 57.7143 148.847 60.7644C147.692 63.8026 144.881 66.2281 141.686 66.914C141.111 67.0384 140.722 67.6187 140.858 68.2093C140.891 68.3662 140.95 68.5035 141.036 68.6213C141.283 68.9585 141.722 69.1548 142.165 69.0527C146.099 68.1966 149.448 65.3279 150.903 61.5531C152.329 57.7739 151.768 53.4019 149.4 50.1303C149.036 49.6325 148.369 49.5289 147.887 49.8813C147.378 50.2293 147.27 50.9244 147.622 51.4062Z" fill="black"/>
<path d="M161.196 108.72C158.88 111.351 156.665 112.601 154.602 112.41C154.002 112.331 153.463 112.774 153.412 113.378C153.381 113.672 153.469 113.928 153.622 114.137C153.798 114.378 154.071 114.548 154.393 114.584C157.199 114.848 160.034 113.366 162.838 110.157C163.201 109.743 163.569 109.302 163.92 108.872C165.458 107.033 166.908 105.307 168.884 104.404C170.184 103.822 171.871 103.87 173.125 104.506C173.69 104.807 174.4 105.373 174.579 106.326C174.688 106.913 175.252 107.313 175.854 107.193C176.441 107.085 176.841 106.521 176.721 105.918C176.472 104.499 175.531 103.313 174.135 102.584C172.292 101.615 169.881 101.554 167.997 102.415C165.548 103.516 163.869 105.533 162.241 107.487C161.894 107.889 161.543 108.319 161.196 108.72Z" fill="black"/>
<path d="M163.127 138.389C162.585 138.12 161.938 138.347 161.668 138.889C161.481 139.273 161.543 139.695 161.778 140.017C161.872 140.145 162.01 140.266 162.18 140.364C166.619 142.49 172.451 140.69 174.905 136.43C175.202 135.892 175.019 135.237 174.498 134.929C173.976 134.62 173.305 134.815 172.997 135.336C171.139 138.593 166.518 140.026 163.127 138.389Z" fill="black"/>
<path d="M152.663 156.839C153.246 157.029 153.863 156.726 154.064 156.16C154.254 155.577 153.951 154.961 153.369 154.77C146.568 152.448 138.284 156.018 135.293 162.544C135.133 162.932 135.184 163.338 135.419 163.66C135.524 163.804 135.662 163.925 135.836 163.995C136.394 164.252 137.03 164.009 137.287 163.451C139.829 157.895 146.877 154.86 152.663 156.839Z" fill="black"/>
<path d="M96.2661 204.694C95.8517 205.071 95.7964 205.703 96.1252 206.153C96.1409 206.174 96.1605 206.201 96.1839 206.233C96.6123 206.684 97.3042 206.72 97.739 206.303L105.661 199.105C107.499 197.439 109.773 195.358 112.412 194.956C113.739 194.749 115.262 195.213 116.29 196.112C116.778 196.544 117.334 197.271 117.306 198.277C117.283 198.886 117.763 199.373 118.355 199.408C118.964 199.431 119.479 198.956 119.502 198.348C119.555 196.904 118.915 195.523 117.726 194.47C116.226 193.127 114.061 192.492 112.064 192.795C108.794 193.312 106.244 195.622 104.204 197.483L96.2661 204.694Z" fill="black"/>
<path d="M91.2706 166.222C91.8415 166.396 92.458 166.093 92.648 165.51C93.1312 164.047 92.8475 162.48 91.8696 161.075C90.6963 159.37 88.7318 158.268 86.7232 158.184C83.9071 158.075 80.949 159.524 78.1731 162.367C75.3929 165.239 73.2375 168.763 71.9503 172.563C71.8269 172.9 71.8981 173.267 72.1095 173.556C72.2387 173.733 72.4161 173.874 72.6342 173.936C73.2008 174.138 73.8172 173.835 74.019 173.269C75.2032 169.765 77.1838 166.542 79.7424 163.906C81.3702 162.223 83.8809 160.263 86.6253 160.376C87.9419 160.423 89.2896 161.188 90.0797 162.335C90.4203 162.801 90.926 163.762 90.5749 164.832C90.3849 165.415 90.6879 166.031 91.2706 166.222Z" fill="black"/>
<path d="M35.9297 141.947C36.4819 141.691 36.7245 141.046 36.4685 140.493C34.4705 136.211 29.9512 133.133 25.2272 132.841C22.5909 132.674 20.0606 133.293 17.618 133.896C16.5246 134.153 15.399 134.434 14.2864 134.632C12.396 134.979 7.68288 135.444 5.30678 132.499C4.92231 132.04 4.23897 131.949 3.76465 132.345C3.3107 132.701 3.23498 133.373 3.57559 133.839C3.58342 133.849 3.59517 133.865 3.61083 133.887C5.81075 136.591 9.83317 137.643 14.6784 136.785C15.8348 136.58 17.0042 136.292 18.1298 136.011C20.5403 135.431 22.7914 134.869 25.0897 135.012C29.0383 135.255 32.8235 137.835 34.4875 141.425C34.7318 141.961 35.3892 142.219 35.9297 141.947Z" fill="black"/>
<path d="M222.358 169.631C222.413 169.705 222.469 169.771 222.526 169.828C223.007 170.215 223.7 170.152 224.072 169.683C226.229 167.071 229.555 165.451 232.931 165.348C236.322 165.234 239.72 166.644 242.042 169.111C242.458 169.546 243.155 169.554 243.601 169.154C244.036 168.737 244.044 168.041 243.644 167.594C240.893 164.676 236.866 163.012 232.857 163.159C228.853 163.278 224.938 165.205 222.394 168.298C222.063 168.688 222.064 169.229 222.358 169.631Z" fill="black"/>
<path d="M228.329 209.977C228.27 210.267 228.366 210.566 228.53 210.791C228.695 211.016 228.939 211.182 229.234 211.214L234.544 212.037L233.72 217.348C233.673 217.654 233.757 217.937 233.921 218.162C234.086 218.387 234.33 218.553 234.636 218.6C235.22 218.691 235.782 218.28 235.873 217.696L236.697 212.386L242.007 213.209C242.607 213.288 243.169 212.877 243.26 212.293C243.35 211.709 242.939 211.147 242.344 211.041L237.033 210.217L237.857 204.906C237.948 204.323 237.536 203.761 236.953 203.67C236.357 203.563 235.795 203.974 235.7 204.586L234.876 209.897L229.566 209.073C228.97 208.966 228.408 209.377 228.329 209.977Z" fill="black"/>
<path d="M152.029 252.423C151.998 252.717 152.066 253.013 152.23 253.238C152.395 253.462 152.656 253.617 152.945 253.676L156.087 254.163L155.588 257.289C155.557 257.583 155.625 257.879 155.789 258.103C155.954 258.328 156.214 258.482 156.504 258.542C157.116 258.637 157.678 258.225 157.757 257.626L158.244 254.484L161.386 254.971C161.981 255.078 162.544 254.667 162.638 254.055C162.729 253.471 162.318 252.909 161.722 252.802L158.592 252.331L159.08 249.189C159.158 248.589 158.747 248.027 158.164 247.937C157.552 247.842 156.99 248.253 156.911 248.853L156.424 251.995L153.282 251.507C152.686 251.401 152.124 251.812 152.029 252.423Z" fill="black"/>
<path d="M116.54 295.806C116.493 296.111 116.577 296.395 116.741 296.62C116.906 296.845 117.15 297.011 117.456 297.058C118.04 297.149 118.602 296.738 118.693 296.154L120.923 281.779L135.281 284.021C135.881 284.1 136.427 283.7 136.534 283.105C136.613 282.505 136.201 281.943 135.618 281.852L121.271 279.627L123.485 265.264C123.575 264.68 123.164 264.118 122.569 264.011C121.969 263.933 121.423 264.332 121.316 264.928L119.102 279.29L104.728 277.06C104.144 276.97 103.582 277.381 103.491 277.965C103.444 278.27 103.528 278.554 103.692 278.779C103.857 279.004 104.113 279.186 104.407 279.217L118.766 281.459L116.54 295.806Z" fill="black"/>
<path d="M336.186 286.944C336.139 287.25 336.223 287.533 336.387 287.758C336.552 287.983 336.797 288.149 337.102 288.196L351.449 290.422L349.235 304.785C349.176 305.075 349.272 305.374 349.436 305.599C349.601 305.824 349.845 305.99 350.14 306.021C350.735 306.128 351.297 305.717 351.392 305.105L353.618 290.759L367.964 292.984C368.576 293.079 369.138 292.668 369.217 292.068C369.324 291.472 368.913 290.91 368.313 290.832L353.954 288.59L356.18 274.243C356.287 273.648 355.875 273.086 355.264 272.991C354.68 272.9 354.118 273.311 354.011 273.907L351.797 288.269L337.439 286.028C336.839 285.949 336.277 286.36 336.186 286.944Z" fill="black"/>
<path d="M204.087 243.729L204.559 240.599C204.665 240.004 204.254 239.442 203.643 239.347C203.059 239.256 202.497 239.667 202.406 240.251L201.919 243.393L198.777 242.905C198.193 242.815 197.631 243.226 197.524 243.822C197.493 244.116 197.561 244.411 197.726 244.636C197.89 244.861 198.151 245.015 198.441 245.074L201.582 245.561L201.095 248.703C201.052 248.981 201.12 249.277 201.296 249.517C201.46 249.742 201.721 249.897 201.999 249.94C202.611 250.035 203.173 249.624 203.252 249.024L203.751 245.898L206.881 246.369C207.477 246.476 208.039 246.065 208.118 245.465C208.224 244.869 207.813 244.307 207.213 244.228L204.087 243.729Z" fill="black"/>
<path d="M168.327 230.494C168.356 230.555 168.39 230.613 168.429 230.666C168.734 231.084 169.31 231.23 169.786 231.005C170.326 230.733 170.557 230.071 170.297 229.547L167.943 224.711L172.751 222.354C173.303 222.098 173.534 221.436 173.262 220.895C172.99 220.355 172.344 220.112 171.804 220.384L166.98 222.754L164.61 217.93C164.354 217.378 163.693 217.147 163.152 217.419C162.612 217.691 162.397 218.342 162.641 218.878L165.011 223.701L160.187 226.071C159.635 226.327 159.404 226.988 159.676 227.529C159.705 227.59 159.738 227.648 159.778 227.701C160.083 228.119 160.658 228.265 161.151 228.028L165.958 225.67L168.327 230.494Z" fill="black"/>
<path fill-rule="evenodd" clip-rule="evenodd" d="M187.705 192.585C190.933 190.224 195.493 190.931 197.853 194.159C200.214 197.387 199.507 201.947 196.279 204.307C193.051 206.668 188.491 205.961 186.131 202.733C183.77 199.505 184.477 194.946 187.705 192.585ZM188.997 194.351C186.733 196.007 186.241 199.177 187.897 201.441C189.553 203.705 192.723 204.197 194.987 202.541C197.251 200.885 197.743 197.715 196.087 195.451C194.431 193.187 191.261 192.695 188.997 194.351Z" fill="black"/>
<path fill-rule="evenodd" clip-rule="evenodd" d="M203.692 85.7725C209.184 81.7556 216.914 82.9547 220.93 88.4467C224.947 93.9387 223.736 101.652 218.244 105.669C212.752 109.686 205.035 108.503 201.018 103.011C197.001 97.5187 198.2 89.7893 203.692 85.7725ZM204.984 87.5389C200.472 90.8393 199.484 97.2063 202.784 101.719C206.085 106.231 212.44 107.203 216.952 103.902C221.465 100.602 222.464 94.2511 219.164 89.7387C215.864 85.2263 209.497 84.2385 204.984 87.5389Z" fill="black"/>
<path d="M246.624 297.778C246.293 298.168 246.306 298.725 246.588 299.111C246.643 299.186 246.703 299.257 246.769 299.324C247.238 299.696 247.931 299.632 248.303 299.163C250.459 296.551 253.785 294.931 257.161 294.829C260.553 294.714 263.95 296.124 266.272 298.591C266.689 299.026 267.397 299.05 267.832 298.634C268.266 298.217 268.287 297.537 267.874 297.074C265.136 294.172 261.109 292.508 257.088 292.639C253.083 292.758 249.168 294.685 246.624 297.778Z" fill="black"/>
<path d="M147.389 194.787C143.396 194.922 139.481 196.849 136.925 199.926C136.606 200.332 136.608 200.873 136.901 201.274C136.948 201.339 137.005 201.404 137.07 201.471C137.551 201.859 138.232 201.78 138.616 201.327C140.772 198.714 144.087 197.079 147.462 196.976C150.854 196.862 154.263 198.288 156.585 200.755C157.002 201.19 157.698 201.198 158.133 200.781C158.58 200.381 158.588 199.685 158.187 199.238C155.437 196.32 151.41 194.656 147.389 194.787Z" fill="black"/>
<path d="M194.975 282.363C195.576 282.342 196.052 281.846 196.031 281.245C195.912 277.24 194.002 273.314 190.925 270.758C187.847 268.202 183.627 267.049 179.672 267.674C179.074 267.766 178.662 268.315 178.766 268.929C178.795 269.104 178.857 269.256 178.963 269.401C179.198 269.722 179.598 269.898 180.02 269.835C183.361 269.314 186.927 270.28 189.523 272.448C192.136 274.605 193.743 277.915 193.858 281.307C193.863 281.919 194.374 282.383 194.975 282.363Z" fill="black"/>
<path d="M269.508 265.267L272.034 270.001L267.3 272.527C266.759 272.799 266.556 273.465 266.845 273.994C266.865 274.044 266.891 274.091 266.922 274.134C267.24 274.567 267.843 274.718 268.323 274.465L273.057 271.939L275.583 276.673C275.603 276.724 275.629 276.771 275.661 276.813C275.978 277.247 276.569 277.381 277.066 277.117C277.606 276.845 277.809 276.179 277.521 275.65L274.995 270.916L279.729 268.39C280.258 268.102 280.461 267.436 280.189 266.896C279.901 266.367 279.235 266.164 278.706 266.452L273.972 268.978L271.446 264.244C271.163 263.687 270.508 263.5 269.968 263.772C269.439 264.06 269.236 264.727 269.508 265.267Z" fill="black"/>
<path fill-rule="evenodd" clip-rule="evenodd" d="M205.834 312.306C203.473 309.078 204.18 304.519 207.408 302.158C210.636 299.797 215.196 300.504 217.557 303.732C219.929 306.976 219.21 311.52 215.982 313.88C212.754 316.241 208.206 315.55 205.834 312.306ZM207.6 311.014C209.256 313.278 212.426 313.77 214.69 312.114C216.954 310.458 217.446 307.288 215.79 305.024C214.146 302.776 210.964 302.268 208.7 303.924C206.436 305.58 205.956 308.766 207.6 311.014Z" fill="black"/>
<path fill-rule="evenodd" clip-rule="evenodd" d="M242.986 252.597C245.347 255.824 244.64 260.384 241.412 262.745C238.184 265.106 233.624 264.398 231.264 261.171C228.903 257.943 229.61 253.383 232.838 251.022C236.066 248.662 240.625 249.369 242.986 252.597ZM241.22 253.889C239.564 251.624 236.394 251.133 234.13 252.789C231.866 254.445 231.374 257.614 233.03 259.879C234.686 262.143 237.856 262.635 240.12 260.979C242.384 259.322 242.876 256.153 241.22 253.889Z" fill="black"/>
<path fill-rule="evenodd" clip-rule="evenodd" d="M163.368 289.46C160.927 291.245 157.507 290.715 155.722 288.274C153.936 285.833 154.467 282.413 156.908 280.628C159.349 278.843 162.784 279.361 164.57 281.802C166.355 284.243 165.808 287.675 163.368 289.46ZM162.076 287.694C163.537 286.625 163.872 284.556 162.803 283.094C161.735 281.633 159.661 281.326 158.2 282.394C156.738 283.463 156.419 285.521 157.488 286.982C158.557 288.443 160.614 288.762 162.076 287.694Z" fill="black"/>
<path fill-rule="evenodd" clip-rule="evenodd" d="M190.345 158.315C192.786 156.53 196.234 157.064 198.007 159.489C199.793 161.93 199.258 165.378 196.817 167.163C194.392 168.937 190.944 168.402 189.159 165.961C187.386 163.536 187.92 160.088 190.345 158.315ZM191.637 160.081C190.176 161.15 189.857 163.208 190.925 164.669C192.006 166.146 194.063 166.465 195.525 165.397C197.002 164.316 197.321 162.259 196.241 160.781C195.172 159.32 193.115 159.001 191.637 160.081Z" fill="black"/>
<path fill-rule="evenodd" clip-rule="evenodd" d="M258.986 193.051C261.427 191.266 264.847 191.796 266.632 194.237C268.418 196.678 267.887 200.098 265.446 201.883C263.005 203.668 259.585 203.138 257.8 200.697C256.015 198.256 256.545 194.836 258.986 193.051ZM260.278 194.817C258.817 195.886 258.498 197.944 259.567 199.405C260.635 200.866 262.693 201.185 264.154 200.117C265.615 199.048 265.935 196.99 264.866 195.529C263.797 194.068 261.74 193.749 260.278 194.817Z" fill="black"/>
<path fill-rule="evenodd" clip-rule="evenodd" d="M194.874 121.676C196.66 124.117 196.141 127.553 193.7 129.338C191.259 131.123 187.828 130.577 186.042 128.136C184.257 125.695 184.788 122.275 187.228 120.49C189.669 118.704 193.089 119.235 194.874 121.676ZM193.108 122.968C192.039 121.506 189.982 121.187 188.52 122.256C187.059 123.325 186.74 125.382 187.809 126.844C188.878 128.305 190.947 128.64 192.408 127.571C193.869 126.503 194.177 124.429 193.108 122.968Z" fill="black"/>
<path d="M280.712 224.14C280.83 224.3 280.958 224.453 281.097 224.598C281.497 225.045 282.173 225.092 282.647 224.696C283.094 224.296 283.13 223.604 282.729 223.157C281.654 221.923 281.282 220.1 281.71 218.258C282.15 216.433 283.301 214.975 284.821 214.356C285.369 214.128 285.639 213.487 285.411 212.939C285.187 212.363 284.546 212.093 283.982 212.333C281.81 213.206 280.17 215.243 279.579 217.771C279.022 220.076 279.455 222.422 280.712 224.14Z" fill="black"/>
<path d="M221.128 150.121C221.246 150.281 221.369 150.438 221.497 150.591C221.897 151.037 222.589 151.073 223.048 150.689C223.494 150.288 223.53 149.597 223.146 149.138C222.066 147.931 221.682 146.092 222.11 144.251C222.55 142.426 223.718 140.956 225.221 140.349C225.769 140.121 226.039 139.479 225.827 138.92C225.587 138.356 224.946 138.085 224.398 138.314C222.227 139.187 220.587 141.224 219.995 143.752C219.438 146.058 219.872 148.403 221.128 150.121Z" fill="black"/>
<path d="M291.001 232.982C292.899 235.612 293.396 239.29 292.225 242.341C291.055 245.391 288.248 247.788 285.064 248.49C284.462 248.61 284.101 249.195 284.237 249.785C284.27 249.942 284.329 250.08 284.415 250.197C284.662 250.535 285.089 250.715 285.532 250.613C289.466 249.757 292.815 246.888 294.269 243.113C295.707 239.35 295.135 234.962 292.767 231.69C292.415 231.209 291.736 231.089 291.238 231.453C290.756 231.805 290.637 232.484 291.001 232.982Z" fill="black"/>
<path d="M311.347 283.987C308.914 285.076 307.234 287.093 305.607 289.048C305.26 289.449 304.909 289.879 304.562 290.281C302.258 292.927 300.03 294.162 297.967 293.97C297.379 293.907 296.841 294.35 296.79 294.954C296.747 295.233 296.835 295.488 296.988 295.697C297.164 295.938 297.436 296.108 297.758 296.144C300.565 296.409 303.4 294.926 306.204 291.717C306.567 291.303 306.934 290.862 307.281 290.46C308.836 288.609 310.273 286.867 312.262 285.98C313.534 285.394 315.249 285.447 316.486 286.094C317.068 286.384 317.766 286.933 317.945 287.887C318.065 288.489 318.618 288.874 319.232 288.77C319.818 288.661 320.207 288.081 320.099 287.495C319.821 286.071 318.908 284.89 317.501 284.145C315.67 283.191 313.259 283.131 311.347 283.987Z" fill="black"/>
<path d="M179.846 322.07C177.837 317.772 173.317 314.693 168.593 314.401C165.957 314.235 163.427 314.853 160.984 315.456C159.886 315.741 158.749 316.006 157.664 316.208C155.762 316.539 151.061 317.02 148.685 314.075C148.289 313.6 147.601 313.536 147.131 313.905C146.689 314.278 146.601 314.933 146.942 315.399C146.957 315.42 146.969 315.436 146.977 315.447C149.161 318.163 153.211 319.219 158.056 318.362C159.213 318.157 160.382 317.868 161.508 317.587C163.89 317.003 166.169 316.446 168.468 316.589C172.416 316.831 176.19 319.395 177.854 322.985C178.11 323.537 178.755 323.779 179.308 323.523C179.86 323.267 180.091 322.606 179.846 322.07Z" fill="black"/>
<path d="M-11.965 55.7047C-11.8042 56.2279 -11.6433 56.7512 -11.4942 57.2583C-10.5241 60.6405 -10.6899 63.1773 -11.9669 64.8014C-12.2818 65.1797 -12.2803 65.7209 -11.9867 66.1223C-11.9319 66.1973 -11.8664 66.2644 -11.7901 66.3237C-11.3093 66.7115 -10.6279 66.6321 -10.2562 66.163C-8.50248 63.9437 -8.22144 60.7557 -9.39389 56.6588C-9.53868 56.1238 -9.71127 55.5845 -9.87212 55.0613C-10.5848 52.7726 -11.2591 50.6037 -10.9548 48.4585C-10.7391 47.0683 -9.77899 45.6513 -8.56093 44.9576C-8.00008 44.646 -7.15689 44.3497 -6.24608 44.7188C-5.68377 44.9484 -5.04382 44.6775 -4.83028 44.127C-4.60068 43.5647 -4.87154 42.9247 -5.41779 42.6834C-6.77227 42.1458 -8.25807 42.2712 -9.63239 43.0546C-11.4434 44.0833 -12.7925 46.0807 -13.1117 48.1381C-13.5054 50.7677 -12.7278 53.2801 -11.965 55.7047Z" fill="black"/>
<path d="M1.09427 157.072C-1.65622 154.154 -5.68322 152.49 -9.67612 152.625C-13.6808 152.744 -17.5957 154.671 -20.1516 157.748C-20.4708 158.154 -20.4854 158.707 -20.1918 159.108C-20.1448 159.173 -20.0832 159.234 -20.007 159.294C-19.5422 159.693 -18.8491 159.63 -18.4613 159.149C-16.3049 156.537 -13.0064 154.913 -9.61467 154.799C-6.23896 154.696 -2.81382 156.11 -0.491672 158.577C-0.0750848 159.012 0.605131 159.032 1.0399 158.615C1.48642 158.215 1.51085 157.507 1.09427 157.072Z" fill="black"/>
<path d="M-8.83186 206.826C-8.87931 207.132 -8.79517 207.415 -8.63074 207.64C-8.46631 207.865 -8.22158 208.031 -7.91574 208.079C-7.31581 208.157 -6.76982 207.758 -6.66318 207.162L-5.83934 201.852L-0.528865 202.676C0.0550101 202.766 0.617067 202.355 0.707646 201.771C0.802539 201.16 0.391461 200.598 -0.208472 200.519L-5.5029 199.683L-4.69511 194.385C-4.58847 193.789 -4.99955 193.227 -5.61123 193.132C-6.1951 193.041 -6.75716 193.453 -6.84774 194.036L-7.67158 199.347L-12.9821 198.523C-13.582 198.444 -14.128 198.844 -14.2346 199.439C-14.2821 199.745 -14.1979 200.029 -14.0335 200.253C-13.8691 200.478 -13.6126 200.66 -13.3185 200.692L-8.00803 201.516L-8.83186 206.826Z" fill="black"/>
<path d="M25.3244 286.552C22.5739 283.634 18.5469 281.97 14.554 282.105C10.5494 282.224 6.63445 284.151 4.09032 287.244C3.75933 287.634 3.74472 288.187 4.03835 288.589C4.09316 288.664 4.15476 288.725 4.22315 288.774C4.68792 289.174 5.38107 289.11 5.76886 288.629C7.92521 286.017 11.2355 284.409 14.6272 284.295C18.0029 284.192 21.4163 285.59 23.7385 288.057C24.1551 288.492 24.8353 288.512 25.2818 288.112C25.7166 287.695 25.741 286.987 25.3244 286.552Z" fill="black"/>
<path d="M33.0317 266.151C33.063 266.194 33.0943 266.237 33.1256 266.28C33.4428 266.713 34.0341 266.848 34.5146 266.595C35.0551 266.323 35.2581 265.657 34.97 265.128L32.4485 260.366L37.1942 257.857C37.723 257.569 37.9259 256.903 37.6378 256.374C37.3497 255.845 36.6997 255.63 36.1709 255.918L31.421 258.456L28.8995 253.694C28.6114 253.165 27.9453 252.962 27.4166 253.251C26.8879 253.539 26.6849 254.205 26.973 254.734L29.4827 259.479L24.737 261.989C24.2083 262.277 24.0053 262.943 24.2934 263.472C24.314 263.522 24.34 263.569 24.3713 263.612C24.6884 264.046 25.2797 264.18 25.7763 263.915L30.522 261.406L33.0317 266.151Z" fill="black"/>
<path fill-rule="evenodd" clip-rule="evenodd" d="M-1.13938 252.223C-4.36713 254.584 -8.92691 253.876 -11.2877 250.649C-13.6602 247.405 -12.9411 242.861 -9.71332 240.5C-6.46952 238.128 -1.92148 238.819 0.451032 242.063C2.8118 245.291 2.10442 249.851 -1.13938 252.223ZM-2.43134 250.457C-0.167106 248.801 0.328922 245.603 -1.3154 243.355C-2.97146 241.091 -6.15712 240.611 -8.42136 242.267C-10.6695 243.911 -11.1773 247.092 -9.52125 249.357C-7.87693 251.605 -4.67953 252.101 -2.43134 250.457Z" fill="black"/>
<path fill-rule="evenodd" clip-rule="evenodd" d="M16.4511 182.517C18.876 180.744 22.3118 181.263 24.0971 183.704C25.8824 186.145 25.3358 189.576 22.9109 191.35C20.4701 193.135 17.0342 192.616 15.2489 190.175C13.4636 187.734 14.0102 184.303 16.4511 182.517ZM17.7431 184.284C16.2657 185.364 15.9465 187.422 17.0153 188.883C18.0841 190.345 20.1416 190.664 21.619 189.583C23.0803 188.514 23.3995 186.457 22.3307 184.996C21.2619 183.534 19.2044 183.215 17.7431 184.284Z" fill="black"/>
<path d="M38.1794 213.606C38.2969 213.767 38.4197 213.924 38.5479 214.076C38.9484 214.523 39.6403 214.559 40.0869 214.159C40.5451 213.774 40.5974 213.07 40.1968 212.624C39.1053 211.401 38.7332 209.578 39.1612 207.737C39.5892 205.895 40.7569 204.425 42.2604 203.818C42.8201 203.606 43.0904 202.965 42.8665 202.389C42.6383 201.841 41.9969 201.571 41.449 201.799C39.2777 202.672 37.6377 204.71 37.0345 207.222C36.4893 209.543 36.9227 211.888 38.1794 213.606Z" fill="black"/>
<path d="M50.2319 221.156C49.8796 220.675 49.1845 220.567 48.7027 220.919C48.2049 221.283 48.1014 221.951 48.4537 222.432C50.3639 225.078 50.8331 228.752 49.6624 231.802C48.5077 234.841 45.697 237.266 42.5173 237.94C41.9267 238.076 41.5495 238.673 41.6739 239.247C41.7065 239.404 41.7698 239.547 41.8638 239.675C42.1104 240.012 42.538 240.193 42.981 240.091C46.9309 239.223 50.2802 236.354 51.7181 232.591C53.1722 228.816 52.5841 224.44 50.2319 221.156Z" fill="black"/>
<path d="M55.2094 285.622C58.0157 285.887 60.8669 284.393 63.655 281.195C64.0342 280.77 64.3856 280.34 64.7487 279.927C66.2752 278.071 67.7405 276.334 69.7011 275.442C71.0014 274.861 72.7041 274.897 73.9536 275.561C74.5073 275.846 75.2168 276.411 75.3963 277.365C75.5047 277.951 76.085 278.34 76.6712 278.232C77.2853 278.128 77.6583 277.559 77.5499 276.973C77.2886 275.537 76.3638 274.34 74.9679 273.611C73.1369 272.658 70.7144 272.581 68.8137 273.453C66.3812 274.542 64.6855 276.571 63.0584 278.526C62.7113 278.927 62.36 279.357 62.0129 279.759C59.7089 282.405 57.4816 283.64 55.4347 283.436C54.8304 283.385 54.2919 283.828 54.2291 284.416C54.2138 284.699 54.2862 284.966 54.4389 285.175C54.615 285.416 54.8875 285.586 55.2094 285.622Z" fill="black"/>
<path d="M107.195 315.483C105.213 311.189 100.694 308.11 95.9697 307.819C93.3334 307.652 90.787 308.282 88.3444 308.885C87.251 309.143 86.1254 309.424 85.0128 309.621C83.1224 309.969 78.4093 310.433 76.0332 307.488C75.6648 307.018 74.9771 306.954 74.491 307.334C74.0371 307.691 73.9614 308.362 74.302 308.828C74.3098 308.839 74.3215 308.855 74.3372 308.876C76.5371 311.581 80.5713 312.648 85.4048 311.775C86.5773 311.558 87.7306 311.281 88.8679 311.017C91.2667 310.421 93.5178 309.859 95.8161 310.002C99.7647 310.244 103.55 312.824 105.214 316.414C105.47 316.966 106.132 317.197 106.656 316.937C107.208 316.681 107.451 316.035 107.195 315.483Z" fill="black"/>
<path fill-rule="evenodd" clip-rule="evenodd" d="M322.282 247.915C327.774 243.898 335.503 245.097 339.509 250.573C343.525 256.065 342.326 263.794 336.834 267.811C331.342 271.828 323.613 270.629 319.596 265.137C315.591 259.661 316.79 251.932 322.282 247.915ZM323.574 249.681C319.062 252.982 318.062 259.333 321.362 263.845C324.663 268.357 331.03 269.345 335.542 266.045C340.055 262.744 341.042 256.377 337.742 251.865C334.442 247.353 328.086 246.381 323.574 249.681Z" fill="black"/>
</g>
</g>
</svg>
