<svg width="124" height="122" viewBox="0 0 124 122" fill="none" xmlns="http://www.w3.org/2000/svg">
<path d="M93.1375 6.43737C105.46 13.5515 114.934 24.7182 119.946 38.0345C124.958 51.3509 125.197 65.9932 120.624 79.4665C116.05 92.9397 106.946 104.41 94.8637 111.924C82.7809 119.437 68.4668 122.529 54.3602 120.672C40.2535 118.815 27.2273 112.124 17.5009 101.739C7.77449 91.3541 1.94977 77.9181 1.01919 63.7202C0.0886124 49.5223 4.10974 35.441 12.3974 23.8756C20.6851 12.3101 32.7266 3.97607 46.4701 0.293493L51.2454 18.1148C41.6249 20.6926 33.1958 26.5264 27.3945 34.6223C21.5931 42.7181 18.7783 52.575 19.4297 62.5135C20.0811 72.4521 24.1584 81.8573 30.9669 89.1266C37.7753 96.3959 46.8937 101.08 56.7684 102.38C66.643 103.68 76.6629 101.516 85.1208 96.2561C93.5788 90.9966 99.9514 82.9672 103.153 73.5359C106.354 64.1046 106.187 53.855 102.678 44.5336C99.1699 35.2121 92.538 27.3955 83.9125 22.4155L93.1375 6.43737Z" fill="#FF8B36"/>
</svg>
