<svg width="37" height="37" viewBox="0 0 37 37" fill="none" xmlns="http://www.w3.org/2000/svg">
<rect width="37" height="37" rx="18.5" fill="#262F3B"/>
<path d="M18.5 26.4168C14.1278 26.4168 10.5834 22.8724 10.5834 18.5002C10.5834 14.1279 14.1278 10.5835 18.5 10.5835C22.8723 10.5835 26.4167 14.1279 26.4167 18.5002C26.4167 22.8724 22.8723 26.4168 18.5 26.4168ZM17.7084 20.8752V22.4585H19.2917V20.8752H17.7084ZM19.2917 19.573C20.4362 19.2323 21.2709 18.172 21.2709 16.9168C21.2709 15.3865 20.0303 14.146 18.5 14.146C17.1558 14.146 16.0351 15.1033 15.7825 16.3733L17.3353 16.6839C17.4436 16.1396 17.9239 15.7293 18.5 15.7293C19.1559 15.7293 19.6875 16.261 19.6875 16.9168C19.6875 17.5726 19.1559 18.1043 18.5 18.1043C18.0628 18.1043 17.7084 18.4588 17.7084 18.896V20.0835H19.2917V19.573Z" fill="white"/>
</svg>
