<svg width="16" height="16" viewBox="0 0 16 16" fill="none" xmlns="http://www.w3.org/2000/svg">
<g clip-path="url(#clip0_1151_38302)">
<path d="M7.40963 2.63788C7.47512 2.52551 7.56893 2.43227 7.6817 2.36746C7.79447 2.30266 7.92226 2.26855 8.05232 2.26855C8.18239 2.26855 8.31018 2.30266 8.42295 2.36746C8.53572 2.43227 8.62952 2.52551 8.69501 2.63788L10.3583 5.49309L13.5884 6.1929C13.7154 6.22051 13.833 6.28095 13.9294 6.36817C14.0259 6.4554 14.0977 6.56638 14.1379 6.69005C14.1781 6.81371 14.1851 6.94575 14.1583 7.07298C14.1315 7.20022 14.0719 7.31821 13.9853 7.4152L11.7835 9.87944L12.1167 13.1673C12.1299 13.2967 12.1088 13.4274 12.0557 13.5462C12.0026 13.6649 11.9192 13.7677 11.8139 13.8442C11.7086 13.9207 11.5851 13.9682 11.4557 13.9821C11.3264 13.9959 11.1956 13.9755 11.0765 13.923L8.05232 12.59L5.02812 13.923C4.90905 13.9755 4.77829 13.9959 4.6489 13.9821C4.51951 13.9682 4.39601 13.9207 4.29073 13.8442C4.18546 13.7677 4.10209 13.6649 4.04895 13.5462C3.99581 13.4274 3.97477 13.2967 3.98791 13.1673L4.32116 9.87944L2.11936 7.4158C2.03261 7.31881 1.97282 7.20077 1.94596 7.07346C1.91909 6.94614 1.9261 6.81401 1.96627 6.69025C2.00644 6.56648 2.07837 6.45542 2.17488 6.36815C2.27139 6.28088 2.38911 6.22046 2.51627 6.1929L5.74638 5.49309L7.40963 2.63788Z" fill="#FF8B36"/>
</g>
<defs>
<clipPath id="clip0_1151_38302">
<rect width="14.282" height="14.282" fill="white" transform="translate(0.911377 0.931152)"/>
</clipPath>
</defs>
</svg>
