<svg width="20" height="20" viewBox="0 0 20 20" fill="none" xmlns="http://www.w3.org/2000/svg">
<path d="M19.801 10.2398C19.801 9.56447 19.7356 8.86731 19.6267 8.21373H10.1933V12.0699H15.5963C15.3784 13.3117 14.6595 14.401 13.592 15.0981L16.8163 17.6035C18.7117 15.8389 19.801 13.2681 19.801 10.2398Z" fill="#4280EF"/>
<path d="M10.1933 20C12.8948 20 15.1606 19.1068 16.8163 17.5817L13.592 15.0981C12.6987 15.7081 11.5441 16.0567 10.1933 16.0567C7.57901 16.0567 5.37861 14.292 4.57253 11.9391L1.26105 14.4881C2.96036 17.865 6.40256 20 10.1933 20Z" fill="#34A353"/>
<path d="M4.57253 11.9174C4.15859 10.6756 4.15859 9.32482 4.57253 8.08301L1.26105 5.51226C-0.155049 8.34445 -0.155049 11.6777 1.26105 14.4881L4.57253 11.9174Z" fill="#F6B704"/>
<path d="M10.1933 3.96545C11.6094 3.94366 13.0037 4.48831 14.0277 5.46869L16.8817 2.59292C15.0734 0.893609 12.6769 -0.0214058 10.1933 0.00038023C6.40256 0.00038023 2.96036 2.13542 1.26105 5.51226L4.57253 8.08301C5.37861 5.70833 7.57901 3.96545 10.1933 3.96545Z" fill="#E54335"/>
</svg>
