<svg width="25" height="25" viewBox="0 0 25 25" fill="none" xmlns="http://www.w3.org/2000/svg">
<path d="M24.2607 12.7878C24.2607 11.9774 24.1823 11.1408 24.0516 10.3565H12.7315V14.9838H19.2151C18.9536 16.474 18.0909 17.7812 16.8099 18.6178L20.6791 21.6242C22.9535 19.5066 24.2607 16.4217 24.2607 12.7878Z" fill="#4280EF"/>
<path d="M12.7315 24.5C15.9733 24.5 18.6922 23.4281 20.6791 21.5981L16.8099 18.6178C15.738 19.3498 14.3524 19.7681 12.7315 19.7681C9.59432 19.7681 6.95385 17.6505 5.98655 14.827L2.01277 17.8857C4.05194 21.938 8.18258 24.5 12.7315 24.5Z" fill="#34A353"/>
<path d="M5.98655 14.8008C5.48982 13.3107 5.48982 11.6898 5.98655 10.1996L2.01277 7.11471C0.313453 10.5133 0.313453 14.5133 2.01277 17.8857L5.98655 14.8008Z" fill="#F6B704"/>
<path d="M12.7315 5.25854C14.4308 5.23239 16.104 5.88597 17.3327 7.06242L20.7575 3.61151C18.5876 1.57233 15.7119 0.474313 12.7315 0.500456C8.18258 0.500456 4.05194 3.0625 2.01277 7.11471L5.98655 10.1996C6.95385 7.35 9.59432 5.25854 12.7315 5.25854Z" fill="#E54335"/>
</svg>
