<svg width="20" height="20" viewBox="0 0 20 20" fill="none" xmlns="http://www.w3.org/2000/svg">
<mask id="mask0_1021_39938" style="mask-type:luminance" maskUnits="userSpaceOnUse" x="0" y="0" width="20" height="20">
<path d="M19.3563 0.574219H0.15625V19.7742H19.3563V0.574219Z" fill="white"/>
</mask>
<g mask="url(#mask0_1021_39938)">
<path d="M5.02487 19.7063C3.88304 19.6544 3.26276 19.4643 2.8502 19.3034C2.30354 19.0906 1.91379 18.8372 1.50351 18.4275C1.09322 18.0178 0.839296 17.6281 0.627591 17.0814C0.466673 16.6689 0.276653 16.0486 0.224726 14.9067C0.167663 13.6725 0.15625 13.3022 0.15625 10.175C0.15625 7.04802 0.168804 6.67825 0.224156 5.44284C0.276083 4.30101 0.467244 3.68187 0.62702 3.26817C0.839864 2.7215 1.09379 2.33176 1.50294 1.9209C1.91265 1.51119 2.30239 1.25669 2.84962 1.04499C3.26219 0.884071 3.88246 0.694051 5.0243 0.642123C6.25914 0.585631 6.63006 0.574219 9.756 0.574219C12.883 0.574219 13.2528 0.586772 14.4882 0.642123C15.63 0.694051 16.2492 0.885212 16.6629 1.04499C17.2095 1.25669 17.5993 1.51119 18.0096 1.9209C18.4198 2.33062 18.6726 2.72093 18.8855 3.26759C19.0464 3.68016 19.2364 4.30043 19.2883 5.44226C19.3448 6.67768 19.3562 7.04745 19.3562 10.1745C19.3562 13.3004 19.3448 13.6713 19.2883 14.9067C19.2364 16.0486 19.0453 16.6689 18.8855 17.0814C18.6726 17.6281 18.4193 18.0178 18.0096 18.4275C17.5998 18.8372 17.2095 19.0906 16.6629 19.3034C16.2503 19.4643 15.63 19.6544 14.4882 19.7063C13.2539 19.7628 12.883 19.7742 9.756 19.7742C6.63006 19.7742 6.25914 19.7634 5.02487 19.7063Z" fill="url(#paint0_radial_1021_39938)"/>
<path d="M5.02487 19.7063C3.88304 19.6544 3.26276 19.4643 2.8502 19.3034C2.30354 19.0906 1.91379 18.8372 1.50351 18.4275C1.09322 18.0178 0.839296 17.6281 0.627591 17.0814C0.466673 16.6689 0.276653 16.0486 0.224726 14.9067C0.167663 13.6725 0.15625 13.3022 0.15625 10.175C0.15625 7.04802 0.168804 6.67825 0.224156 5.44284C0.276083 4.30101 0.467244 3.68187 0.62702 3.26817C0.839864 2.7215 1.09379 2.33176 1.50294 1.9209C1.91265 1.51119 2.30239 1.25669 2.84962 1.04499C3.26219 0.884071 3.88246 0.694051 5.0243 0.642123C6.25914 0.585631 6.63006 0.574219 9.756 0.574219C12.883 0.574219 13.2528 0.586772 14.4882 0.642123C15.63 0.694051 16.2492 0.885212 16.6629 1.04499C17.2095 1.25669 17.5993 1.51119 18.0096 1.9209C18.4198 2.33062 18.6726 2.72093 18.8855 3.26759C19.0464 3.68016 19.2364 4.30043 19.2883 5.44226C19.3448 6.67768 19.3562 7.04745 19.3562 10.1745C19.3562 13.3004 19.3448 13.6713 19.2883 14.9067C19.2364 16.0486 19.0453 16.6689 18.8855 17.0814C18.6726 17.6281 18.4193 18.0178 18.0096 18.4275C17.5998 18.8372 17.2095 19.0906 16.6629 19.3034C16.2503 19.4643 15.63 19.6544 14.4882 19.7063C13.2539 19.7628 12.883 19.7742 9.756 19.7742C6.63006 19.7742 6.25914 19.7634 5.02487 19.7063Z" fill="url(#paint1_radial_1021_39938)"/>
<path d="M7.39626 10.2149C7.39626 8.90185 8.46039 7.83709 9.77351 7.83709C11.0866 7.83709 12.1514 8.90185 12.1514 10.2149C12.1514 11.528 11.0866 12.5927 9.77351 12.5927C8.46039 12.5927 7.39626 11.528 7.39626 10.2149ZM6.11086 10.2149C6.11086 12.2378 7.75062 13.8775 9.77351 13.8775C11.7964 13.8775 13.4362 12.2378 13.4362 10.2149C13.4362 8.19203 11.7964 6.55226 9.77351 6.55226C7.75062 6.55226 6.11086 8.19192 6.11086 10.2149ZM12.7253 6.40704C12.7252 6.57633 12.7754 6.74184 12.8694 6.88264C12.9634 7.02343 13.097 7.1332 13.2534 7.19804C13.4097 7.26289 13.5818 7.27991 13.7478 7.24695C13.9139 7.21399 14.0665 7.13253 14.1862 7.01287C14.306 6.89322 14.3875 6.74073 14.4206 6.5747C14.4538 6.40868 14.4369 6.23658 14.3722 6.08014C14.3074 5.92371 14.1978 5.78999 14.057 5.69588C13.9163 5.60178 13.7509 5.5515 13.5815 5.55144C13.3546 5.55154 13.1367 5.64171 12.9762 5.80214C12.8157 5.96256 12.7254 6.18012 12.7253 6.40704ZM6.89182 16.021C6.19639 15.9893 5.81841 15.8734 5.56722 15.7756C5.23419 15.6459 4.99658 15.4915 4.74676 15.2421C4.49694 14.9926 4.3423 14.7552 4.21323 14.4222C4.11531 14.1711 3.99946 13.793 3.96785 13.0976C3.93327 12.3457 3.92637 12.1198 3.92637 10.215C3.92637 8.31021 3.93384 8.08498 3.96785 7.33249C3.99952 6.63706 4.11622 6.2597 4.21323 6.00789C4.34287 5.67486 4.49728 5.43726 4.74676 5.18743C4.99624 4.93761 5.23363 4.78297 5.56722 4.6539C5.81829 4.55598 6.19639 4.44014 6.89182 4.40852C7.64368 4.37394 7.86954 4.36704 9.77351 4.36704C11.6774 4.36704 11.9035 4.3744 12.6561 4.40864C13.3514 4.4403 13.7288 4.557 13.9806 4.65401C14.3137 4.78309 14.5513 4.93806 14.8011 5.18754C15.051 5.43702 15.205 5.67498 15.3346 6.008C15.4326 6.25908 15.5484 6.63718 15.58 7.33261C15.6146 8.0851 15.6215 8.31032 15.6215 10.2151C15.6215 12.1199 15.6146 12.3452 15.58 13.0977C15.5483 13.7931 15.4319 14.1711 15.3346 14.4223C15.205 14.7553 15.0506 14.9929 14.8011 15.2422C14.5516 15.4914 14.3137 15.6461 13.9806 15.7757C13.7296 15.8736 13.3514 15.9894 12.6561 16.021C11.9042 16.0557 11.6783 16.0626 9.77351 16.0626C7.86868 16.0626 7.64346 16.0556 6.89182 16.021ZM6.83276 3.12523C6.07343 3.15982 5.55455 3.28022 5.10141 3.45654C4.63241 3.63863 4.23485 3.88291 3.83787 4.27927C3.44087 4.67563 3.19722 5.07325 3.01513 5.54282C2.8388 5.99625 2.7184 6.51483 2.68382 7.27417C2.64867 8.0347 2.64062 8.27786 2.64062 10.2149C2.64062 12.152 2.64867 12.3951 2.68382 13.1557C2.7184 13.915 2.8388 14.4336 3.01513 14.887C3.19722 15.356 3.44093 15.7543 3.83787 16.1506C4.23479 16.5467 4.63184 16.7907 5.10141 16.9733C5.5554 17.1496 6.07343 17.27 6.83276 17.3046C7.5937 17.3392 7.83644 17.3478 9.77351 17.3478C11.7106 17.3478 11.9537 17.3398 12.7142 17.3046C13.4737 17.27 13.9922 17.1496 14.4456 16.9733C14.9146 16.7907 15.3122 16.5469 15.7091 16.1506C16.1062 15.7542 16.3493 15.356 16.5319 14.887C16.7082 14.4336 16.8292 13.915 16.8632 13.1557C16.8978 12.3946 16.9058 12.152 16.9058 10.2149C16.9058 8.27786 16.8978 8.0347 16.8632 7.27417C16.8286 6.51477 16.7082 5.99596 16.5319 5.54282C16.3493 5.07382 16.1055 4.67626 15.7091 4.27927C15.3128 3.88229 14.9146 3.63863 14.4462 3.45654C13.9922 3.28022 13.4736 3.15924 12.7148 3.12523C11.9542 3.09048 11.7111 3.08203 9.77439 3.08203C7.83758 3.08203 7.5937 3.09008 6.83276 3.12523Z" fill="white"/>
</g>
<defs>
<radialGradient id="paint0_radial_1021_39938" cx="0" cy="0" r="1" gradientUnits="userSpaceOnUse" gradientTransform="translate(1.39886 19.3536) scale(24.3769 24.3769)">
<stop offset="0.09" stop-color="#FA8F21"/>
<stop offset="0.78" stop-color="#D82D7E"/>
</radialGradient>
<radialGradient id="paint1_radial_1021_39938" cx="0" cy="0" r="1" gradientUnits="userSpaceOnUse" gradientTransform="translate(13.4554 18.7371) scale(21.4518 21.4518)">
<stop offset="0.64" stop-color="#8C3AAA" stop-opacity="0"/>
<stop offset="1" stop-color="#8C3AAA"/>
</radialGradient>
</defs>
</svg>
