<svg width="18" height="18" viewBox="0 0 18 18" fill="none" xmlns="http://www.w3.org/2000/svg">
<g clip-path="url(#clip0_1022_41294)">
<mask id="mask0_1022_41294" style="mask-type:luminance" maskUnits="userSpaceOnUse" x="0" y="0" width="18" height="18">
<path d="M17.4206 0.0664062H0.140625V17.3464H17.4206V0.0664062Z" fill="white"/>
</mask>
<g mask="url(#mask0_1022_41294)">
<path d="M4.52239 17.2853C3.49474 17.2386 2.93648 17.0675 2.56518 16.9227C2.07318 16.7311 1.72241 16.5031 1.35316 16.1344C0.983902 15.7657 0.755367 15.4149 0.564832 14.9229C0.420006 14.5516 0.248988 13.9933 0.202253 12.9657C0.150897 11.8548 0.140625 11.5216 0.140625 8.70715C0.140625 5.89283 0.151924 5.56003 0.20174 4.44817C0.248475 3.42052 0.420519 2.86329 0.564318 2.49096C0.755878 1.99896 0.984413 1.64819 1.35264 1.27842C1.72138 0.909682 2.07215 0.680633 2.56466 0.4901C2.93597 0.345273 3.49422 0.174256 4.52187 0.127521C5.63323 0.0766777 5.96705 0.0664062 8.7804 0.0664062C11.5947 0.0664062 11.9275 0.0777044 13.0394 0.127521C14.067 0.174256 14.6243 0.3463 14.9966 0.4901C15.4886 0.680633 15.8394 0.909682 16.2086 1.27842C16.5779 1.64716 16.8054 1.99844 16.997 2.49044C17.1418 2.86175 17.3128 3.42 17.3595 4.44765C17.4103 5.55952 17.4206 5.89231 17.4206 8.70665C17.4206 11.52 17.4103 11.8538 17.3595 12.9657C17.3128 13.9933 17.1408 14.5516 16.997 14.9229C16.8054 15.4149 16.5774 15.7657 16.2086 16.1344C15.8399 16.5031 15.4886 16.7311 14.9966 16.9227C14.6253 17.0675 14.067 17.2386 13.0394 17.2853C11.9285 17.3361 11.5947 17.3464 8.7804 17.3464C5.96705 17.3464 5.63323 17.3366 4.52239 17.2853Z" fill="url(#paint0_radial_1022_41294)"/>
<path d="M4.52239 17.2853C3.49474 17.2386 2.93648 17.0675 2.56518 16.9227C2.07318 16.7311 1.72241 16.5031 1.35316 16.1344C0.983902 15.7657 0.755367 15.4149 0.564832 14.9229C0.420006 14.5516 0.248988 13.9933 0.202253 12.9657C0.150897 11.8548 0.140625 11.5216 0.140625 8.70715C0.140625 5.89283 0.151924 5.56003 0.20174 4.44817C0.248475 3.42052 0.420519 2.86329 0.564318 2.49096C0.755878 1.99896 0.984413 1.64819 1.35264 1.27842C1.72138 0.909682 2.07215 0.680633 2.56466 0.4901C2.93597 0.345273 3.49422 0.174256 4.52187 0.127521C5.63323 0.0766777 5.96705 0.0664062 8.7804 0.0664062C11.5947 0.0664062 11.9275 0.0777044 13.0394 0.127521C14.067 0.174256 14.6243 0.3463 14.9966 0.4901C15.4886 0.680633 15.8394 0.909682 16.2086 1.27842C16.5779 1.64716 16.8054 1.99844 16.997 2.49044C17.1418 2.86175 17.3128 3.42 17.3595 4.44765C17.4103 5.55952 17.4206 5.89231 17.4206 8.70665C17.4206 11.52 17.4103 11.8538 17.3595 12.9657C17.3128 13.9933 17.1408 14.5516 16.997 14.9229C16.8054 15.4149 16.5774 15.7657 16.2086 16.1344C15.8399 16.5031 15.4886 16.7311 14.9966 16.9227C14.6253 17.0675 14.067 17.2386 13.0394 17.2853C11.9285 17.3361 11.5947 17.3464 8.7804 17.3464C5.96705 17.3464 5.63323 17.3366 4.52239 17.2853Z" fill="url(#paint1_radial_1022_41294)"/>
<path d="M6.65507 8.74379C6.65507 7.56205 7.61279 6.60378 8.7946 6.60378C9.97634 6.60378 10.9347 7.56205 10.9347 8.74379C10.9347 9.9256 9.97634 10.8838 8.7946 10.8838C7.61279 10.8838 6.65507 9.9256 6.65507 8.74379ZM5.49821 8.74379C5.49821 10.5644 6.97399 12.0402 8.7946 12.0402C10.6152 12.0402 12.091 10.5644 12.091 8.74379C12.091 6.92322 10.6152 5.44743 8.7946 5.44743C6.97399 5.44743 5.49821 6.92312 5.49821 8.74379ZM11.4512 5.31673C11.4511 5.46909 11.4963 5.61805 11.5809 5.74477C11.6655 5.87148 11.7857 5.97027 11.9265 6.02863C12.0671 6.08699 12.2221 6.10231 12.3715 6.07265C12.521 6.04298 12.6583 5.96967 12.766 5.86198C12.8738 5.75428 12.9472 5.61705 12.977 5.46762C13.0068 5.3182 12.9916 5.16331 12.9334 5.02252C12.8751 4.88173 12.7764 4.76138 12.6498 4.67668C12.5231 4.59199 12.3742 4.54674 12.2218 4.54669C12.0176 4.54678 11.8215 4.62793 11.677 4.77231C11.5325 4.91669 11.4513 5.1125 11.4512 5.31673ZM6.20107 13.9693C5.57519 13.9407 5.23501 13.8365 5.00893 13.7484C4.70921 13.6317 4.49536 13.4928 4.27052 13.2683C4.04568 13.0437 3.9065 12.8301 3.79034 12.5303C3.70221 12.3044 3.59796 11.9641 3.5695 11.3382C3.53838 10.6615 3.53217 10.4583 3.53217 8.74393C3.53217 7.02958 3.53889 6.82688 3.5695 6.14963C3.59801 5.52375 3.70303 5.18412 3.79034 4.95749C3.90702 4.65777 4.04599 4.44392 4.27052 4.21908C4.49505 3.99424 4.7087 3.85506 5.00893 3.7389C5.2349 3.65077 5.57519 3.54651 6.20107 3.51806C6.87775 3.48694 7.08102 3.48073 8.7946 3.48073C10.5081 3.48073 10.7116 3.48735 11.3889 3.51817C12.0147 3.54666 12.3544 3.65169 12.581 3.739C12.8807 3.85517 13.0946 3.99465 13.3194 4.21918C13.5443 4.44371 13.6829 4.65787 13.7996 4.95759C13.8877 5.18356 13.992 5.52385 14.0204 6.14974C14.0515 6.82698 14.0578 7.02968 14.0578 8.74401C14.0578 10.4583 14.0515 10.6611 14.0204 11.3383C13.9919 11.9642 13.8872 12.3044 13.7996 12.5305C13.6829 12.8301 13.5439 13.044 13.3194 13.2683C13.0949 13.4927 12.8807 13.6319 12.581 13.7485C12.3551 13.8366 12.0147 13.9409 11.3889 13.9693C10.7122 14.0005 10.5089 14.0067 8.7946 14.0067C7.08025 14.0067 6.87755 14.0004 6.20107 13.9693ZM6.14792 2.3631C5.46452 2.39422 4.99753 2.50258 4.58971 2.66127C4.16761 2.82516 3.8098 3.04501 3.45252 3.40173C3.09522 3.75846 2.87593 4.11631 2.71205 4.53893C2.55336 4.94701 2.445 5.41374 2.41387 6.09714C2.38224 6.78162 2.375 7.00046 2.375 8.74379C2.375 10.4872 2.38224 10.706 2.41387 11.3905C2.445 12.0739 2.55336 12.5406 2.71205 12.9487C2.87593 13.3708 3.09527 13.7293 3.45252 14.0859C3.80975 14.4424 4.16709 14.662 4.58971 14.8263C4.9983 14.985 5.46452 15.0934 6.14792 15.1245C6.83277 15.1557 7.05124 15.1634 8.7946 15.1634C10.5379 15.1634 10.7567 15.1562 11.4412 15.1245C12.1247 15.0934 12.5914 14.985 12.9995 14.8263C13.4216 14.662 13.7794 14.4426 14.1366 14.0859C14.494 13.7291 14.7128 13.3708 14.8772 12.9487C15.0358 12.5406 15.1447 12.0739 15.1753 11.3905C15.2064 10.7055 15.2137 10.4872 15.2137 8.74379C15.2137 7.00046 15.2064 6.78162 15.1753 6.09714C15.1442 5.41369 15.0358 4.94675 14.8772 4.53893C14.7128 4.11683 14.4934 3.75903 14.1366 3.40173C13.78 3.04445 13.4216 2.82516 13 2.66127C12.5914 2.50258 12.1247 2.39371 11.4418 2.3631C10.7572 2.33182 10.5384 2.32422 8.79539 2.32422C7.05226 2.32422 6.83277 2.33146 6.14792 2.3631Z" fill="white"/>
</g>
</g>
<defs>
<radialGradient id="paint0_radial_1022_41294" cx="0" cy="0" r="1" gradientUnits="userSpaceOnUse" gradientTransform="translate(1.25897 16.9679) scale(21.9392 21.9392)">
<stop offset="0.09" stop-color="#FA8F21"/>
<stop offset="0.78" stop-color="#D82D7E"/>
</radialGradient>
<radialGradient id="paint1_radial_1022_41294" cx="0" cy="0" r="1" gradientUnits="userSpaceOnUse" gradientTransform="translate(12.1099 16.413) scale(19.3067 19.3067)">
<stop offset="0.64" stop-color="#8C3AAA" stop-opacity="0"/>
<stop offset="1" stop-color="#8C3AAA"/>
</radialGradient>
<clipPath id="clip0_1022_41294">
<rect width="18" height="18" fill="white"/>
</clipPath>
</defs>
</svg>
