<svg width="14" height="14" viewBox="0 0 14 14" fill="none" xmlns="http://www.w3.org/2000/svg">
<path d="M7.00393 0.105957C4.12523 0.105957 3.28333 0.108927 3.11967 0.122502C2.52892 0.171609 2.16131 0.264624 1.76083 0.464018C1.45219 0.617275 1.20878 0.794927 0.968553 1.04396C0.531053 1.49811 0.265902 2.05684 0.169917 2.72099C0.12325 3.04341 0.109674 3.10917 0.106917 4.75608C0.105856 5.30505 0.106917 6.02753 0.106917 6.99661C0.106917 9.87297 0.110099 10.714 0.123886 10.8774C0.171614 11.4522 0.261765 11.8139 0.452674 12.2095C0.817523 12.9668 1.51434 13.5352 2.33525 13.7474C2.61949 13.8205 2.93343 13.8609 3.33646 13.8799C3.50722 13.8874 5.24767 13.8927 6.98919 13.8927C8.7307 13.8927 10.4722 13.8905 10.6387 13.8821C11.1054 13.8601 11.3764 13.8237 11.676 13.7463C12.5022 13.5331 13.1863 12.9731 13.5586 12.2052C13.7458 11.8192 13.8407 11.4437 13.8837 10.8989C13.893 10.7801 13.8969 8.88618 13.8969 6.99481C13.8969 5.10311 13.8927 3.21268 13.8833 3.0939C13.8399 2.54026 13.7449 2.16799 13.5517 1.7745C13.3931 1.4524 13.2171 1.21185 12.9615 0.965896C12.5053 0.530199 11.9474 0.265048 11.2826 0.169169C10.9605 0.122609 10.8964 0.108821 9.24817 0.105957H7.00393Z" fill="url(#paint0_radial_1162_42971)"/>
<path d="M7.00393 0.105957C4.12523 0.105957 3.28333 0.108927 3.11967 0.122502C2.52892 0.171609 2.16131 0.264624 1.76083 0.464018C1.45219 0.617275 1.20878 0.794927 0.968553 1.04396C0.531053 1.49811 0.265902 2.05684 0.169917 2.72099C0.12325 3.04341 0.109674 3.10917 0.106917 4.75608C0.105856 5.30505 0.106917 6.02753 0.106917 6.99661C0.106917 9.87297 0.110099 10.714 0.123886 10.8774C0.171614 11.4522 0.261765 11.8139 0.452674 12.2095C0.817523 12.9668 1.51434 13.5352 2.33525 13.7474C2.61949 13.8205 2.93343 13.8609 3.33646 13.8799C3.50722 13.8874 5.24767 13.8927 6.98919 13.8927C8.7307 13.8927 10.4722 13.8905 10.6387 13.8821C11.1054 13.8601 11.3764 13.8237 11.676 13.7463C12.5022 13.5331 13.1863 12.9731 13.5586 12.2052C13.7458 11.8192 13.8407 11.4437 13.8837 10.8989C13.893 10.7801 13.8969 8.88618 13.8969 6.99481C13.8969 5.10311 13.8927 3.21268 13.8833 3.0939C13.8399 2.54026 13.7449 2.16799 13.5517 1.7745C13.3931 1.4524 13.2171 1.21185 12.9615 0.965896C12.5053 0.530199 11.9474 0.265048 11.2826 0.169169C10.9605 0.122609 10.8964 0.108821 9.24817 0.105957H7.00393Z" fill="url(#paint1_radial_1162_42971)"/>
<path d="M7.00051 1.90918C5.61791 1.90918 5.44439 1.91523 4.90136 1.93994C4.35939 1.96476 3.98945 2.05056 3.66576 2.17645C3.33092 2.30648 3.04689 2.48042 2.76392 2.7635C2.48074 3.04647 2.3068 3.3305 2.17635 3.66523C2.05013 3.98903 1.96423 4.35907 1.93983 4.90083C1.91554 5.44386 1.90918 5.61748 1.90918 7.00009C1.90918 8.3827 1.91533 8.55568 1.93994 9.09871C1.96486 9.64068 2.05066 10.0106 2.17645 10.3343C2.30659 10.6692 2.48053 10.9532 2.7636 11.2362C3.04647 11.5193 3.3305 11.6937 3.66512 11.8237C3.98903 11.9496 4.35907 12.0354 4.90094 12.0602C5.44397 12.085 5.61738 12.091 6.99988 12.091C8.38259 12.091 8.55557 12.085 9.0986 12.0602C9.64057 12.0354 10.0109 11.9496 10.3348 11.8237C10.6696 11.6937 10.9532 11.5193 11.236 11.2362C11.5192 10.9532 11.6932 10.6692 11.8236 10.3344C11.9488 10.0106 12.0347 9.64057 12.0601 9.09882C12.0845 8.55579 12.0909 8.3827 12.0909 7.00009C12.0909 5.61748 12.0845 5.44397 12.0601 4.90094C12.0347 4.35897 11.9488 3.98903 11.8236 3.66533C11.6932 3.3305 11.5192 3.04647 11.236 2.7635C10.9529 2.48032 10.6697 2.30638 10.3345 2.17645C10.01 2.05056 9.63983 1.96476 9.09786 1.93994C8.55483 1.91523 8.38195 1.90918 6.99892 1.90918H7.00051ZM6.54382 2.8266C6.67936 2.82639 6.8306 2.8266 7.00051 2.8266C8.35979 2.8266 8.52089 2.83148 9.05766 2.85588C9.55403 2.87857 9.82342 2.96151 10.0029 3.0312C10.2405 3.12347 10.4098 3.23377 10.5879 3.41195C10.7661 3.59013 10.8764 3.75983 10.9689 3.99741C11.0386 4.17665 11.1216 4.44604 11.1442 4.94241C11.1686 5.47907 11.1739 5.64029 11.1739 6.99892C11.1739 8.35756 11.1686 8.51877 11.1442 9.05544C11.1215 9.5518 11.0386 9.8212 10.9689 10.0004C10.8766 10.238 10.7661 10.4072 10.5879 10.5853C10.4097 10.7634 10.2406 10.8737 10.0029 10.966C9.82363 11.036 9.55403 11.1187 9.05766 11.1414C8.521 11.1658 8.35979 11.1711 7.00051 11.1711C5.64113 11.1711 5.48003 11.1658 4.94336 11.1414C4.447 11.1185 4.1776 11.0356 3.99804 10.9659C3.76047 10.8736 3.59077 10.7633 3.41259 10.5852C3.23441 10.407 3.1241 10.2377 3.03162 10C2.96194 9.82077 2.87889 9.55138 2.8563 9.05501C2.83191 8.51835 2.82703 8.35713 2.82703 6.99765C2.82703 5.63816 2.83191 5.4778 2.8563 4.94113C2.879 4.44477 2.96194 4.17538 3.03162 3.99592C3.12389 3.75835 3.23441 3.58865 3.41259 3.41047C3.59077 3.23229 3.76047 3.12198 3.99804 3.0295C4.1775 2.9595 4.447 2.87677 4.94336 2.85397C5.413 2.83276 5.595 2.82639 6.54382 2.82533V2.8266ZM9.718 3.67191C9.38073 3.67191 9.10709 3.94523 9.10709 4.2826C9.10709 4.61988 9.38073 4.89351 9.718 4.89351C10.0553 4.89351 10.3289 4.61988 10.3289 4.2826C10.3289 3.94533 10.0553 3.67169 9.718 3.67169V3.67191ZM7.00051 4.38569C5.55671 4.38569 4.38612 5.55629 4.38612 7.00009C4.38612 8.44389 5.55671 9.61395 7.00051 9.61395C8.44432 9.61395 9.61448 8.44389 9.61448 7.00009C9.61448 5.55629 8.44432 4.38569 7.00051 4.38569ZM7.00051 5.30312C7.93766 5.30312 8.69748 6.06283 8.69748 7.00009C8.69748 7.93724 7.93766 8.69706 7.00051 8.69706C6.06326 8.69706 5.30354 7.93724 5.30354 7.00009C5.30354 6.06283 6.06326 5.30312 7.00051 5.30312Z" fill="white"/>
<defs>
<radialGradient id="paint0_radial_1162_42971" cx="0" cy="0" r="1" gradientUnits="userSpaceOnUse" gradientTransform="translate(3.76956 14.9545) rotate(-90) scale(13.6637 12.7117)">
<stop stop-color="#FFDD55"/>
<stop offset="0.1" stop-color="#FFDD55"/>
<stop offset="0.5" stop-color="#FF543E"/>
<stop offset="1" stop-color="#C837AB"/>
</radialGradient>
<radialGradient id="paint1_radial_1162_42971" cx="0" cy="0" r="1" gradientUnits="userSpaceOnUse" gradientTransform="translate(-2.20353 1.09913) rotate(78.6776) scale(6.10777 25.1828)">
<stop stop-color="#3771C8"/>
<stop offset="0.128" stop-color="#3771C8"/>
<stop offset="1" stop-color="#6600FF" stop-opacity="0"/>
</radialGradient>
</defs>
</svg>
