<svg width="18" height="18" viewBox="0 0 18 18" fill="none" xmlns="http://www.w3.org/2000/svg">
<path d="M1.5 6.74998H3.75V15.75H1.5C1.08579 15.75 0.75 15.4142 0.75 15V7.49998C0.75 7.08577 1.08579 6.74998 1.5 6.74998ZM5.46967 5.78031L10.2701 0.979957C10.402 0.847994 10.6109 0.833152 10.7602 0.945119L11.3996 1.4247C11.7632 1.69734 11.927 2.1619 11.8148 2.60224L10.9499 5.99998H15.75C16.5785 5.99998 17.25 6.67155 17.25 7.49998V9.07822C17.25 9.2742 17.2116 9.46822 17.1371 9.64935L14.8162 15.2855C14.7005 15.5665 14.4266 15.75 14.1227 15.75H6C5.58579 15.75 5.25 15.4142 5.25 15V6.31064C5.25 6.11173 5.32902 5.92096 5.46967 5.78031Z" fill="#1F2732"/>
</svg>
