<svg width="20" height="20" viewBox="0 0 20 20" fill="none" xmlns="http://www.w3.org/2000/svg">
<g clip-path="url(#clip0_699_50769)">
<path d="M16.6667 3.33325C17.0872 3.33312 17.4922 3.49192 17.8005 3.77783C18.1089 4.06374 18.2977 4.45562 18.3292 4.87492L18.3334 4.99992V14.9999C18.3335 15.4204 18.1747 15.8254 17.8888 16.1337C17.6029 16.442 17.211 16.6309 16.7917 16.6624L16.6667 16.6666H3.33341C2.91293 16.6667 2.50794 16.5079 2.19962 16.222C1.89131 15.9361 1.70245 15.5442 1.67091 15.1249L1.66675 14.9999V4.99992C1.66662 4.57944 1.82542 4.17445 2.11133 3.86613C2.39724 3.55781 2.78912 3.36895 3.20841 3.33742L3.33341 3.33325H16.6667ZM16.6667 6.17825L10.8834 11.9616C10.649 12.1957 10.3313 12.3272 10.0001 12.3272C9.66883 12.3272 9.35112 12.1957 9.11675 11.9616L3.33341 6.17825V14.9999H16.6667V6.17825ZM15.4884 4.99992H4.51175L10.0001 10.4883L15.4884 4.99992Z" fill="white"/>
</g>
<defs>
<clipPath id="clip0_699_50769">
<rect width="20" height="20" fill="white"/>
</clipPath>
</defs>
</svg>
