<svg width="19" height="18" viewBox="0 0 19 18" fill="none" xmlns="http://www.w3.org/2000/svg">
<path d="M10.9574 1.5707C10.1164 0.854034 8.8795 0.854041 8.0386 1.5707L7.02757 2.43227C6.90744 2.53463 6.75809 2.59649 6.60076 2.60905L5.27665 2.71472C4.17525 2.80261 3.30066 3.67721 3.21276 4.7786L3.1071 6.10271C3.09456 6.26003 3.03267 6.40942 2.93031 6.52954L2.06874 7.54055C1.35208 8.38152 1.35209 9.61835 2.06875 10.4592L2.93032 11.4703C3.03267 11.5905 3.09454 11.7398 3.1071 11.8971L3.21278 13.2212C3.30067 14.3226 4.17528 15.1971 5.27668 15.285L6.60077 15.3908C6.75809 15.4033 6.90741 15.4652 7.02753 15.5676L8.03853 16.4291C8.8795 17.1457 10.1164 17.1458 10.9574 16.4291L11.9684 15.5676C12.0885 15.4652 12.2378 15.4033 12.3951 15.3907L13.7193 15.285C14.8206 15.1972 15.6952 14.3226 15.7832 13.2212L15.8888 11.8971C15.9013 11.7398 15.9633 11.5904 16.0656 11.4702L16.9272 10.4593C17.6439 9.61835 17.6439 8.38145 16.9272 7.54055L16.0656 6.52951C15.9632 6.40938 15.9014 6.26003 15.8889 6.10271L15.7832 4.7786C15.6953 3.67722 14.8206 2.80259 13.7193 2.71471L12.3951 2.60904C12.2378 2.59649 12.0885 2.53463 11.9684 2.43227L10.9574 1.5707ZM11.6191 5.81801L12.6798 6.87867L7.37643 12.182L6.31578 11.1213L11.6191 5.81801ZM8.17195 7.67412C7.73259 8.11347 7.02028 8.11347 6.58094 7.67412C6.1416 7.23485 6.1416 6.52251 6.58094 6.08317C7.02028 5.64383 7.73259 5.64383 8.17195 6.08317C8.6113 6.52251 8.6113 7.23485 8.17195 7.67412ZM10.8236 11.9168C10.3842 11.4774 10.3842 10.7652 10.8236 10.3258C11.2629 9.88647 11.9752 9.88647 12.4146 10.3258C12.8539 10.7652 12.8539 11.4774 12.4146 11.9168C11.9752 12.3561 11.2629 12.3561 10.8236 11.9168Z" fill="#212121" fill-opacity="0.6"/>
</svg>
