<svg width="24" height="24" viewBox="0 0 24 24" fill="none" xmlns="http://www.w3.org/2000/svg">
<g clip-path="url(#clip0_1018_25528)">
<path d="M19.7775 17.8341C20.0253 17.8344 20.2637 17.9293 20.4439 18.0994C20.6241 18.2695 20.7325 18.502 20.747 18.7494C20.7615 18.9968 20.681 19.2403 20.522 19.4304C20.363 19.6204 20.1374 19.7425 19.8913 19.7718L19.7775 19.7786H4.22198C3.97418 19.7783 3.73584 19.6834 3.55565 19.5133C3.37546 19.3432 3.26703 19.1107 3.25251 18.8633C3.23798 18.616 3.31847 18.3724 3.47751 18.1824C3.63656 17.9923 3.86216 17.8702 4.10823 17.8409L4.22198 17.8341H19.7775ZM19.7775 11.0286C20.0354 11.0286 20.2827 11.131 20.465 11.3133C20.6473 11.4957 20.7498 11.743 20.7498 12.0008C20.7498 12.2586 20.6473 12.5059 20.465 12.6883C20.2827 12.8706 20.0354 12.973 19.7775 12.973H4.22198C3.96413 12.973 3.71684 12.8706 3.53451 12.6883C3.35219 12.5059 3.24976 12.2586 3.24976 12.0008C3.24976 11.743 3.35219 11.4957 3.53451 11.3133C3.71684 11.131 3.96413 11.0286 4.22198 11.0286H19.7775ZM19.7775 4.22302C20.0354 4.22302 20.2827 4.32545 20.465 4.50778C20.6473 4.69011 20.7498 4.9374 20.7498 5.19524C20.7498 5.45309 20.6473 5.70038 20.465 5.88271C20.2827 6.06504 20.0354 6.16747 19.7775 6.16747H4.22198C3.96413 6.16747 3.71684 6.06504 3.53451 5.88271C3.35219 5.70038 3.24976 5.45309 3.24976 5.19524C3.24976 4.9374 3.35219 4.69011 3.53451 4.50778C3.71684 4.32545 3.96413 4.22302 4.22198 4.22302H19.7775Z" fill="white"/>
</g>
<defs>
<clipPath id="clip0_1018_25528">
<rect width="23.3333" height="23.3333" fill="white" transform="translate(0.333252 0.333374)"/>
</clipPath>
</defs>
</svg>
