<svg width="15" height="16" viewBox="0 0 15 16" fill="none" xmlns="http://www.w3.org/2000/svg">
<path d="M10 2.375C10.3154 2.3749 10.6191 2.494 10.8503 2.70844C11.0816 2.92287 11.2232 3.21678 11.2469 3.53125L11.25 3.625V6.75H12.1875C12.4206 6.75001 12.6452 6.83682 12.8178 6.99351C12.9903 7.1502 13.0983 7.36552 13.1206 7.5975L13.125 7.6875V12.375C13.125 12.8533 12.9423 13.3134 12.6142 13.6614C12.2861 14.0094 11.8374 14.2188 11.36 14.2469L11.25 14.25H3.125C2.80964 14.2501 2.5059 14.131 2.27466 13.9166C2.04342 13.7021 1.90178 13.4082 1.87813 13.0938L1.875 13V3.625C1.8749 3.30964 1.994 3.0059 2.20844 2.77466C2.42287 2.54342 2.71678 2.40178 3.03125 2.37813L3.125 2.375H10ZM11.875 8H11.25V13C11.4158 13 11.5747 12.9342 11.6919 12.8169C11.8092 12.6997 11.875 12.5408 11.875 12.375V8ZM6.875 8.625H5C4.8407 8.62518 4.68748 8.68617 4.57164 8.79553C4.45581 8.90489 4.3861 9.05435 4.37677 9.21337C4.36743 9.3724 4.41917 9.52899 4.52142 9.65114C4.62366 9.7733 4.76869 9.85181 4.92687 9.87063L5 9.875H6.875C7.0343 9.87482 7.18752 9.81383 7.30336 9.70447C7.41919 9.59511 7.4889 9.44565 7.49823 9.28663C7.50757 9.1276 7.45583 8.97101 7.35358 8.84886C7.25134 8.7267 7.10631 8.64819 6.94812 8.62937L6.875 8.625ZM8.125 5.5H5C4.83424 5.5 4.67527 5.56585 4.55806 5.68306C4.44085 5.80027 4.375 5.95924 4.375 6.125C4.375 6.29076 4.44085 6.44973 4.55806 6.56694C4.67527 6.68415 4.83424 6.75 5 6.75H8.125C8.29076 6.75 8.44973 6.68415 8.56694 6.56694C8.68415 6.44973 8.75 6.29076 8.75 6.125C8.75 5.95924 8.68415 5.80027 8.56694 5.68306C8.44973 5.56585 8.29076 5.5 8.125 5.5Z" fill="#667085"/>
</svg>
