<svg width="11" height="14" viewBox="0 0 11 14" fill="none" xmlns="http://www.w3.org/2000/svg">
<path fill-rule="evenodd" clip-rule="evenodd" d="M3.11891 13.4493L3.33963 12.0002L2.84794 11.9883H0.5L2.13173 1.29467C2.13682 1.26229 2.15325 1.23223 2.17725 1.21085C2.20137 1.18947 2.2321 1.17773 2.26426 1.17773H6.22324C7.53766 1.17773 8.44468 1.46037 8.91816 2.01831C9.14019 2.28005 9.28159 2.55365 9.35004 2.85461C9.4218 3.17049 9.42298 3.54782 9.35299 4.00813L9.34791 4.04161V4.33659L9.56993 4.4666C9.75685 4.56913 9.90546 4.68643 10.0194 4.82072C10.2093 5.04459 10.3321 5.32905 10.384 5.66619C10.4377 6.01298 10.42 6.42575 10.3321 6.89302C10.2308 7.43044 10.0671 7.89857 9.84587 8.28152C9.64253 8.63442 9.38338 8.9272 9.07564 9.15399C8.78185 9.36954 8.43285 9.53316 8.03822 9.63789C7.65577 9.74077 7.21975 9.7927 6.74154 9.7927H6.43344C6.21319 9.7927 5.99921 9.8747 5.83121 10.0217C5.66274 10.1718 5.55137 10.3768 5.5172 10.601L5.49391 10.7315L5.10389 13.2858L5.08628 13.3795C5.08155 13.4092 5.07351 13.424 5.06169 13.434C5.05116 13.4431 5.03603 13.4493 5.02125 13.4493H3.11891Z" fill="#28356A"/>
<path fill-rule="evenodd" clip-rule="evenodd" d="M9.77217 4.0752C9.76046 4.15328 9.74687 4.23307 9.73173 4.31506C9.20965 7.0857 7.4234 8.04286 5.14214 8.04286H3.98059C3.70158 8.04286 3.46643 8.25217 3.42304 8.53664L2.6599 13.5399C2.63165 13.7267 2.77092 13.895 2.95322 13.895H5.0134C5.25729 13.895 5.46454 13.7118 5.50296 13.4632L5.52318 13.355L5.91107 10.8108L5.93602 10.6713C5.97397 10.4217 6.18169 10.2384 6.42559 10.2384H6.73368C8.72966 10.2384 10.2922 9.40093 10.7489 6.97707C10.9396 5.96457 10.8409 5.1191 10.3361 4.52451C10.1834 4.34525 9.99384 4.19641 9.77217 4.0752Z" fill="#298FC2"/>
<path fill-rule="evenodd" clip-rule="evenodd" d="M9.22492 3.84993C9.14512 3.82586 9.06283 3.80411 8.97842 3.78443C8.89354 3.76525 8.80664 3.74826 8.71714 3.73335C8.40397 3.68106 8.06076 3.65625 7.6932 3.65625H4.59017C4.51368 3.65625 4.44109 3.67409 4.37618 3.70635C4.23301 3.77747 4.12673 3.9175 4.10096 4.08894L3.44079 8.41048L3.42188 8.53646C3.46526 8.25199 3.70041 8.04267 3.97942 8.04267H5.14098C7.42223 8.04267 9.20849 7.08503 9.73056 4.31488C9.74617 4.23289 9.75929 4.15309 9.771 4.07501C9.63894 4.00255 9.49589 3.9406 9.34184 3.88781C9.30377 3.87473 9.26452 3.86215 9.22492 3.84993Z" fill="#22284F"/>
<path fill-rule="evenodd" clip-rule="evenodd" d="M4.10465 4.08911C4.13043 3.91767 4.23671 3.77764 4.37988 3.70701C4.44526 3.67463 4.51738 3.65679 4.59387 3.65679H7.6969C8.06446 3.65679 8.40767 3.68171 8.72084 3.73401C8.81034 3.7488 8.89723 3.76591 8.98212 3.78509C9.06653 3.80464 9.14882 3.82651 9.22862 3.85046C9.26822 3.86268 9.30747 3.87539 9.3459 3.88798C9.49994 3.94077 9.64311 4.00321 9.77517 4.07518C9.93052 3.05131 9.77387 2.35419 9.23831 1.72293C8.64778 1.02789 7.58211 0.730469 6.21839 0.730469H2.25929C1.98075 0.730469 1.74312 0.939788 1.70009 1.22475L0.0510952 12.0283C0.0185835 12.2421 0.178068 12.4349 0.386616 12.4349H2.83079L4.10465 4.08911Z" fill="#28356A"/>
</svg>
