<svg width="20" height="20" viewBox="0 0 20 20" fill="none" xmlns="http://www.w3.org/2000/svg">
<path fill-rule="evenodd" clip-rule="evenodd" d="M7.53556 1.66009C8.19619 1.09716 9.02963 0.777342 9.89726 0.753836C10.7649 0.730331 11.6144 1.00455 12.3046 1.53089L12.4661 1.66009L12.8233 1.96409C13.0833 2.18604 13.3983 2.33373 13.7353 2.39159L13.9044 2.41249L14.3727 2.45049C15.2403 2.51972 16.0579 2.88468 16.6887 3.48436C17.3195 4.08404 17.7253 4.88209 17.8383 5.74509L17.8583 5.93509L17.8963 6.40439C17.9232 6.74479 18.0413 7.07165 18.2383 7.35059L18.3428 7.48549L18.6487 7.84269C19.2116 8.50332 19.5314 9.33676 19.5549 10.2044C19.5784 11.072 19.3042 11.9215 18.7779 12.6117L18.6487 12.7732L18.3437 13.1304C18.1218 13.3904 17.9741 13.7055 17.9162 14.0424L17.8953 14.2115L17.8583 14.6798C17.789 15.5474 17.4241 16.365 16.8244 16.9958C16.2247 17.6266 15.4267 18.0324 14.5637 18.1454L14.3727 18.1654L13.9044 18.2034C13.564 18.2303 13.2371 18.3484 12.9582 18.5454L12.8233 18.6508L12.4651 18.9548C11.8046 19.5179 10.9712 19.8379 10.1036 19.8616C9.23595 19.8853 8.38636 19.6112 7.69611 19.085L7.53556 18.9558L7.17836 18.6508C6.91836 18.4289 6.60328 18.2812 6.26636 18.2233L6.09726 18.2034L5.62891 18.1654C4.7613 18.0962 3.94375 17.7312 3.31295 17.1315C2.68214 16.5318 2.27631 15.7338 2.16331 14.8708L2.14336 14.6808L2.10536 14.2115C2.07846 13.8711 1.96031 13.5442 1.76336 13.2653L1.65791 13.1304L1.35296 12.7722C0.790027 12.1116 0.470213 11.2782 0.446707 10.4105C0.423202 9.54291 0.697422 8.69338 1.22376 8.00324L1.35296 7.84269L1.65696 7.48549C1.87891 7.22548 2.0266 6.91041 2.08446 6.57349L2.10536 6.40439L2.14336 5.93604C2.21259 5.06843 2.57755 4.25088 3.17723 3.62008C3.77691 2.98927 4.57496 2.58344 5.43796 2.47044L5.62796 2.45049L6.09726 2.41249C6.43766 2.38559 6.76452 2.26744 7.04346 2.07049L7.17836 1.96504L7.53556 1.66009ZM12.3758 11.2579C11.9979 11.2579 11.6354 11.4081 11.3682 11.6753C11.1009 11.9426 10.9508 12.305 10.9508 12.6829C10.9508 13.0609 11.1009 13.4233 11.3682 13.6906C11.6354 13.9578 11.9979 14.1079 12.3758 14.1079C12.7537 14.1079 13.1162 13.9578 13.3834 13.6906C13.6507 13.4233 13.8008 13.0609 13.8008 12.6829C13.8008 12.305 13.6507 11.9426 13.3834 11.6753C13.1162 11.4081 12.7537 11.2579 12.3758 11.2579ZM12.1792 6.78629L6.47916 12.4863C6.38843 12.5739 6.31605 12.6788 6.26626 12.7947C6.21648 12.9106 6.19027 13.0352 6.18917 13.1614C6.18808 13.2875 6.21211 13.4126 6.25988 13.5293C6.30765 13.6461 6.37819 13.7522 6.46739 13.8414C6.55658 13.9306 6.66265 14.0011 6.7794 14.0489C6.89616 14.0966 7.02125 14.1207 7.14739 14.1196C7.27353 14.1185 7.39819 14.0923 7.51409 14.0425C7.63 13.9927 7.73483 13.9203 7.82246 13.8296L13.5225 8.12959C13.6955 7.95042 13.7913 7.71045 13.7891 7.46136C13.7869 7.21227 13.687 6.974 13.5109 6.79786C13.3348 6.62172 13.0965 6.52181 12.8474 6.51965C12.5983 6.51749 12.3583 6.61324 12.1792 6.78629ZM7.62581 6.50794C7.24788 6.50794 6.88542 6.65807 6.61818 6.92531C6.35094 7.19255 6.20081 7.55501 6.20081 7.93294C6.20081 8.31087 6.35094 8.67333 6.61818 8.94057C6.88542 9.20781 7.24788 9.35794 7.62581 9.35794C8.00374 9.35794 8.3662 9.20781 8.63344 8.94057C8.90068 8.67333 9.05081 8.31087 9.05081 7.93294C9.05081 7.55501 8.90068 7.19255 8.63344 6.92531C8.3662 6.65807 8.00374 6.50794 7.62581 6.50794Z" fill="#1769FF"/>
</svg>
