<svg width="22" height="22" viewBox="0 0 22 22" fill="none" xmlns="http://www.w3.org/2000/svg">
<path d="M12.9471 1.09411C11.8258 0.138549 10.1766 0.138559 9.05538 1.0941L7.70733 2.24286C7.54716 2.37935 7.34803 2.46183 7.13826 2.47857L5.37278 2.61946C3.90424 2.73665 2.73812 3.90278 2.62093 5.3713L2.48005 7.13678C2.46332 7.34654 2.38081 7.54573 2.24432 7.70589L1.09556 9.0539C0.140015 10.1752 0.140025 11.8243 1.09558 12.9455L2.24434 14.2936C2.38081 14.4538 2.46329 14.6529 2.48004 14.8627L2.62095 16.6281C2.73814 18.0966 3.90428 19.2627 5.37282 19.3799L7.13827 19.5209C7.34803 19.5376 7.54713 19.6201 7.70729 19.7566L9.05527 20.9053C10.1766 21.8608 11.8258 21.8609 12.9471 20.9053L14.2951 19.7566C14.4552 19.6201 14.6543 19.5376 14.8641 19.5208L16.6296 19.3799C18.0981 19.2628 19.2642 18.0967 19.3815 16.6281L19.5223 14.8627C19.539 14.6529 19.6216 14.4537 19.758 14.2935L20.9068 12.9456C21.8624 11.8243 21.8624 10.1751 20.9068 9.0539L19.758 7.70585C19.6215 7.54568 19.5391 7.34654 19.5224 7.13679L19.3815 5.37131C19.2643 3.9028 18.0981 2.73663 16.6296 2.61945L14.8641 2.47856C14.6543 2.46182 14.4552 2.37935 14.2951 2.24286L12.9471 1.09411ZM13.8294 6.75718L15.2436 8.1714L8.17248 15.2425L6.75828 13.8282L13.8294 6.75718ZM9.23317 9.232C8.64735 9.8178 7.69762 9.8178 7.11183 9.232C6.52604 8.6463 6.52604 7.69652 7.11183 7.11073C7.69762 6.52494 8.64735 6.52494 9.23317 7.11073C9.81897 7.69652 9.81897 8.6463 9.23317 9.232ZM12.7687 14.8889C12.1829 14.3031 12.1829 13.3534 12.7687 12.7676C13.3545 12.1818 14.3042 12.1818 14.89 12.7676C15.4758 13.3534 15.4758 14.3031 14.89 14.8889C14.3042 15.4747 13.3545 15.4747 12.7687 14.8889Z" fill="#667085"/>
</svg>
