<svg width="25" height="25" viewBox="0 0 25 25" fill="none" xmlns="http://www.w3.org/2000/svg">
<path d="M21.5 16.92V20.4561C21.5 20.9811 21.0941 21.4167 20.5705 21.4537C20.1331 21.4846 19.7763 21.5 19.5 21.5C10.6634 21.5 3.5 14.3366 3.5 5.5C3.5 5.22371 3.51545 4.86687 3.54635 4.4295C3.58337 3.90588 4.01894 3.5 4.54386 3.5H8.0801C8.33678 3.5 8.55176 3.69442 8.57753 3.9498C8.60067 4.17907 8.62218 4.36314 8.64207 4.50202C8.84435 5.91472 9.25753 7.25936 9.8487 8.50303C9.94359 8.70265 9.88171 8.94159 9.70185 9.07006L7.54355 10.6118C8.85752 13.6811 11.3189 16.1425 14.3882 17.4565L15.9271 15.3019C16.0572 15.1199 16.299 15.0573 16.501 15.1532C17.7446 15.7439 19.0891 16.1566 20.5016 16.3584C20.6396 16.3782 20.8225 16.3995 21.0502 16.4225C21.3056 16.4483 21.5 16.6633 21.5 16.92Z" fill="white"/>
</svg>
