<svg width="20" height="20" viewBox="0 0 20 20" fill="none" xmlns="http://www.w3.org/2000/svg">
<g clip-path="url(#clip0_699_50910)">
<path fill-rule="evenodd" clip-rule="evenodd" d="M6.80992 13.1909C10.0141 16.3951 12.9833 16.7459 13.8549 16.7784C14.9083 16.8167 15.9833 15.9567 16.4483 15.0759C15.7066 14.2059 14.7408 13.5309 13.6833 12.7992C13.0591 13.4226 12.2899 14.5809 11.2658 14.1659C10.6833 13.9317 9.24492 13.2692 7.98825 12.0117C6.73075 10.7551 6.06909 9.31672 5.83325 8.73506C5.41825 7.70922 6.57992 6.93839 7.20409 6.31422C6.47242 5.23922 5.80909 4.24839 4.94075 3.54422C4.04742 4.01089 3.18242 5.07756 3.22159 6.14506C3.25408 7.01672 3.60492 9.98589 6.80992 13.1909ZM13.7933 18.4442C12.5933 18.4001 9.19242 17.9301 5.63075 14.3692C2.06992 10.8076 1.60075 7.40756 1.55575 6.20672C1.48909 4.37672 2.89075 2.59922 4.50992 1.90506C4.7049 1.82086 4.91842 1.78881 5.12953 1.81204C5.34064 1.83527 5.54208 1.91298 5.71409 2.03756C7.05409 3.01506 7.97825 4.49589 8.77242 5.65589C8.93763 5.8971 9.01331 6.18848 8.98637 6.47959C8.95944 6.77071 8.83158 7.04325 8.62492 7.25006L7.49492 8.38089C7.75742 8.96006 8.29158 9.95839 9.16658 10.8334C10.0416 11.7084 11.0399 12.2426 11.6199 12.5051L12.7491 11.3751C12.9567 11.168 13.2304 11.0403 13.5224 11.0142C13.8145 10.9882 14.1065 11.0655 14.3474 11.2326C15.5308 12.0526 16.9208 12.9634 17.9341 14.2609C18.0688 14.4341 18.1545 14.6404 18.1822 14.8581C18.2099 15.0758 18.1786 15.2969 18.0916 15.4984C17.3941 17.1259 15.6291 18.5117 13.7933 18.4442Z" fill="white"/>
</g>
<defs>
<clipPath id="clip0_699_50910">
<rect width="20" height="20" fill="white"/>
</clipPath>
</defs>
</svg>
