<svg width="20" height="21" viewBox="0 0 20 21" fill="none" xmlns="http://www.w3.org/2000/svg">
<g clip-path="url(#clip0_728_13882)">
<path d="M10 2.16699C10.7433 2.16699 11.675 2.26116 12.4508 2.52366C12.8375 2.65366 13.2425 2.84449 13.5642 3.13449C13.9025 3.43866 14.1667 3.87366 14.1667 4.42866C14.1667 4.96366 13.9217 5.40533 13.6275 5.73366C13.4624 5.91562 13.2771 6.07807 13.075 6.21783C15.5625 7.40366 17.5 9.94616 17.5 13.0003C17.5 15.1303 16.65 16.6553 15.195 17.6045C13.7992 18.5145 11.9417 18.8337 10 18.8337C8.05833 18.8337 6.2 18.5145 4.805 17.6045C3.35 16.6553 2.5 15.1295 2.5 13.0003C2.5 9.94616 4.4375 7.40366 6.925 6.21783C6.72298 6.07834 6.5376 5.91617 6.3725 5.73449C6.07833 5.40449 5.83333 4.96283 5.83333 4.42783C5.83333 3.87283 6.0975 3.43783 6.43583 3.13366C6.7575 2.84366 7.1625 2.65283 7.54917 2.52283C8.325 2.26116 9.25667 2.16699 10 2.16699ZM10 7.16699C7.09333 7.16699 4.16667 9.74366 4.16667 13.0003C4.16667 14.6203 4.775 15.5953 5.71583 16.2087C6.71583 16.8612 8.19167 17.167 10 17.167C11.8083 17.167 13.2833 16.8612 14.2842 16.2087C15.225 15.5953 15.8333 14.6203 15.8333 13.0003C15.8333 9.74366 12.9067 7.16699 10 7.16699ZM11.6225 9.33866C11.82 9.43753 11.9702 9.61077 12.04 9.82031C12.1099 10.0299 12.0937 10.2586 11.995 10.4562L11.5567 11.3337H11.6667C11.8877 11.3337 12.0996 11.4215 12.2559 11.5777C12.4122 11.734 12.5 11.946 12.5 12.167C12.5 12.388 12.4122 12.6 12.2559 12.7562C12.0996 12.9125 11.8877 13.0003 11.6667 13.0003H10.8333V13.417H11.6667C11.8877 13.417 12.0996 13.5048 12.2559 13.6611C12.4122 13.8174 12.5 14.0293 12.5 14.2503C12.5 14.4713 12.4122 14.6833 12.2559 14.8396C12.0996 14.9959 11.8877 15.0837 11.6667 15.0837H10.8333V15.5003C10.8333 15.7213 10.7455 15.9333 10.5893 16.0896C10.433 16.2459 10.221 16.3337 10 16.3337C9.77899 16.3337 9.56702 16.2459 9.41074 16.0896C9.25446 15.9333 9.16667 15.7213 9.16667 15.5003V15.0837H8.33333C8.11232 15.0837 7.90036 14.9959 7.74408 14.8396C7.5878 14.6833 7.5 14.4713 7.5 14.2503C7.5 14.0293 7.5878 13.8174 7.74408 13.6611C7.90036 13.5048 8.11232 13.417 8.33333 13.417H9.16667V13.0003H8.33333C8.11232 13.0003 7.90036 12.9125 7.74408 12.7562C7.5878 12.6 7.5 12.388 7.5 12.167C7.5 11.946 7.5878 11.734 7.74408 11.5777C7.90036 11.4215 8.11232 11.3337 8.33333 11.3337H8.44333L8.005 10.4562C7.95203 10.3579 7.91933 10.2501 7.90884 10.139C7.89835 10.0278 7.91028 9.91576 7.94394 9.80935C7.97759 9.70294 8.03227 9.60438 8.10474 9.5195C8.17721 9.43463 8.26598 9.36518 8.36581 9.31527C8.46563 9.26536 8.57445 9.23601 8.68583 9.22896C8.79721 9.22191 8.90887 9.2373 9.01419 9.27422C9.11951 9.31115 9.21634 9.36885 9.29893 9.4439C9.38152 9.51896 9.4482 9.60984 9.495 9.71116L10 10.7195L10.505 9.71116C10.6039 9.51365 10.7771 9.36347 10.9867 9.29362C11.1962 9.22378 11.4249 9.23997 11.6225 9.33866ZM10 3.83366C9.3625 3.83366 8.6275 3.91783 8.0825 4.10199C7.8075 4.19533 7.63833 4.29366 7.55083 4.37283L7.5075 4.41866C7.50477 4.4224 7.50227 4.42629 7.5 4.43033L7.50583 4.45699C7.53036 4.51927 7.56721 4.57596 7.61417 4.62366C7.73083 4.75366 7.92667 4.90199 8.19917 5.04283C8.74917 5.32783 9.45167 5.50033 10 5.50033C10.5483 5.50033 11.2517 5.32783 11.8008 5.04283C12.0733 4.90199 12.2683 4.75366 12.3858 4.62283C12.4327 4.57537 12.4695 4.51897 12.4942 4.45699L12.5 4.43033L12.4767 4.40033C12.4679 4.39073 12.4588 4.38156 12.4492 4.37283C12.3617 4.29449 12.1925 4.19533 11.9175 4.10199C11.3725 3.91866 10.6375 3.83366 10 3.83366Z" fill="white"/>
</g>
<defs>
<clipPath id="clip0_728_13882">
<rect width="20" height="20" fill="white" transform="translate(0 0.5)"/>
</clipPath>
</defs>
</svg>
