<svg width="15" height="16" viewBox="0 0 15 16" fill="none" xmlns="http://www.w3.org/2000/svg">
<g clip-path="url(#clip0_520_6013)">
<path d="M13.125 10.5894V11.4375C13.125 11.9462 12.8869 12.3812 12.5562 12.7231C12.2294 13.0619 11.7856 13.3381 11.2863 13.5569C10.285 13.9944 8.94625 14.25 7.5 14.25C6.05375 14.25 4.715 13.995 3.71375 13.5569C3.21437 13.3381 2.77063 13.0619 2.44375 12.7231C2.14063 12.4106 1.91562 12.0181 1.88 11.5631L1.875 11.4375V10.5894C2.16563 10.7544 2.47625 10.9006 2.80875 11.0237C4.0775 11.4931 5.73688 11.755 7.5 11.755C9.26312 11.755 10.9225 11.4931 12.1912 11.0237C12.4406 10.9312 12.6775 10.8262 12.9031 10.7094L13.125 10.5894ZM1.875 7.15187C2.16563 7.31687 2.47625 7.46313 2.80875 7.58625C4.0775 8.05562 5.73688 8.3175 7.5 8.3175C9.26312 8.3175 10.9225 8.05562 12.1912 7.58625C12.5238 7.46313 12.8344 7.3175 13.125 7.15187V9.0925C12.71 9.41284 12.2489 9.66865 11.7575 9.85125C10.6606 10.2575 9.155 10.5056 7.5 10.5056C5.84562 10.5056 4.34 10.2575 3.2425 9.85125C2.75106 9.66865 2.29002 9.41284 1.875 9.0925V7.15187ZM7.5 2.375C8.94625 2.375 10.285 2.63 11.2863 3.06813C11.7856 3.28688 12.2294 3.56312 12.5562 3.90187C12.8594 4.21437 13.0844 4.60687 13.12 5.06187L13.125 5.1875V5.655C12.71 5.97536 12.249 6.23116 11.7575 6.41375C10.6606 6.82 9.155 7.06812 7.5 7.06812C5.84562 7.06812 4.34 6.82 3.2425 6.41375C2.80563 6.25187 2.41125 6.03875 2.05187 5.785L1.875 5.655V5.1875C1.875 4.67875 2.11313 4.24375 2.44375 3.90187C2.77063 3.56312 3.21437 3.28688 3.71375 3.06813C4.715 2.63063 6.05375 2.375 7.5 2.375Z" fill="#667085"/>
</g>
<defs>
<clipPath id="clip0_520_6013">
<rect width="15" height="15" fill="white" transform="translate(0 0.5)"/>
</clipPath>
</defs>
</svg>
