<svg width="18" height="14" viewBox="0 0 18 14" fill="none" xmlns="http://www.w3.org/2000/svg">
<path d="M11.707 0.636099L17.364 6.2931C17.5515 6.48063 17.6568 6.73493 17.6568 7.0001C17.6568 7.26526 17.5515 7.51957 17.364 7.7071L11.707 13.3641C11.5184 13.5463 11.2658 13.6471 11.0036 13.6448C10.7414 13.6425 10.4906 13.5373 10.3052 13.3519C10.1198 13.1665 10.0146 12.9157 10.0123 12.6535C10.01 12.3913 10.1108 12.1387 10.293 11.9501L14.243 8.0001H1C0.734784 8.0001 0.48043 7.89474 0.292893 7.70721C0.105357 7.51967 0 7.26532 0 7.0001C0 6.73488 0.105357 6.48053 0.292893 6.29299C0.48043 6.10546 0.734784 6.0001 1 6.0001H14.243L10.293 2.0501C10.1975 1.95785 10.1213 1.84751 10.0689 1.7255C10.0165 1.6035 9.9889 1.47228 9.98775 1.3395C9.9866 1.20672 10.0119 1.07504 10.0622 0.952145C10.1125 0.829248 10.1867 0.717597 10.2806 0.623704C10.3745 0.529811 10.4861 0.455558 10.609 0.405277C10.7319 0.354996 10.8636 0.329694 10.9964 0.330848C11.1292 0.332002 11.2604 0.359588 11.3824 0.411997C11.5044 0.464406 11.6148 0.540589 11.707 0.636099Z" fill="white"/>
</svg>
