<svg width="29" height="20" viewBox="0 0 29 20" fill="none" xmlns="http://www.w3.org/2000/svg">
<mask id="mask0_1018_36494" style="mask-type:luminance" maskUnits="userSpaceOnUse" x="0" y="0" width="29" height="20">
<path d="M28.9016 0.640625H0.101562V19.8406H28.9016V0.640625Z" fill="white"/>
</mask>
<g mask="url(#mask0_1018_36494)">
<path d="M0.101562 19.8406H28.9016V0.640625H0.101562V19.8406Z" fill="#005430"/>
<path d="M21.7008 8.26734C21.6988 7.93003 21.5679 7.02152 21.5347 6.71674C21.5015 6.41195 21.4682 6.13546 21.4763 6.07071C21.4841 6.00823 21.5803 6.15758 21.6311 6.16966C21.6575 6.16439 21.6457 6.07006 21.5979 5.98951C21.5655 5.93481 21.4553 5.73027 21.3884 5.61042C21.357 5.55369 21.3499 5.52079 21.3348 5.51382C21.3197 5.50685 21.1979 5.75247 21.2113 5.77971C21.2445 5.82963 21.2673 5.85345 21.2725 5.94162C21.2777 6.02979 21.3233 6.65928 21.3814 7.13643C21.4251 7.49639 21.5211 8.2719 21.5246 8.75406C21.5255 8.91142 21.5081 9.06134 21.4871 9.12398C21.4334 9.2223 21.3494 9.3111 21.0367 9.49406C20.6851 9.69982 20.2161 9.87102 20.0145 9.98558C19.8891 10.0571 19.9307 10.0666 20.0399 10.0353C20.1487 10.0041 20.7116 9.90382 20.9851 9.7883C21.2418 9.67958 21.4084 9.49758 21.5349 9.23222C21.6911 8.90406 21.703 8.62566 21.7008 8.26734Z" fill="white"/>
<path d="M20.6137 5.70438C20.6409 5.69384 20.8658 5.68225 20.9264 5.69473C20.8866 5.75162 20.6169 5.87755 20.6157 5.90065C20.623 5.91621 20.8021 5.87188 20.8585 5.84724C20.8954 5.82504 20.92 5.79068 20.9473 5.76215C21.0119 5.68793 21.0884 5.55024 21.0691 5.53298C21.0378 5.5051 20.7311 5.52245 20.6907 5.5282C20.6637 5.53209 20.5949 5.65526 20.5823 5.68687C20.5699 5.71847 20.5865 5.71491 20.6137 5.70438Z" fill="white"/>
<path d="M21.0714 7.7038C21.1183 7.54497 21.1299 7.35226 21.066 7.14942C21.0004 6.94059 20.8376 6.81329 20.7202 6.74805L20.6992 6.9491C20.6992 6.9491 20.8639 7.03095 20.9765 7.23703C21.0479 7.36774 21.0776 7.55258 21.0212 7.75866C21.0119 7.8098 21.0484 7.7816 21.0714 7.7038Z" fill="white"/>
<path d="M19.3313 8.712C19.3735 8.56896 19.3839 8.39552 19.3266 8.2128C19.2675 8.02472 19.1208 7.91007 19.0151 7.85156L18.9961 8.03248C18.9961 8.03248 19.1444 8.10624 19.2458 8.29168C19.3102 8.40928 19.3368 8.57592 19.2863 8.76144C19.2778 8.80728 19.3107 8.782 19.3313 8.712Z" fill="white"/>
<path d="M13.279 5.97411C13.3468 6.09817 13.375 6.27386 13.3215 6.46957C13.3127 6.51811 13.3471 6.49145 13.3691 6.41754C13.4135 6.26681 13.4246 6.08367 13.3639 5.89089C13.3016 5.69242 13.1469 5.5716 13.0353 5.50977L13.0156 5.70069C13.0156 5.70069 13.172 5.77841 13.279 5.97411Z" fill="white"/>
<path d="M9.19987 6.03931C9.25683 6.17286 9.26067 6.35317 9.16867 6.54312C9.15075 6.59085 9.19435 6.56824 9.23091 6.49685C9.30555 6.3509 9.34747 6.16824 9.30963 5.96646C9.27075 5.759 9.11491 5.61759 8.99827 5.54102L8.94531 5.73056C8.94531 5.73056 9.11003 5.82878 9.19987 6.03931Z" fill="white"/>
<path d="M10.3256 9.02348C10.398 8.88916 10.4282 8.79869 10.4603 8.63957C10.4885 8.49957 10.4903 8.33781 10.4802 8.17309C10.6968 8.08477 10.9551 7.93819 11.0419 7.92741C10.9825 8.13117 11.1242 8.35101 11.4103 8.32229C11.4322 8.55269 11.4509 8.75501 11.4623 8.87509C11.4856 9.12109 11.4821 9.43117 11.4814 9.48501C11.4804 9.53917 11.5196 9.52892 11.5599 9.40837C11.6135 9.24692 11.6301 8.82541 11.6106 8.54661C11.6059 8.47693 11.5981 8.38285 11.5885 8.27565C11.774 8.18981 11.8048 8.02421 11.8742 7.95359C11.9367 8.17277 12.2812 8.20253 12.3875 8.15565C12.5194 8.09733 12.5626 7.99257 12.5965 7.74937C12.6305 7.50626 12.5315 7.40837 12.496 7.38187C12.4926 7.41128 12.4063 7.69702 12.4063 7.69702C12.4063 7.69702 12.4881 7.78341 12.4922 7.82587C12.4255 7.88617 12.2851 7.88989 12.1671 7.85148C12.0491 7.81307 12.0128 7.74241 12.0199 7.695C12.0267 7.64743 12.0711 7.60416 12.0726 7.54621C12.0739 7.48827 12.0461 7.50504 11.9989 7.55634C11.9516 7.60772 11.9211 7.65391 11.8558 7.76421C11.8023 7.8544 11.7155 7.96445 11.5625 7.99589C11.5372 7.73106 11.5084 7.44929 11.4891 7.27231C11.4791 7.17887 11.3783 6.37141 11.3711 6.28106C11.3649 6.20237 11.3533 6.10958 11.3552 6.06599C11.3571 6.0313 11.3788 6.04508 11.4125 6.08138C11.4463 6.11761 11.5052 6.18081 11.5154 6.17588C11.5498 6.15902 11.5147 6.05408 11.4697 5.96007C11.4248 5.86582 11.2715 5.49403 11.2394 5.47871C11.2228 5.47093 11.1194 5.69978 11.1133 5.74484C11.1293 5.77304 11.1712 5.81737 11.1727 5.94346C11.1732 5.97863 11.1959 6.31023 11.2272 6.62376C11.2547 6.90067 11.2911 7.16339 11.2945 7.19394C11.3195 7.40529 11.3499 7.70318 11.3787 7.99605C11.2126 7.96445 11.1684 7.85489 11.1721 7.79241C11.1763 7.7219 11.2081 7.64233 11.1929 7.62433C11.1609 7.60513 10.9705 7.71153 10.705 7.82587C10.6303 7.85797 10.5462 7.89241 10.4574 7.92506C10.4343 7.72547 10.4038 7.53568 10.3915 7.39054L10.39 7.37441C10.5646 7.36315 10.7075 7.27498 10.7726 7.19103C10.8539 7.08609 10.9107 6.87012 10.9162 6.70464C10.9217 6.539 10.788 6.23617 10.7562 6.13989C10.7241 6.04354 10.7075 5.97677 10.7047 5.94346C10.7019 5.91015 10.777 5.98203 10.8242 5.99613C10.8562 6.00253 10.8451 5.93325 10.8061 5.88568C10.7672 5.83827 10.5572 5.51955 10.5425 5.54192C10.5335 5.55505 10.4493 5.78949 10.4438 5.82539C10.4769 5.84727 10.5157 5.90756 10.5184 5.96534C10.5212 6.02312 10.5675 6.27717 10.6187 6.41833C10.6702 6.5595 10.7798 6.83033 10.7867 6.90481C10.7084 6.95999 10.5303 7.05342 10.3539 7.04784C10.3238 6.80083 10.2856 6.51396 10.2651 6.3108C10.2573 6.23228 10.2567 6.14849 10.258 6.10473C10.259 6.07004 10.2839 6.07482 10.3183 6.11048C10.3528 6.14613 10.4058 6.198 10.4167 6.19427C10.4403 6.18641 10.4198 6.10772 10.3729 6.01429C10.326 5.92085 10.1396 5.52563 10.107 5.51089C10.0904 5.50335 10.007 5.72531 10.0017 5.77061C10.0183 5.79865 10.0611 5.842 10.0652 5.96809C10.0686 6.0685 10.1175 6.56056 10.1594 6.99394C9.98499 6.90375 9.92547 6.77482 9.90387 6.55837C9.88883 6.40748 9.88731 6.12952 9.83347 5.89702C9.80315 5.76558 9.73931 5.63203 9.66355 5.56113C9.64547 5.60481 9.56483 5.87296 9.56483 5.87296C9.59115 5.94994 9.67291 6.20918 9.67011 6.43381C9.66739 6.65845 9.64971 6.87806 9.39795 7.02936C9.14643 7.18073 8.76907 7.12053 8.67587 6.88438C8.58275 6.64808 8.78987 6.05561 8.78715 5.91574C8.78435 5.77588 8.75931 5.75659 8.70091 5.77969C8.64251 5.80278 8.52307 5.93762 8.42011 6.15699C8.31723 6.37653 8.27147 6.64841 8.21299 6.83325C8.15475 7.01809 8.06139 7.20537 7.91694 7.195C7.77249 7.18479 7.69474 7.05261 7.65031 6.86145C7.60578 6.67012 7.63304 6.41817 7.64513 6.35359C7.67529 6.19184 7.60543 6.22498 7.56265 6.47895C7.53618 6.6356 7.50989 6.88576 7.60306 7.14759C7.69606 7.40942 7.85462 7.50707 7.99354 7.47361C8.13259 7.44029 8.25475 7.11428 8.29787 6.96785C8.34091 6.82166 8.53347 6.17231 8.64251 6.14038C8.65779 6.21356 8.55779 6.44945 8.52579 6.72539C8.49387 7.00132 8.56827 7.37198 8.91851 7.43608C9.26875 7.50026 9.50643 7.27312 9.59259 7.11542C9.67883 6.95748 9.71907 6.79192 9.72875 6.70853C9.73995 6.9202 9.88443 7.25075 10.165 7.345L10.1939 7.35334C10.2111 7.52661 10.2393 7.75277 10.2651 7.99029C10.2106 8.00717 10.1555 8.02237 10.1006 8.03549C10.0935 8.01277 10.0859 7.99046 10.0764 7.96996C9.99083 7.78576 9.84907 7.61599 9.65267 7.62773C9.45203 7.63965 9.23331 7.9074 9.24283 8.10293C9.24915 8.23445 9.32155 8.34237 9.58483 8.37005C9.70507 8.38277 9.83283 8.36941 9.96475 8.34061C9.98331 8.39501 9.99507 8.44909 9.99635 8.49829C9.91291 8.59589 9.22251 9.11661 8.70555 9.16669C8.18859 9.21669 8.03089 8.94573 8.02571 8.67365C8.02185 8.46669 8.14635 8.26013 8.23379 8.11717C8.35899 8.02565 8.46171 7.91113 8.52651 7.82279C8.54419 7.83365 8.56091 7.8437 8.57683 7.85302C8.63867 7.88892 8.66331 7.94257 8.66331 7.94257C8.67467 7.92506 8.72779 7.82944 8.70699 7.78268C8.69747 7.77117 8.65075 7.7424 8.59459 7.70829C8.65355 7.56129 8.65275 7.41452 8.57635 7.38187C8.49091 7.34548 8.37931 7.44662 8.33115 7.50829C8.30619 7.54038 8.29667 7.57677 8.29643 7.60732C8.29611 7.64662 8.31459 7.68211 8.36035 7.71372C8.40595 7.74484 8.44827 7.77304 8.48803 7.79848C8.37507 7.91712 8.10811 8.09093 7.94473 8.19309C7.93868 8.17805 7.91475 8.19389 7.88258 8.23181L7.83832 8.25909C7.70798 8.33885 7.39542 8.51397 7.33397 8.55685C7.27245 8.59981 7.31101 8.59196 7.33397 8.58244C7.37737 8.55901 7.43433 8.53069 7.49832 8.49941C7.58895 8.45501 7.6944 8.40485 7.79747 8.35453C7.76697 8.40629 7.73541 8.46669 7.70745 8.53269C7.58448 8.82301 7.38569 9.42484 7.8157 9.78692C8.22715 10.1335 8.93427 10.0016 9.52075 9.64141C10.1073 9.28117 10.2339 9.15444 10.3256 9.02348ZM8.41347 7.59208C8.39315 7.57709 8.39035 7.55707 8.40691 7.54313C8.42803 7.52514 8.45499 7.50813 8.48571 7.50237C8.55075 7.49029 8.57667 7.56501 8.55059 7.68138C8.50115 7.65116 8.45027 7.61939 8.41347 7.59208ZM9.75875 8.08293C9.46011 8.08429 9.44635 8.03013 9.45195 7.9954C9.45747 7.96088 9.55051 7.86615 9.66843 7.92863C9.71835 7.95513 9.77451 8.01052 9.82651 8.0802C9.80355 8.08189 9.78091 8.08277 9.75875 8.08293ZM8.84411 9.65333C8.27987 9.80732 7.72954 9.56877 7.69624 9.09637C7.67073 8.73565 7.80229 8.46389 7.88713 8.31069C7.96804 8.27069 8.04447 8.23181 8.10763 8.19693C7.95997 8.43477 7.87355 8.75333 7.93131 9.02317C7.9967 9.32885 8.26267 9.5142 8.71291 9.45436C9.15867 9.39532 9.76147 8.97133 9.93235 8.81149C9.98443 8.75373 10.0188 8.70173 10.0656 8.59573C10.0849 8.55221 10.1119 8.49477 10.122 8.42981C10.1286 8.38757 10.1321 8.34229 10.1329 8.29629C10.1852 8.28069 10.2379 8.26317 10.2907 8.24437C10.3087 8.43789 10.3219 8.62861 10.3227 8.79365C10.045 9.11941 9.40835 9.49932 8.84411 9.65333Z" fill="white"/>
<path d="M18.7129 8.41523C18.6938 8.09915 18.6477 7.52714 18.6219 7.23694C18.5991 6.97868 18.5543 6.6247 18.5215 6.31312C18.5133 6.23467 18.5124 6.15955 18.5133 6.11587C18.5142 6.08135 18.5488 6.09464 18.5834 6.13014C18.6178 6.16563 18.6718 6.2102 18.682 6.20477C18.7158 6.18726 18.6754 6.10072 18.6279 6.00761C18.5806 5.91434 18.3926 5.52851 18.3598 5.51385C18.3432 5.50639 18.2551 5.73751 18.25 5.78281C18.2668 5.81069 18.3098 5.85388 18.3145 5.97998C18.3193 6.10615 18.383 6.68622 18.429 7.15534C18.4609 7.48143 18.5021 8.01355 18.5321 8.41475C18.5306 8.41539 18.5604 8.79619 18.5636 8.83899C18.582 9.08531 18.5725 9.39531 18.5706 9.44907C18.5686 9.50315 18.6082 9.49371 18.6506 9.37379C18.6938 9.25139 18.7184 8.97795 18.7218 8.73107L18.7129 8.41523Z" fill="white"/>
<path d="M17.1124 7.30889C17.0545 7.32656 16.9637 7.26538 16.9706 7.13709C16.9769 7.02121 17.0265 6.9127 17.0456 6.84423C17.072 6.74974 17.0721 6.65865 17.0499 6.71028C16.9997 6.82567 16.9064 7.04876 16.8871 7.20014C16.8677 7.35152 16.9168 7.44909 16.9835 7.4824C17.0666 7.52413 17.1264 7.45792 17.167 7.36036C17.2059 7.26692 17.1985 7.15784 17.1716 7.18353C17.1489 7.21036 17.1405 7.30022 17.1124 7.30889Z" fill="white"/>
<path d="M16.2798 7.77455C16.3104 7.69303 16.3176 7.61313 16.294 7.65697C16.2408 7.75518 16.1412 7.94498 16.112 8.07683C16.0829 8.20867 16.1182 8.29787 16.1743 8.33171C16.2442 8.37395 16.3018 8.31979 16.3454 8.23667C16.387 8.15723 16.3891 8.06067 16.3635 8.08163C16.3414 8.10363 16.3268 8.18203 16.3016 8.18779C16.249 8.19939 16.1742 8.13939 16.1904 8.02691C16.2051 7.92561 16.2575 7.83347 16.2798 7.77455Z" fill="white"/>
<path d="M13.8569 9.49504C13.9082 9.41184 13.9336 9.32552 13.8981 9.36912C13.8186 9.46656 13.6683 9.6556 13.6077 9.79424C13.5472 9.93288 13.5665 10.037 13.6204 10.0844C13.6876 10.1436 13.7626 10.095 13.828 10.0124C13.8909 9.9332 13.9143 9.82816 13.8814 9.84608C13.8526 9.86632 13.8197 9.9492 13.7906 9.95072C13.731 9.95368 13.6621 9.87416 13.7043 9.7544C13.7426 9.64624 13.8198 9.55536 13.8569 9.49504Z" fill="white"/>
<path d="M18.1023 7.06647C18.0435 7.08122 17.9565 7.01533 17.9711 6.88754C17.9843 6.77222 18.0404 6.66647 18.0636 6.59921C18.0956 6.5061 18.1012 6.41525 18.0758 6.4655C18.019 6.5783 17.9124 6.79613 17.884 6.94637C17.8555 7.09653 17.8984 7.19645 17.9632 7.23317C18.0438 7.27887 18.1072 7.21598 18.1537 7.12053C18.1981 7.02928 18.1975 6.92004 18.1688 6.94435C18.1447 6.97012 18.1309 7.05934 18.1023 7.06647Z" fill="white"/>
<path d="M18.0882 8.63359C18.1687 8.67935 18.2325 8.61647 18.2788 8.52095C18.3231 8.42975 18.3225 8.32047 18.294 8.34479C18.2697 8.37039 18.256 8.45983 18.2273 8.46695C18.1685 8.48159 18.0813 8.41575 18.0961 8.28799C18.1093 8.17271 18.1654 8.06687 18.1885 7.99966C18.2205 7.90655 18.2261 7.81555 18.2009 7.86595C18.1438 7.97876 18.0374 8.19655 18.0089 8.34663C17.9805 8.49695 18.0235 8.59687 18.0882 8.63359Z" fill="white"/>
<path d="M19.1151 6.63126C19.1538 6.51862 19.1604 6.40866 19.1298 6.46951C19.0609 6.60598 18.932 6.86951 18.8975 7.05144C18.8631 7.23321 18.9153 7.35403 18.9935 7.39853C19.091 7.45379 19.168 7.3777 19.2242 7.2623C19.2777 7.15185 19.2769 7.01951 19.2424 7.0491C19.2132 7.08013 19.1965 7.18807 19.1618 7.19674C19.0907 7.21457 18.9853 7.13491 19.0031 6.98029C19.0191 6.84074 19.0871 6.71278 19.1151 6.63126Z" fill="white"/>
<path d="M10.8947 8.5793C10.958 8.44202 10.981 8.30458 10.9343 8.37778C10.8299 8.54154 10.6334 8.85866 10.5662 9.0833C10.499 9.30802 10.5487 9.46586 10.6412 9.53058C10.7566 9.61098 10.8635 9.52378 10.9491 9.38514C11.0311 9.25218 11.0473 9.08562 11.0001 9.1189C10.9593 9.15458 10.9241 9.28858 10.8794 9.2957C10.7875 9.3101 10.6655 9.1981 10.7081 9.00562C10.7467 8.83194 10.8489 8.67866 10.8947 8.5793Z" fill="white"/>
<path d="M19.7698 9.94124C19.8183 9.90148 20.2407 9.67404 20.3184 9.6278C20.3184 9.6278 20.3979 9.49812 20.374 9.48436C20.3501 9.4706 20.196 9.61076 20.1 9.61468C20.004 9.6186 19.8727 9.54804 19.8684 9.49028C19.8809 9.44668 19.9964 9.38124 20.0381 9.37852C20.0798 9.37612 20.0731 9.47108 20.087 9.48268C20.1009 9.49412 20.1564 9.41708 20.1634 9.385C20.1703 9.353 20.1646 9.219 20.0882 9.2382C19.9673 9.26876 19.785 9.49292 19.7643 9.5634C19.7433 9.63404 19.856 9.69556 19.9381 9.729C19.9312 9.73164 19.8698 9.76108 19.831 9.79956C19.831 9.79956 19.7892 9.84628 19.7698 9.94124Z" fill="white"/>
<path d="M18.3284 10.2225C18.3769 10.1827 18.7993 9.95538 18.8769 9.90906C18.8769 9.90906 18.9566 9.77939 18.9326 9.76563C18.9087 9.75187 18.7545 9.89203 18.6586 9.89595C18.5627 9.89979 18.4313 9.8293 18.4271 9.77154C18.4395 9.72794 18.5549 9.66243 18.5967 9.65995C18.6384 9.65739 18.6317 9.75226 18.6456 9.76378C18.6595 9.7753 18.715 9.69835 18.722 9.66627C18.7289 9.63427 18.7229 9.50019 18.6468 9.51947C18.5259 9.55011 18.3437 9.77411 18.3229 9.84483C18.3019 9.91531 18.4145 9.97682 18.4965 10.0103C18.4897 10.0128 18.4284 10.0423 18.3896 10.0807C18.3896 10.0807 18.3478 10.1275 18.3284 10.2225Z" fill="white"/>
<path d="M15.0862 6.14521C15.1241 6.18922 15.3722 6.50437 15.5665 6.7025C15.7607 6.9008 16.0937 7.22171 16.3383 7.44165C16.3857 7.48427 16.4359 7.53046 16.487 7.57852C16.5487 8.05229 16.6201 8.65509 16.65 8.90437C16.6795 9.14981 16.6839 9.45981 16.6846 9.51373C16.685 9.56781 16.724 9.55677 16.761 9.43549C16.8106 9.27269 16.8163 8.85109 16.79 8.57269C16.7737 8.40069 16.7352 8.07861 16.698 7.78159C16.8424 7.9243 16.9789 8.06589 17.0708 8.17189C17.2399 8.36645 17.3822 8.51317 17.4689 8.72237C17.5302 8.87037 17.524 8.98805 17.5491 9.01133C17.5709 9.03141 17.5949 8.85437 17.5681 8.68269C17.5246 8.40381 17.465 8.28557 17.107 7.88743C16.9705 7.73524 16.8097 7.57617 16.6526 7.42746C16.6465 7.3816 16.641 7.33914 16.636 7.30145C16.6235 7.20834 16.5022 6.40331 16.4927 6.31312C16.4846 6.23459 16.4702 6.14214 16.4714 6.09846C16.4722 6.06369 16.4943 6.07722 16.529 6.11271C16.5636 6.14813 16.6241 6.21012 16.6343 6.2047C16.6682 6.18719 16.6305 6.08322 16.583 5.98994C16.5358 5.89683 16.373 5.52844 16.3403 5.51385C16.3238 5.50639 16.2262 5.73743 16.2212 5.78265C16.2382 5.81053 16.2811 5.85396 16.2858 5.9799C16.287 6.01506 16.3182 6.34618 16.3574 6.65882C16.3922 6.93508 16.4351 7.19707 16.4396 7.22738L16.4398 7.22974C16.2777 7.08192 16.1349 6.95639 16.0483 6.87754C15.8458 6.69351 15.3986 6.2568 15.3806 6.1914C15.3766 6.17074 15.4114 6.18346 15.4751 6.19367C15.5392 6.20396 15.5962 6.22576 15.5859 6.19432C15.5813 6.17949 15.5567 6.14286 15.4957 6.1051C15.4345 6.06726 15.2778 5.9692 15.1612 5.89983C15.0443 5.83054 14.9865 5.77244 14.9624 5.78906C14.9505 5.79724 14.9611 6.03459 14.9681 6.06418C14.9973 6.06669 15.0486 6.10105 15.0862 6.14521Z" fill="white"/>
<path d="M15.4073 5.71872C15.4552 5.70819 15.6824 5.71394 15.7649 5.73128C15.7304 5.75526 15.4979 5.87269 15.452 5.90065C15.4063 5.92869 15.3947 5.9449 15.4177 5.94214C15.4843 5.92366 15.6345 5.90065 15.7065 5.86313C15.7743 5.83136 15.8899 5.67642 15.9349 5.61864C15.9796 5.56086 15.9796 5.53201 15.9681 5.51653C15.9222 5.49157 15.6261 5.46653 15.4833 5.50194C15.4438 5.52877 15.3665 5.67163 15.3551 5.70138C15.3437 5.73128 15.3593 5.72926 15.4073 5.71872Z" fill="white"/>
<path d="M16.6699 5.70058C16.7086 5.69206 16.8917 5.69669 16.9581 5.71062C16.9303 5.72999 16.7431 5.82464 16.7061 5.84733C16.669 5.86977 16.6598 5.8829 16.6783 5.88064C16.732 5.86589 16.8531 5.84734 16.911 5.81694C16.9656 5.79134 17.0587 5.66646 17.095 5.62002C17.131 5.57334 17.131 5.55017 17.1218 5.53777C17.085 5.51743 16.8463 5.49734 16.7312 5.52594C16.6993 5.5475 16.6371 5.66265 16.6279 5.68663C16.6186 5.71062 16.6313 5.70908 16.6699 5.70058Z" fill="white"/>
<path d="M17.6973 5.68695C17.7359 5.67843 17.9189 5.68306 17.9853 5.69699C17.9577 5.71636 17.7703 5.81101 17.7333 5.83354C17.6964 5.85615 17.6872 5.86928 17.7057 5.86701C17.7594 5.85226 17.8899 5.83354 17.9478 5.80331C18.0025 5.77771 18.0672 5.65283 18.1035 5.60623C18.1396 5.55971 18.1396 5.53638 18.1303 5.52414C18.0935 5.5038 17.8735 5.48371 17.7587 5.51215C17.7267 5.53387 17.6644 5.64902 17.6552 5.67301C17.646 5.69699 17.6585 5.69545 17.6973 5.68695Z" fill="white"/>
<path d="M17.0544 6.18642C16.9935 6.28221 17.0698 6.35952 17.0976 6.43691C17.06 6.47119 17.0024 6.43991 16.9831 6.40985C16.942 6.34818 16.9558 6.22249 16.9076 6.20312C16.8952 6.23707 16.8871 6.27475 16.8871 6.27475C16.8871 6.27475 16.9238 6.36074 16.9146 6.41762C16.9088 6.45198 16.8784 6.4921 16.8384 6.4929C16.7316 6.4955 16.7842 6.33748 16.743 6.24793C16.7346 6.26981 16.7285 6.29331 16.7188 6.31382C16.7263 6.33715 16.7304 6.3699 16.7316 6.38878C16.734 6.4263 16.7311 6.46674 16.7375 6.49874C16.7464 6.54404 16.7715 6.5741 16.8099 6.57702C16.8896 6.58334 16.926 6.51876 16.938 6.46576C16.9518 6.51981 17.0572 6.57938 17.1092 6.51301C17.1779 6.42549 17.1229 6.35053 17.0876 6.26819C17.0622 6.20734 17.0696 6.16738 17.0544 6.18642Z" fill="white"/>
<path d="M14.0583 5.93315C14.0638 5.97253 14.0841 5.99943 14.1171 6.00348C14.1853 6.01215 14.2198 5.95794 14.2327 5.91288C14.2417 5.95997 14.3299 6.01539 14.3779 5.96045C14.4413 5.88776 14.3973 5.82099 14.3709 5.74862C14.3519 5.69498 14.3601 5.66094 14.3461 5.67674C14.2891 5.75664 14.3513 5.82658 14.3715 5.89441C14.3375 5.92228 14.2893 5.89303 14.2741 5.86653C14.2417 5.81167 14.2593 5.70397 14.2189 5.68525C14.2066 5.7141 14.1979 5.74611 14.1979 5.74611C14.1979 5.74611 14.2253 5.82171 14.2147 5.87026C14.2081 5.89967 14.1801 5.93298 14.1454 5.93209C14.0535 5.93007 14.1062 5.79603 14.0749 5.71734C14.0667 5.73574 14.0603 5.75591 14.0508 5.77293C14.0563 5.79351 14.0583 5.82171 14.0583 5.83817C14.059 5.87059 14.0545 5.90511 14.0583 5.93315Z" fill="white"/>
<path d="M16.2337 9.64506C16.244 9.62874 16.2665 9.58402 16.2608 9.55346C16.2552 9.5229 16.2177 9.39546 16.1451 9.36354C16.0728 9.33162 16.0181 9.3985 15.9836 9.49162L15.9595 9.49106C15.9538 9.50482 15.9466 9.52546 15.9409 9.56266C15.9328 9.61634 15.9176 9.65098 15.8255 9.73458C15.748 9.80458 15.497 9.97274 15.3343 10.0518C15.1715 10.131 15.0543 10.1993 15.0111 10.22C14.968 10.2404 14.9805 10.248 15.0236 10.2351C15.0665 10.2223 15.2827 10.1527 15.3688 10.1172C15.4548 10.0815 15.56 10.0227 15.6868 9.9405C15.8277 9.84914 15.912 9.7577 15.9402 9.67666C15.9604 9.6189 15.9656 9.59578 15.9656 9.59578C15.9656 9.59578 16.0185 9.62706 16.1084 9.64754C16.1978 9.66818 16.2232 9.66154 16.2337 9.64506ZM16.1122 9.46394C16.1521 9.47906 16.1764 9.5225 16.1836 9.54882C16.1378 9.54994 16.0536 9.52666 16.0177 9.51042C16.0392 9.46874 16.0768 9.45066 16.1122 9.46394Z" fill="white"/>
<path d="M15.281 9.73406C15.156 9.71678 14.8411 9.66885 14.764 9.48606C14.8287 9.39174 15.1267 9.27222 15.4999 9.16054C15.8731 9.04902 16.263 8.90429 16.3679 8.83438C16.3908 8.82661 16.4352 8.82902 16.4352 8.82902C16.454 8.77494 16.5477 8.5851 16.5536 8.54542C16.4493 8.55134 15.8064 8.59862 15.5208 8.6139C15.2351 8.62934 14.6848 8.62558 14.5014 8.62358C14.6139 8.5427 14.8808 8.38478 15.2622 8.25014C15.3116 8.23262 15.3574 8.21686 15.4001 8.20254C15.4319 8.2591 15.4554 8.31502 15.4604 8.36374C15.4846 8.33878 15.5028 8.25606 15.4967 8.1711C15.7191 8.10014 15.8336 8.07662 15.8831 8.06326C15.9143 8.02286 15.9696 7.85929 15.9778 7.7404C15.9446 7.67987 15.8405 7.6045 15.748 7.53975C15.6204 7.4507 15.4829 7.37306 15.3457 7.40702C15.158 7.45305 15.1204 7.79777 15.1641 7.87087C15.1781 7.89397 15.2112 7.9349 15.2501 7.98538C15.1131 8.03926 14.9696 8.10262 14.8432 8.16926C14.5617 8.31758 14.2474 8.47982 14.1557 8.63582L14.1295 8.64862C14.1221 8.66334 14.064 8.90478 14.0556 8.93078C14.1142 8.9287 14.5514 8.92958 14.8559 8.92006C15.1602 8.91038 15.4263 8.9007 15.5305 8.9007C15.3762 8.93726 14.9716 9.08758 14.8554 9.17598C14.7391 9.26462 14.666 9.39942 14.664 9.63046C14.5556 9.58798 14.3541 9.49094 14.1824 9.2587C13.9909 8.9999 14.0306 8.73365 13.954 8.38429C13.8427 7.87736 13.6049 7.44932 13.4569 7.31836C13.407 7.4973 13.4006 7.63214 13.4006 7.63214C13.4006 7.63214 13.5861 8.04221 13.68 8.30397C13.7739 8.56573 13.854 8.82373 13.8501 8.88149C13.7728 9.05101 13.3152 9.40614 12.9338 9.61398C12.5721 9.8111 12.2536 9.8323 12.1407 9.69198C12.1185 9.66454 12.1034 9.63214 12.0949 9.59542C12.144 9.57246 12.1932 9.54942 12.2437 9.5263C12.5689 9.37814 13.1464 9.0663 13.2818 8.9027C13.4278 8.70446 13.4258 8.42526 13.3401 8.26542C13.2548 8.10574 13.1211 7.92079 13.1107 7.85539C13.1025 7.82452 13.1976 7.86796 13.2536 7.87087C13.2808 7.86885 13.2672 7.8323 13.2089 7.77452C13.1623 7.72849 12.982 7.57913 12.9131 7.52087C12.8959 7.50604 12.883 7.51204 12.8795 7.52768C12.866 7.58733 12.8386 7.71504 12.828 7.77809L12.8354 7.80985C12.8552 7.8216 12.878 7.83481 12.889 7.86779C12.9046 7.91455 12.9592 8.04502 13.0487 8.20965C13.1384 8.37429 13.268 8.55598 13.2806 8.64774C13.1753 8.78206 12.644 9.06822 12.1265 9.30406C12.1585 9.20486 12.209 9.0927 12.276 8.96814C12.295 8.94702 12.3124 8.92102 12.3285 8.89174C12.3801 8.79734 12.3851 8.68206 12.3538 8.70646C12.327 8.7323 12.3077 8.8259 12.2771 8.83222C12.2142 8.8451 12.126 8.77173 12.1482 8.63765C12.1683 8.51669 12.2329 8.40742 12.2609 8.3375C12.2996 8.2407 12.3103 8.1451 12.2809 8.1971C12.2149 8.31334 12.0911 8.53846 12.053 8.69574C12.0152 8.85278 12.0554 8.96013 12.1217 9.00173C12.1465 9.01757 12.1703 9.02246 12.1929 9.01942C12.1475 9.10582 12.0914 9.21181 12.0504 9.33821C11.8424 9.43133 11.6399 9.51454 11.4724 9.57454C10.8699 9.79014 10.4406 9.91726 10.1403 10.0116L10.1285 10.0169C10.1507 9.94542 10.1476 9.88446 10.124 9.90278C10.0972 9.92878 10.078 10.0224 10.0473 10.0285C9.98444 10.0414 9.89628 9.96822 9.91836 9.83398C9.93852 9.71302 10.0032 9.6039 10.0312 9.5339C10.0697 9.43726 10.0804 9.34142 10.0512 9.39358C9.98508 9.50974 9.86132 9.73486 9.82324 9.89214C9.78532 10.0493 9.82556 10.1566 9.8918 10.1983C9.97436 10.2501 10.0448 10.1865 10.0988 10.0881L10.1177 10.0477C10.1364 10.0477 10.1681 10.0433 10.2153 10.0328C10.3529 10.0018 10.697 9.9519 11.17 9.89022C11.5203 9.8447 11.7621 9.74854 11.9959 9.64142C11.9948 9.66734 11.9945 9.69366 11.9957 9.72078C12.0084 10.0418 12.2188 10.1324 12.5064 10.0723C12.784 10.0141 13.1709 9.75958 13.4028 9.58798C13.6447 9.40902 13.7842 9.24918 13.8198 9.19342C13.8843 9.0567 13.902 8.90566 13.9064 8.83438C13.9275 9.0307 13.9446 9.3023 14.1302 9.53534C14.3012 9.74974 14.6514 10.0489 15.3102 10.0571C15.3124 9.9787 15.281 9.73406 15.281 9.73406ZM15.2374 7.7451C15.3317 7.63927 15.533 7.70847 15.684 7.84267C15.6066 7.86082 15.5016 7.89316 15.3856 7.93457C15.3167 7.8515 15.2398 7.77144 15.2374 7.7451Z" fill="white"/>
<path d="M11.5334 6.29425C11.5761 6.27472 11.707 6.21589 11.848 6.13372C11.9888 6.05211 12.121 5.95325 12.1857 5.88753C12.2105 5.86232 12.2326 5.84263 12.2467 5.81921C12.289 5.83671 12.3181 5.85486 12.3362 5.862C12.3634 5.87254 12.3998 5.88769 12.4235 5.81006C12.4471 5.7325 12.4158 5.68242 12.3697 5.62262C12.3307 5.57246 12.2688 5.49709 12.2186 5.47837C12.176 5.46241 12.1558 5.55754 12.1622 5.55519H12.1907L12.1962 5.55786C12.1376 5.58745 12.0922 5.6795 12.0876 5.71184C12.083 5.74701 12.0897 5.77294 12.1738 5.79458L12.2076 5.80454C12.1374 5.88769 12.0066 5.97366 11.9174 6.03461C11.791 6.12132 11.6114 6.22966 11.5603 6.26094C11.5092 6.29206 11.5135 6.30187 11.5334 6.29425ZM12.2934 5.68339L12.298 5.64182C12.3571 5.70924 12.401 5.78947 12.3967 5.80082C12.3695 5.803 12.3357 5.77788 12.2765 5.7526C12.2831 5.7325 12.2886 5.7103 12.2934 5.68339ZM12.1236 5.68347C12.1232 5.67083 12.146 5.63566 12.1942 5.61646C12.2423 5.59709 12.2636 5.65114 12.2678 5.71694L12.2535 5.74328L12.2102 5.72829C12.1642 5.71483 12.1332 5.70722 12.1236 5.68347Z" fill="white"/>
<path d="M14.6868 7.56259C14.7562 7.51673 14.947 7.37896 15.0553 7.28869C15.1306 7.22596 15.219 7.13358 15.279 7.05546C15.3167 7.07985 15.3518 7.10149 15.3838 7.12029C15.4456 7.15635 15.4704 7.20984 15.4704 7.20984C15.4818 7.19233 15.5349 7.09654 15.5141 7.04995C15.5017 7.03471 15.4258 6.99039 15.3482 6.9429C15.3875 6.85457 15.4417 6.70181 15.3642 6.64833C15.2978 6.60295 15.1858 6.67807 15.1341 6.77556C15.0913 6.85627 15.0858 6.92475 15.1674 6.98082C15.1903 6.99663 15.2123 7.01153 15.2339 7.02572C15.1516 7.11575 14.9999 7.24897 14.8921 7.33965C14.758 7.45181 14.6313 7.56178 14.6092 7.58804L14.6028 7.59825C14.5735 7.51673 14.5815 7.4664 14.5598 7.49346C14.4659 7.64071 14.5835 7.76 14.6263 7.87912C14.5685 7.93163 14.4798 7.88341 14.4502 7.83747C14.3868 7.74233 14.408 7.54913 14.3339 7.51924C14.3148 7.57142 14.3023 7.62953 14.3023 7.62953C14.3023 7.62953 14.3587 7.76186 14.3444 7.84922C14.3356 7.90205 14.2887 7.96389 14.2273 7.96494C14.0629 7.96915 14.144 7.72588 14.0805 7.58812C14.0676 7.62191 14.0584 7.65805 14.043 7.68933C14.0546 7.72556 14.061 7.7758 14.0627 7.80489C14.0669 7.86267 14.0622 7.92466 14.0719 7.97426C14.0855 8.04393 14.1242 8.09033 14.1834 8.09457C14.306 8.10457 14.362 8.00489 14.3806 7.92361C14.4018 8.00673 14.5642 8.09817 14.644 7.99622C14.7498 7.86145 14.6651 7.74606 14.611 7.61932L14.6046 7.60286C14.6122 7.60554 14.6405 7.59314 14.6868 7.56259ZM15.1664 6.80376C15.207 6.72831 15.2927 6.72191 15.3184 6.76145C15.3388 6.7929 15.3405 6.85425 15.3098 6.91899C15.2342 6.87158 15.1669 6.82515 15.1664 6.80376Z" fill="white"/>
<path d="M12.0119 7.08411C11.8674 7.07389 11.7897 6.94157 11.7453 6.7504C11.7007 6.55923 11.728 6.30713 11.7401 6.24253C11.7521 6.17803 11.6841 6.21133 11.6576 6.36798C11.6313 6.52446 11.6048 6.77471 11.698 7.0367C11.791 7.29837 11.9496 7.39602 12.0885 7.36255C12.2274 7.32925 12.3497 7.00323 12.3928 6.85696C12.4358 6.71061 12.6284 6.11377 12.7374 6.08168C12.7527 6.15485 12.6527 6.33841 12.6207 6.61433C12.5889 6.89027 12.6442 7.25218 12.9945 7.31636C13.3448 7.38062 13.5824 7.1534 13.6685 6.99545C13.7548 6.83776 13.795 6.67195 13.8048 6.58865C13.816 6.8004 13.9604 7.13103 14.241 7.22528C14.5121 7.31636 14.7192 7.23297 14.8107 7.1149C14.892 7.01004 14.9581 6.79408 14.9638 6.62844C14.9693 6.46296 14.8263 6.16013 14.7943 6.06369C14.7622 5.96749 14.7457 5.90073 14.7429 5.86741C14.7401 5.83411 14.8153 5.90599 14.8625 5.92009C14.8945 5.92649 14.8833 5.85721 14.8444 5.80964C14.8056 5.76223 14.5953 5.44351 14.5806 5.46572C14.5716 5.47901 14.4874 5.71345 14.4819 5.74934C14.5153 5.77122 14.5538 5.83152 14.5567 5.88929C14.5593 5.94708 14.615 6.20113 14.6665 6.34229C14.7179 6.48346 14.8179 6.75429 14.8249 6.82876C14.7249 6.89926 14.4997 6.98897 14.2857 6.89805C14.0717 6.8068 14.0034 6.67463 13.9799 6.43849C13.9648 6.28759 13.9633 6.00964 13.9095 5.77722C13.8792 5.64586 13.8153 5.51231 13.7393 5.44141C13.7215 5.48492 13.6409 5.75324 13.6409 5.75324C13.6671 5.83022 13.7489 6.08946 13.7463 6.31409C13.7434 6.53857 13.7257 6.75826 13.474 6.90964C13.2224 7.06101 12.864 7.00072 12.7709 6.76449C12.6777 6.52836 12.8848 5.99708 12.8821 5.85721C12.8793 5.71733 12.8541 5.69797 12.7958 5.72114C12.7374 5.74424 12.6178 5.87909 12.5151 6.09845C12.4121 6.31798 12.3665 6.53735 12.308 6.7222C12.2497 6.90705 12.1563 7.09432 12.0119 7.08411Z" fill="white"/>
<path d="M7.81732 6.26431C7.99507 6.25142 8.14533 6.11666 8.18413 6.08084C8.22301 6.04478 8.24397 5.99105 8.21613 6.01147C8.0105 6.19502 7.73537 6.20021 7.71994 6.16934C7.72695 6.13854 7.79935 6.08846 7.90497 6.01795C7.96913 5.97509 8.02628 5.9349 8.06905 5.87792L8.08071 5.87995C8.15901 5.89713 8.24933 5.93133 8.27693 5.90394C8.32189 5.85961 8.32789 5.787 8.27917 5.70872C8.23797 5.64226 8.14189 5.58044 8.05845 5.53578C7.97517 5.49138 7.95905 5.56228 7.94836 5.58757C7.9381 5.61115 7.94231 5.63125 7.95993 5.63174C7.9331 5.66828 7.914 5.71536 7.90698 5.75426C7.90243 5.77938 7.90611 5.79997 7.91637 5.8169C7.91934 5.82168 7.93477 5.84057 7.96396 5.85175L8.00016 5.86302C7.93784 5.92055 7.86605 5.96561 7.82837 5.98838C7.76035 6.02946 7.67971 6.10134 7.65473 6.17566C7.62966 6.25021 7.63939 6.27719 7.81732 6.26431ZM8.13157 5.74L8.13837 5.70207V5.67776C8.19477 5.71877 8.28485 5.7964 8.27933 5.84291C8.24365 5.83481 8.17565 5.82047 8.11101 5.80386C8.11925 5.78449 8.12605 5.76326 8.13157 5.74ZM7.96449 5.75183C7.92302 5.71877 7.96343 5.68578 8.00016 5.66455C8.04757 5.63716 8.07536 5.65977 8.09964 5.73165C8.09114 5.75223 8.07922 5.77225 8.0652 5.79146C8.02829 5.78003 7.97632 5.76172 7.96449 5.75183Z" fill="white"/>
<path d="M8.35223 8.27174C8.30111 8.31606 8.28135 8.46038 8.29175 8.46902C8.30207 8.47766 8.46183 8.53158 8.48679 8.54326L8.49815 8.49982C8.57423 8.56814 8.65855 8.90894 8.67735 8.9099C8.69607 8.91086 8.72327 8.87134 8.74103 8.78086C8.75743 8.69686 8.77383 8.57126 8.79095 8.46902C8.80687 8.37542 8.83167 8.32182 8.88799 8.31118C8.94431 8.30062 8.98607 8.37286 9.00055 8.4219C9.00055 8.4219 9.04015 8.3275 9.04855 8.26886C9.03919 8.23798 8.95151 8.12158 8.87967 8.16006C8.80767 8.1987 8.76263 8.36198 8.74807 8.46406C8.73343 8.56598 8.72223 8.69246 8.70447 8.7127C8.68591 8.62566 8.62639 8.4699 8.55455 8.38238C8.47375 8.2843 8.37927 8.24838 8.35223 8.27174Z" fill="white"/>
<path d="M7.66769 8.09826C7.73439 8.07994 7.88453 8.0569 7.95641 8.01938C8.02417 7.98765 8.13976 7.83271 8.18464 7.77493C8.22944 7.71715 8.22952 7.68814 8.21816 7.67282C8.17232 7.6477 7.87612 7.62282 7.73325 7.65823C7.69381 7.68489 7.61659 7.82776 7.60519 7.85767C7.59362 7.8874 7.6094 7.88554 7.65725 7.87501C7.70521 7.86431 7.93248 7.87007 8.01469 7.8874C7.98042 7.91155 7.74797 8.02898 7.70205 8.0569C7.65629 8.08482 7.64473 8.10122 7.66769 8.09826Z" fill="white"/>
<path d="M21.4388 8.92505C21.4319 8.75193 21.3471 8.48601 21.0246 8.07809C20.9133 7.93724 20.7567 7.75394 20.5914 7.56617C20.5868 7.50216 20.5823 7.44364 20.5782 7.3934C20.5565 7.13497 20.4831 6.60775 20.4516 6.29608C20.4439 6.21747 20.4433 6.13384 20.4444 6.09016C20.4455 6.05548 20.4706 6.0601 20.5049 6.09576C20.5392 6.13133 20.5922 6.18328 20.6032 6.17971C20.6267 6.1716 20.6063 6.09292 20.5594 5.99964C20.5126 5.90621 20.3356 5.52833 20.3031 5.51366C20.2864 5.50621 20.203 5.72809 20.1978 5.77347C20.2143 5.80135 20.2571 5.8447 20.2612 5.97088C20.2656 6.09697 20.3417 6.8417 20.3855 7.31099L20.3878 7.33716C20.1408 7.0614 19.9082 6.80993 19.8125 6.70799C19.7959 6.69032 19.7777 6.67023 19.758 6.64867C19.7424 6.52315 19.728 6.40353 19.7182 6.30475C19.7101 6.22631 19.7095 6.14252 19.711 6.09884C19.7118 6.06423 19.7369 6.06893 19.7713 6.10459C19.8058 6.14016 19.8586 6.19211 19.8696 6.18838C19.8931 6.18044 19.8727 6.10175 19.8257 6.00832C19.779 5.91488 19.5945 5.52833 19.5618 5.51366C19.5452 5.50621 19.4579 5.74576 19.4527 5.79081C19.4695 5.81885 19.5122 5.8622 19.5163 5.98838C19.518 6.04195 19.532 6.20435 19.5506 6.40928C19.3868 6.21472 19.2265 6.01099 19.2151 5.96958C19.2111 5.94916 19.2457 5.96172 19.3098 5.97209C19.3736 5.9823 19.4335 6.00151 19.4232 5.9699C19.4184 5.95524 19.394 5.9186 19.3329 5.88068C19.2718 5.84284 19.1151 5.74478 18.9984 5.67558C18.8816 5.60629 18.8238 5.54802 18.7997 5.56464C18.7878 5.57282 18.7983 5.81034 18.8052 5.83976C18.8346 5.84243 18.8888 5.86423 18.9233 5.91042C18.9583 5.95661 19.1815 6.26974 19.3582 6.48149C19.409 6.54243 19.4886 6.63692 19.5818 6.746C19.6 6.94105 19.6191 7.1426 19.6349 7.31099C19.6707 7.69511 19.7995 8.70817 19.8008 9.03737C19.7057 9.12665 19.5112 9.25113 19.3111 9.25369C19.111 9.25617 19.0012 9.20353 18.9206 9.05473C18.8957 9.00865 18.8726 8.96225 18.8496 8.92033C18.7951 8.82057 18.6735 8.76457 18.5562 8.79201L18.5383 8.79681L18.5064 8.81209C18.427 8.85369 18.3448 8.92337 18.2646 9.03145C18.1257 9.21897 18.037 9.42241 17.9343 9.59857C17.8273 9.78209 17.7451 9.90513 17.5574 9.87577C17.4252 9.85497 17.3248 9.74161 17.263 9.60217C17.4368 9.48193 17.563 9.32497 17.6553 9.10761C17.7755 8.82497 17.8183 8.50641 17.8076 8.14825C17.7974 7.81115 17.6437 7.01804 17.6031 6.71407C17.5627 6.40993 17.5044 6.16034 17.5112 6.09543C17.5175 6.03279 17.6172 6.18028 17.6683 6.1913C17.6945 6.18546 17.6804 6.09138 17.6308 6.01188C17.5972 5.95783 17.4906 5.71196 17.4208 5.5934C17.388 5.53732 17.3802 5.50483 17.3649 5.49819C17.3499 5.4913 17.2337 5.73936 17.2477 5.76634C17.2821 5.81544 17.3055 5.83887 17.3127 5.92688C17.3201 6.01488 17.3997 6.66091 17.4693 7.13668C17.5217 7.49567 17.6375 8.14777 17.6524 8.62977C17.6573 8.78705 17.6349 8.89993 17.6154 8.96305C17.5655 9.05961 17.484 9.16689 17.1979 9.37057C17.1538 9.08281 17.2018 8.84897 17.1599 8.82737C17.1127 8.83249 17.1051 8.96657 17.0998 9.13209C17.0971 9.20849 17.1005 9.31433 17.1148 9.42801C16.7635 9.66281 16.2992 9.87673 16.0813 9.99089C15.9534 10.058 15.9995 10.0736 16.1078 10.0402C16.216 10.0065 16.8109 9.85057 17.1284 9.68353L17.1626 9.66457C17.1787 9.72057 17.1983 9.77473 17.2223 9.82473C17.3291 10.0468 17.4819 10.1787 17.6472 10.1658C17.7863 10.1551 17.8872 10.0062 17.9752 9.82865C18.0642 9.64889 18.2145 9.30761 18.3619 9.18057C18.4186 9.13161 18.4771 9.09289 18.5341 9.06969C18.5341 9.06969 18.6348 9.03601 18.7275 9.09657C18.7607 9.11841 18.7855 9.14953 18.8011 9.18441C18.8377 9.26441 18.8809 9.36617 18.9693 9.45145C19.1249 9.60137 19.3753 9.57041 19.563 9.48321C19.7505 9.39593 19.8462 9.25977 19.8879 9.09801C19.9591 8.82129 19.9477 8.53769 19.9341 8.28585C19.9184 7.99843 19.8725 7.70467 19.8464 7.3934C19.8379 7.29332 19.8215 7.1541 19.8027 7.00312C19.9855 7.21415 20.1755 7.42833 20.2906 7.54543C20.3303 7.58587 20.3722 7.63076 20.4152 7.67816C20.4496 8.14929 20.4827 8.73889 20.5001 8.98625C20.5174 9.23281 20.5062 9.54265 20.5042 9.59657C20.5021 9.65041 20.5321 9.64121 20.5751 9.52161C20.6328 9.36105 20.669 8.94009 20.6563 8.66089C20.6488 8.49505 20.6323 8.19257 20.6143 7.90653C20.7563 8.07513 20.891 8.24545 20.9787 8.36033C21.1345 8.56441 21.2776 8.80705 21.3277 8.95841C21.3776 9.10993 21.3831 9.15481 21.3929 9.18185C21.4026 9.20881 21.4456 9.09825 21.4388 8.92505Z" fill="white"/>
<path d="M18.8076 14.69C18.7935 14.6497 18.7504 14.6202 18.6988 14.6202C18.6472 14.6202 18.6043 14.6497 18.5901 14.69H18.102C18.097 14.6358 18.1019 14.5814 18.1172 14.5284L19.1249 14.5278L19.153 14.5751C19.1784 14.6177 19.2104 14.6562 19.2475 14.69H18.8076ZM19.4747 14.2216H18.2636C18.3568 14.1545 18.4056 14.0564 18.3924 13.9573C18.3841 13.8948 18.3222 13.8481 18.2467 13.8418H18.2088C18.1169 13.8508 18.0504 13.9169 18.06 13.9896L18.0637 14.0176L18.0682 14.0606C18.0732 14.1146 18.0684 14.1688 18.0532 14.2216H9.10156C9.23444 14.4151 9.47676 14.5336 9.73852 14.5335L17.907 14.5284C17.8136 14.5957 17.7646 14.6939 17.7778 14.7932C17.7875 14.866 17.8696 14.9177 17.9615 14.9088C18.0532 14.8998 18.1198 14.8336 18.1102 14.7608L18.1065 14.7329H18.5866C18.595 14.7798 18.6418 14.8157 18.6988 14.8157C18.7558 14.8157 18.8026 14.7798 18.8112 14.7329H19.2995V14.7318C19.4014 14.8041 19.531 14.8457 19.668 14.8457C19.7971 14.8457 19.9016 14.7561 19.9016 14.6456V14.5877C19.9016 14.3856 19.7104 14.2216 19.4747 14.2216Z" fill="white"/>
</g>
</svg>
