<svg width="21" height="21" viewBox="0 0 21 21" fill="none" xmlns="http://www.w3.org/2000/svg">
<path d="M14 1.75L18.375 6.125V18.3822C18.375 18.8615 17.9857 19.25 17.5058 19.25H3.49423C3.01417 19.25 2.625 18.8516 2.625 18.3822V2.61783C2.625 2.13854 3.01433 1.75 3.49423 1.75H14ZM11.8379 12.6406L13.7721 14.5748L15.0095 13.3373L13.0753 11.4032C13.8681 10.061 13.6878 8.30332 12.5345 7.15012C11.1677 5.78329 8.95169 5.78329 7.58484 7.15012C6.21801 8.51696 6.21801 10.733 7.58484 12.0998C8.73804 13.2531 10.4957 13.4333 11.8379 12.6406ZM11.2971 10.8624C10.6137 11.5459 9.50574 11.5459 8.82227 10.8624C8.13886 10.179 8.13886 9.07095 8.82227 8.38757C9.50574 7.70415 10.6137 7.70415 11.2971 8.38757C11.9806 9.07095 11.9806 10.179 11.2971 10.8624Z" fill="#1769FF"/>
</svg>
