<svg width="37" height="37" viewBox="0 0 37 37" fill="none" xmlns="http://www.w3.org/2000/svg">
<rect width="37" height="37" rx="18.5" fill="white"/>
<g clip-path="url(#clip0_198_1732)">
<path fill-rule="evenodd" clip-rule="evenodd" d="M25.4939 10.801C27.5889 12.022 29.0629 14.501 28.9979 17.393C28.9169 21.003 26.1079 24.187 21.3189 27.031C20.6089 27.453 19.8609 28 18.9999 28C18.1549 28 17.3749 27.443 16.6799 27.03C11.8929 24.187 9.08295 21.002 9.00195 17.393C8.93695 14.501 10.4109 12.023 12.5059 10.801C14.4659 9.66003 16.9279 9.65303 18.9999 11.338C21.0719 9.65303 23.5339 9.65903 25.4939 10.801ZM24.4869 12.53C23.0929 11.718 21.3509 11.747 19.8429 13.273C19.7325 13.3842 19.6012 13.4725 19.4565 13.5327C19.3118 13.593 19.1567 13.624 18.9999 13.624C18.8432 13.624 18.6881 13.593 18.5434 13.5327C18.3987 13.4725 18.2674 13.3842 18.1569 13.273C16.6489 11.747 14.9069 11.718 13.5129 12.53C12.0689 13.372 10.9529 15.158 11.0019 17.35C11.0579 19.861 13.0419 22.544 17.7019 25.312C18.1099 25.555 18.5359 25.866 18.9999 25.995C19.4639 25.866 19.8899 25.555 20.2979 25.312C24.9579 22.544 26.9419 19.862 26.9979 17.349C27.0479 15.159 25.9309 13.372 24.4869 12.53Z" fill="#09244B"/>
</g>
<defs>
<clipPath id="clip0_198_1732">
<rect width="24" height="24" fill="white" transform="translate(7 7)"/>
</clipPath>
</defs>
</svg>
