<svg width="20" height="20" viewBox="0 0 20 20" fill="none" xmlns="http://www.w3.org/2000/svg">
<path fill-rule="evenodd" clip-rule="evenodd" d="M18.1999 5.04677C18.2363 4.8262 18.2128 4.59992 18.132 4.3915C18.0511 4.18309 17.9159 4.00016 17.7403 3.86178C17.5647 3.7234 17.3553 3.63464 17.1337 3.60474C16.9122 3.57484 16.6867 3.60489 16.4807 3.69177L2.23073 9.69177C1.2374 10.1101 1.18657 11.5468 2.23073 11.9801C3.26467 12.4113 4.31367 12.8054 5.37573 13.1618C6.34907 13.4834 7.41073 13.7809 8.26157 13.8651C8.49407 14.1434 8.78657 14.4118 9.0849 14.6568C9.54074 15.0318 10.0891 15.4176 10.6557 15.7876C11.7907 16.5293 13.0499 17.2384 13.8982 17.7001C14.9124 18.2501 16.1266 17.6168 16.3082 16.5109L18.1999 5.04677ZM3.82823 10.8276L16.4316 5.52094L14.6666 16.2209C13.8341 15.7684 12.6349 15.0909 11.5666 14.3926C11.0742 14.0765 10.5988 13.7346 10.1424 13.3684C10.0204 13.2688 9.902 13.1648 9.7874 13.0568L13.0882 9.75677C13.2446 9.60051 13.3325 9.38854 13.3326 9.16748C13.3326 8.94642 13.2449 8.73439 13.0887 8.57802C12.9324 8.42165 12.7204 8.33376 12.4994 8.33369C12.2783 8.33361 12.0663 8.42135 11.9099 8.5776L8.29573 12.1918C7.68407 12.1134 6.8324 11.8868 5.8974 11.5784C5.20131 11.3466 4.51162 11.0959 3.82907 10.8268L3.82823 10.8276Z" fill="white"/>
</svg>
