<svg width="26" height="25" viewBox="0 0 26 25" fill="none" xmlns="http://www.w3.org/2000/svg">
<g clip-path="url(#clip0_937_71785)">
<mask id="mask0_937_71785" style="mask-type:luminance" maskUnits="userSpaceOnUse" x="0" y="0" width="25" height="25">
<path d="M24.877 0.0921631H0.876953V24.0922H24.877V0.0921631Z" fill="white"/>
</mask>
<g mask="url(#mask0_937_71785)">
<path d="M12.877 0.0921631C9.69508 0.0921631 6.6407 1.35723 4.39258 3.60685C2.14213 5.85737 0.877577 8.9095 0.876953 12.0922C0.876953 15.2735 2.14258 18.3279 4.39258 20.5774C6.6407 22.8272 9.69508 24.0921 12.877 24.0921C16.0588 24.0921 19.1132 22.8272 21.3613 20.5774C23.6113 18.3279 24.877 15.2735 24.877 12.0922C24.877 8.91085 23.6113 5.85648 21.3613 3.60685C19.1132 1.35723 16.0588 0.0921631 12.877 0.0921631Z" fill="url(#paint0_linear_937_71785)"/>
<path d="M6.31368 11.9657C9.81243 10.4417 12.1449 9.43689 13.3112 8.95145C16.6449 7.56526 17.3368 7.32451 17.7887 7.31636C17.8881 7.31476 18.1093 7.33933 18.2537 7.45604C18.3737 7.55448 18.4074 7.68761 18.4243 7.78108C18.4393 7.87445 18.4599 8.08726 18.4431 8.25339C18.2631 10.1509 17.4812 14.7555 17.0837 16.8808C16.9168 17.7801 16.5849 18.0816 16.2643 18.111C15.5668 18.1751 15.0381 17.6505 14.3631 17.2082C13.3074 16.5158 12.7112 16.0849 11.6856 15.4093C10.5006 14.6286 11.2693 14.1994 11.9443 13.4981C12.1206 13.3146 15.1918 10.5218 15.2499 10.2685C15.2574 10.2368 15.2649 10.1186 15.1937 10.0564C15.1243 9.99395 15.0212 10.0153 14.9462 10.0322C14.8393 10.0562 13.1537 11.1715 9.88368 13.3778C9.40555 13.7066 8.97243 13.867 8.58243 13.8585C8.15493 13.8493 7.32993 13.6163 6.7168 13.4171C5.9668 13.1728 5.36868 13.0436 5.42118 12.6287C5.44743 12.4127 5.74555 12.1916 6.31368 11.9657Z" fill="white"/>
</g>
</g>
<defs>
<linearGradient id="paint0_linear_937_71785" x1="1200.88" y1="0.0921631" x2="1200.88" y2="2400.09" gradientUnits="userSpaceOnUse">
<stop stop-color="#2AABEE"/>
<stop offset="1" stop-color="#229ED9"/>
</linearGradient>
<clipPath id="clip0_937_71785">
<rect width="25" height="25" fill="white" transform="translate(0.5)"/>
</clipPath>
</defs>
</svg>
