<svg width="13" height="14" viewBox="0 0 13 14" fill="none" xmlns="http://www.w3.org/2000/svg">
<path d="M9.16667 4.49683V9.33325C9.16667 11.7265 7.2266 13.6666 4.83333 13.6666C2.4401 13.6666 0.5 11.7265 0.5 9.33325C0.5 6.93998 2.4401 4.99992 4.83333 4.99992C5.17753 4.99992 5.51233 5.04005 5.83333 5.11587V7.22445C5.53027 7.08045 5.1912 6.99992 4.83333 6.99992C3.54467 6.99992 2.5 8.04458 2.5 9.33325C2.5 10.6219 3.54467 11.6666 4.83333 11.6666C6.122 11.6666 7.16667 10.6219 7.16667 9.33325V0.333252H9.16667C9.16667 2.1742 10.6591 3.66658 12.5 3.66658V5.66658C11.2387 5.66658 10.0797 5.22877 9.16667 4.49683Z" fill="black"/>
</svg>
