<svg width="20" height="20" viewBox="0 0 20 20" fill="none" xmlns="http://www.w3.org/2000/svg">
<mask id="mask0_1021_38564" style="mask-type:luminance" maskUnits="userSpaceOnUse" x="0" y="0" width="20" height="20">
<path d="M19.9188 0.574219H0.71875V19.7742H19.9188V0.574219Z" fill="white"/>
</mask>
<g mask="url(#mask0_1021_38564)">
<path d="M14.3679 7.50464C15.5944 8.39038 17.0969 8.91153 18.7197 8.91153V5.75674C18.4126 5.7568 18.1063 5.72445 17.8058 5.66014V8.14341C16.1831 8.14341 14.6808 7.62225 13.454 6.73658V13.1746C13.454 16.3952 10.8697 19.0058 7.68201 19.0058C6.4926 19.0058 5.38709 18.6426 4.46875 18.0195C5.51689 19.1022 6.9786 19.7739 8.59571 19.7739C11.7836 19.7739 14.368 17.1633 14.368 13.9425L14.3679 7.50464ZM15.4953 4.32184C14.8685 3.63002 14.457 2.73597 14.3679 1.74756V1.3418H13.5019C13.7199 2.59806 14.4634 3.67133 15.4953 4.32184ZM6.48497 15.5482C6.13477 15.0842 5.94552 14.5168 5.94637 13.9333C5.94637 12.4603 7.12841 11.266 8.58675 11.266C8.85851 11.2659 9.12867 11.3079 9.38763 11.391V8.16568C9.08499 8.12377 8.77947 8.10598 8.47414 8.1125V10.6229C8.21494 10.5399 7.94466 10.4978 7.67281 10.498C6.21449 10.498 5.03252 11.6922 5.03252 13.1654C5.03252 14.207 5.62334 15.1088 6.48497 15.5482Z" fill="#FF004F"/>
<path d="M13.4585 6.73651C14.6853 7.62219 16.1876 8.14334 17.8103 8.14334V5.66007C16.9046 5.46516 16.1026 4.98696 15.4998 4.32184C14.4678 3.67127 13.7243 2.59799 13.5063 1.3418H11.2314V13.9424C11.2262 15.4114 10.0462 16.6008 8.59104 16.6008C7.73354 16.6008 6.97172 16.1878 6.48924 15.5482C5.62768 15.1088 5.03685 14.207 5.03685 13.1654C5.03685 11.6924 6.21883 10.4981 7.67715 10.4981C7.95656 10.4981 8.22586 10.542 8.47848 10.623V8.11257C5.34677 8.17793 2.82812 10.763 2.82812 13.9425C2.82812 15.5296 3.45532 16.9683 4.47328 18.0196C5.39162 18.6426 6.49712 19.0059 7.68653 19.0059C10.8743 19.0059 13.4586 16.3951 13.4586 13.1746L13.4585 6.73651Z" fill="black"/>
<path d="M17.8101 5.66049V4.98903C16.9933 4.99028 16.1926 4.75919 15.4996 4.32218C16.113 5.0007 16.9208 5.46854 17.8101 5.66049ZM13.5061 1.34221C13.4853 1.22215 13.4694 1.1013 13.4582 0.979992V0.574219H10.3172V13.175C10.3122 14.6437 9.13224 15.8331 7.67693 15.8331C7.24967 15.8331 6.84627 15.7307 6.48902 15.5486C6.9715 16.1882 7.73332 16.6011 8.59088 16.6011C10.0459 16.6011 11.2261 15.4118 11.2312 13.9429V1.34221H13.5061ZM8.47839 8.11298V7.39817C8.21593 7.36193 7.95132 7.34374 7.68638 7.34387C4.49836 7.34381 1.91406 9.95457 1.91406 13.175C1.91406 15.1939 2.92973 16.9733 4.47313 18.0199C3.45517 16.9687 2.82797 15.5298 2.82797 13.9428C2.82797 10.7635 5.34656 8.17835 8.47839 8.11298Z" fill="#00F2EA"/>
</g>
</svg>
