<svg width="17" height="16" viewBox="0 0 17 16" fill="none" xmlns="http://www.w3.org/2000/svg">
<path d="M8.5 8.66667C10.0973 8.66667 11.55 9.12933 12.6187 9.78133C13.152 10.1067 13.608 10.4907 13.9373 10.908C14.2613 11.318 14.5 11.8087 14.5 12.3333C14.5 12.8967 14.226 13.3407 13.8313 13.6573C13.458 13.9573 12.9653 14.156 12.442 14.2947C11.39 14.5727 9.986 14.6667 8.5 14.6667C7.014 14.6667 5.61 14.5733 4.558 14.2947C4.03467 14.156 3.542 13.9573 3.16867 13.6573C2.77333 13.34 2.5 12.8967 2.5 12.3333C2.5 11.8087 2.73867 11.318 3.06267 10.9073C3.392 10.4907 3.84733 10.1073 4.38133 9.78067C5.45 9.13 6.90333 8.66667 8.5 8.66667ZM8.5 1.33333C9.38406 1.33333 10.2319 1.68452 10.857 2.30964C11.4821 2.93477 11.8333 3.78261 11.8333 4.66667C11.8333 5.55072 11.4821 6.39857 10.857 7.02369C10.2319 7.64881 9.38406 8 8.5 8C7.61595 8 6.7681 7.64881 6.14298 7.02369C5.51786 6.39857 5.16667 5.55072 5.16667 4.66667C5.16667 3.78261 5.51786 2.93477 6.14298 2.30964C6.7681 1.68452 7.61595 1.33333 8.5 1.33333Z" fill="white"/>
</svg>
