<svg width="20" height="20" viewBox="0 0 20 20" fill="none" xmlns="http://www.w3.org/2000/svg">
<path d="M10.0001 1.66675C14.6026 1.66675 18.3334 5.39758 18.3334 10.0001C18.3334 14.6026 14.6026 18.3334 10.0001 18.3334C8.58172 18.3355 7.18649 17.974 5.94759 17.2834L5.69342 17.1351L3.16676 17.8784C3.02926 17.9189 2.88369 17.9237 2.74385 17.8922C2.60401 17.8606 2.47454 17.7939 2.3677 17.6984C2.26087 17.6028 2.18021 17.4815 2.13337 17.3461C2.08654 17.2106 2.07508 17.0654 2.10009 16.9242L2.12176 16.8334L2.86509 14.3067C2.07922 13.0078 1.66474 11.5182 1.66676 10.0001C1.66676 5.39758 5.39759 1.66675 10.0001 1.66675ZM10.0001 3.33341C8.80645 3.3332 7.63464 3.65346 6.60703 4.26076C5.57943 4.86806 4.73372 5.74012 4.15822 6.78587C3.58273 7.83161 3.29856 9.0127 3.33539 10.2058C3.37222 11.3988 3.72869 12.5602 4.36759 13.5684C4.53259 13.8284 4.60342 14.1484 4.54759 14.4659L4.51509 14.6017L4.14759 15.8526L5.39842 15.4851C5.75926 15.3784 6.13426 15.4434 6.43176 15.6326C7.30536 16.1857 8.29566 16.5281 9.32438 16.6326C10.3531 16.7371 11.392 16.6009 12.359 16.2347C13.326 15.8686 14.1946 15.2825 14.8961 14.5228C15.5975 13.7632 16.1127 12.8507 16.4008 11.8577C16.6889 10.8646 16.7421 9.81815 16.5561 8.801C16.3701 7.78386 15.9501 6.82392 15.3292 5.99706C14.7084 5.17021 13.9037 4.49911 12.9788 4.03682C12.0539 3.57452 11.0341 3.33371 10.0001 3.33341ZM7.58509 5.98675C7.67735 5.94679 7.77842 5.93155 7.87837 5.94251C7.97831 5.95346 8.07368 5.99025 8.15509 6.04925C8.57509 6.35591 8.90842 6.76758 9.19509 7.16925L9.46759 7.56425L9.59509 7.75175C9.66865 7.85931 9.70476 7.98811 9.69783 8.11824C9.6909 8.24837 9.64133 8.3726 9.55676 8.47175L9.49426 8.53508L8.72426 9.10675C8.6872 9.13358 8.66112 9.17294 8.65085 9.21752C8.64059 9.26211 8.64683 9.30891 8.66842 9.34925C8.84342 9.66591 9.15259 10.1384 9.50759 10.4934C9.86342 10.8484 10.3576 11.1784 10.6959 11.3726C10.7693 11.4142 10.8576 11.4009 10.9176 11.3467L10.9493 11.3092L11.4501 10.5467C11.542 10.4243 11.6778 10.3421 11.829 10.3176C11.9802 10.293 12.135 10.328 12.2609 10.4151L12.7134 10.7309C13.1634 11.0517 13.5959 11.3967 13.9384 11.8342C14.0021 11.9163 14.0426 12.014 14.0556 12.117C14.0687 12.2201 14.0538 12.3247 14.0126 12.4201C13.6826 13.1901 12.8468 13.8459 11.9784 13.8142L11.8459 13.8059L11.6868 13.7909C11.6567 13.7874 11.6267 13.7835 11.5968 13.7792L11.3984 13.7459C10.6284 13.6009 9.39426 13.1642 8.11509 11.8859C6.83676 10.6067 6.40009 9.37258 6.25509 8.60258L6.22176 8.40425L6.20092 8.23091L6.19009 8.08508C6.18877 8.06426 6.18766 8.04343 6.18676 8.02258C6.15509 7.15258 6.81426 6.31675 7.58509 5.98675Z" fill="white"/>
</svg>
