<svg width="25" height="26" viewBox="0 0 25 26" fill="none" xmlns="http://www.w3.org/2000/svg">
<g clip-path="url(#clip0_810_61036)">
<mask id="mask0_810_61036" style="mask-type:luminance" maskUnits="userSpaceOnUse" x="0" y="0" width="25" height="25">
<path d="M24.5384 0.853516H0.816406V24.8535H24.5384V0.853516Z" fill="white"/>
</mask>
<g mask="url(#mask0_810_61036)">
<path d="M7.08822 21.4087L7.47602 21.6026C9.09208 22.5722 10.9019 23.0247 12.7118 23.0247C18.4 23.0247 23.054 18.3707 23.054 12.6825C23.054 9.96769 21.9551 7.3175 20.016 5.37832C18.0768 3.43914 15.4912 2.34033 12.7118 2.34033C7.02363 2.34033 2.36958 6.99429 2.43426 12.7472C2.43426 14.6863 3.01601 16.5609 3.98555 18.1767L4.24408 18.5646L3.20995 22.3783L7.08822 21.4087Z" fill="#39B54A"/>
<path d="M21.1129 4.34398C18.9151 2.08168 15.8771 0.853516 12.7745 0.853516C6.18148 0.853516 0.881086 6.21849 0.945673 12.747C0.945673 14.8154 1.52742 16.8193 2.49706 18.6291L0.816406 24.7698L7.08634 23.1538C8.83158 24.1235 10.7706 24.5759 12.7099 24.5759C19.2384 24.5759 24.5387 19.2109 24.5387 12.6825C24.5387 9.5151 23.3105 6.5417 21.1129 4.34398ZM12.7745 22.5722C11.0292 22.5722 9.28406 22.1198 7.79735 21.2148L7.40955 21.0209L3.66055 21.9904L4.63009 18.3061L4.37156 17.9182C1.52742 13.3289 2.88486 7.25271 7.53882 4.40857C12.1927 1.56453 18.2041 2.92196 21.0483 7.57592C23.8923 12.2299 22.5349 18.2413 17.881 21.0855C16.3942 22.055 14.5844 22.5722 12.7745 22.5722ZM18.4627 15.3974L17.7517 15.0742C17.7517 15.0742 16.7175 14.6217 16.0711 14.2985C16.0064 14.2985 15.9418 14.2338 15.8771 14.2338C15.6832 14.2338 15.5539 14.2985 15.4247 14.3632C15.4247 14.3632 15.3601 14.4277 14.4551 15.462C14.3904 15.5912 14.2612 15.6559 14.1319 15.6559H14.0672C14.0026 15.6559 13.8734 15.5912 13.8087 15.5266L13.4855 15.3974C12.7745 15.0742 12.1281 14.6863 11.611 14.1692C11.4817 14.0399 11.2878 13.9107 11.1585 13.7814C10.706 13.3289 10.2535 12.8118 9.93048 12.23L9.8658 12.1008C9.80121 12.0361 9.80121 11.9715 9.73653 11.8422C9.73653 11.713 9.73653 11.5837 9.80121 11.519C9.80121 11.519 10.0597 11.1958 10.2535 11.0019C10.3829 10.8726 10.4475 10.6787 10.5768 10.5494C10.706 10.3555 10.7707 10.0969 10.706 9.903C10.6414 9.57978 9.8658 7.83455 9.67195 7.44675C9.54259 7.2528 9.41341 7.18822 9.21947 7.12354H8.50846C8.3791 7.12354 8.24992 7.18822 8.12056 7.18822L8.05588 7.2528C7.92662 7.31748 7.79735 7.44675 7.66809 7.51134C7.53882 7.64069 7.47414 7.76987 7.34487 7.89923C6.89239 8.48097 6.63386 9.19198 6.63386 9.903C6.63386 10.4201 6.76313 10.9373 6.95707 11.3897L7.02175 11.5837C7.6035 12.8118 8.3791 13.9107 9.41341 14.8802L9.67195 15.1388C9.8658 15.3327 10.0597 15.462 10.189 15.6558C11.5464 16.8194 13.0977 17.6597 14.8429 18.1122C15.0369 18.1767 15.2954 18.1767 15.4893 18.2414H16.1357C16.4589 18.2414 16.8467 18.1122 17.1053 17.9829C17.2992 17.8536 17.4284 17.8536 17.5577 17.7244L17.6871 17.595C17.8163 17.4657 17.9456 17.4011 18.0749 17.2719C18.2041 17.1426 18.3334 17.0133 18.3981 16.884C18.5273 16.6255 18.5919 16.3022 18.6566 15.9791V15.5266C18.6566 15.5266 18.5919 15.462 18.4627 15.3974Z" fill="white"/>
</g>
</g>
<defs>
<clipPath id="clip0_810_61036">
<rect width="25" height="25" fill="white" transform="translate(0 0.76123)"/>
</clipPath>
</defs>
</svg>
