<svg width="25" height="18" viewBox="0 0 25 18" fill="none" xmlns="http://www.w3.org/2000/svg">
<path d="M24.2598 3.26161C24.1188 2.74067 23.8438 2.26575 23.4622 1.88413C23.0806 1.50251 22.6057 1.22752 22.0848 1.08653C20.1777 0.566406 12.5021 0.566406 12.5021 0.566406C12.5021 0.566406 4.82613 0.58215 2.919 1.10228C2.39806 1.24328 1.92314 1.51828 1.54154 1.89992C1.15994 2.28154 0.884968 2.75649 0.744021 3.27745C0.167157 6.66606 -0.0566192 11.8295 0.759861 15.0826C0.900823 15.6035 1.1758 16.0784 1.5574 16.4601C1.93899 16.8417 2.4139 17.1166 2.93484 17.2576C4.84197 17.7777 12.5177 17.7777 12.5177 17.7777C12.5177 17.7777 20.1934 17.7777 22.1005 17.2576C22.6214 17.1166 23.0963 16.8417 23.478 16.4601C23.8596 16.0785 24.1346 15.6035 24.2755 15.0826C24.884 11.6891 25.0715 6.52887 24.2598 3.26161Z" fill="#FF0000"/>
<path d="M10.0625 12.8607L16.43 9.17253L10.0625 5.48438V12.8607Z" fill="white"/>
</svg>
